<?xml version="1.0" encoding="utf-8"?>
<svg xmlns="http://www.w3.org/2000/svg" xmlns:xlink="http://www.w3.org/1999/xlink" width="600" height="400" viewBox="0 0 2400 1600">
<defs>
  <clipPath id="clip920">
    <rect x="0" y="0" width="2400" height="1600"/>
  </clipPath>
</defs>
<path clip-path="url(#clip920)" d="M0 1600 L2400 1600 L2400 0 L0 0  Z" fill="#ffffff" fill-rule="evenodd" fill-opacity="1"/>
<defs>
  <clipPath id="clip921">
    <rect x="480" y="0" width="1681" height="1600"/>
  </clipPath>
</defs>
<path clip-path="url(#clip920)" d="M156.598 1486.45 L2352.76 1486.45 L2352.76 47.2441 L156.598 47.2441  Z" fill="#ffffff" fill-rule="evenodd" fill-opacity="1"/>
<defs>
  <clipPath id="clip922">
    <rect x="156" y="47" width="2197" height="1440"/>
  </clipPath>
</defs>
<polyline clip-path="url(#clip922)" style="stroke:#000000; stroke-linecap:round; stroke-linejoin:round; stroke-width:4; stroke-opacity:1; fill:none" points="1695.7,355.23 1066.11,1445.72 "/>
<polyline clip-path="url(#clip922)" style="stroke:#000000; stroke-linecap:round; stroke-linejoin:round; stroke-width:4; stroke-opacity:1; fill:none" points="1493.07,881.086 1420.2,1007.31 "/>
<polyline clip-path="url(#clip922)" style="stroke:#000000; stroke-linecap:round; stroke-linejoin:round; stroke-width:4; stroke-opacity:1; fill:none" points="1453.79,985.133 1420.2,1007.31 1422.61,967.133 "/>
<polyline clip-path="url(#clip922)" style="stroke:#000000; stroke-linecap:round; stroke-linejoin:round; stroke-width:4; stroke-opacity:1; fill:none" points="1420.2,1007.31 1493.07,881.086 "/>
<polyline clip-path="url(#clip922)" style="stroke:#000000; stroke-linecap:round; stroke-linejoin:round; stroke-width:4; stroke-opacity:1; fill:none" points="813.657,1299.96 1513.4,87.9763 "/>
<polyline clip-path="url(#clip922)" style="stroke:#000000; stroke-linecap:round; stroke-linejoin:round; stroke-width:4; stroke-opacity:1; fill:none" points="1051.36,713.357 1124.23,587.133 "/>
<polyline clip-path="url(#clip922)" style="stroke:#000000; stroke-linecap:round; stroke-linejoin:round; stroke-width:4; stroke-opacity:1; fill:none" points="1090.64,609.31 1124.23,587.133 1121.82,627.31 "/>
<polyline clip-path="url(#clip922)" style="stroke:#000000; stroke-linecap:round; stroke-linejoin:round; stroke-width:4; stroke-opacity:1; fill:none" points="1124.23,587.133 1051.36,713.357 "/>
<polyline clip-path="url(#clip922)" style="stroke:#0000ff; stroke-linecap:round; stroke-linejoin:round; stroke-width:4; stroke-opacity:1; fill:none" stroke-dasharray="16, 10" points="1695.7,355.23 1513.4,87.9763 "/>
<polyline clip-path="url(#clip922)" style="stroke:#0000ff; stroke-linecap:round; stroke-linejoin:round; stroke-width:4; stroke-opacity:1; fill:none" points="1573.37,331.085 1491.24,210.679 "/>
<polyline clip-path="url(#clip922)" style="stroke:#0000ff; stroke-linecap:round; stroke-linejoin:round; stroke-width:4; stroke-opacity:1; fill:none" points="1496.65,250.562 1491.24,210.679 1526.39,230.276 "/>
<polyline clip-path="url(#clip922)" style="stroke:#0000ff; stroke-linecap:round; stroke-linejoin:round; stroke-width:4; stroke-opacity:1; fill:none" points="1491.24,210.679 1573.37,331.085 "/>
<polyline clip-path="url(#clip922)" style="stroke:#0000ff; stroke-linecap:round; stroke-linejoin:round; stroke-width:4; stroke-opacity:1; fill:none" stroke-dasharray="16, 10" points="1513.4,87.9763 813.657,1299.96 "/>
<polyline clip-path="url(#clip922)" style="stroke:#0000ff; stroke-linecap:round; stroke-linejoin:round; stroke-width:4; stroke-opacity:1; fill:none" points="1275.7,674.584 1202.82,800.808 "/>
<polyline clip-path="url(#clip922)" style="stroke:#0000ff; stroke-linecap:round; stroke-linejoin:round; stroke-width:4; stroke-opacity:1; fill:none" points="1236.41,778.631 1202.82,800.808 1205.24,760.631 "/>
<polyline clip-path="url(#clip922)" style="stroke:#0000ff; stroke-linecap:round; stroke-linejoin:round; stroke-width:4; stroke-opacity:1; fill:none" points="1202.82,800.808 1275.7,674.584 "/>
<polyline clip-path="url(#clip922)" style="stroke:#0000ff; stroke-linecap:round; stroke-linejoin:round; stroke-width:4; stroke-opacity:1; fill:none" stroke-dasharray="16, 10" points="813.657,1299.96 1066.11,1445.72 "/>
<polyline clip-path="url(#clip922)" style="stroke:#0000ff; stroke-linecap:round; stroke-linejoin:round; stroke-width:4; stroke-opacity:1; fill:none" points="920.494,1260.67 1046.72,1333.54 "/>
<polyline clip-path="url(#clip922)" style="stroke:#0000ff; stroke-linecap:round; stroke-linejoin:round; stroke-width:4; stroke-opacity:1; fill:none" points="1024.54,1299.96 1046.72,1333.54 1006.54,1331.13 "/>
<polyline clip-path="url(#clip922)" style="stroke:#0000ff; stroke-linecap:round; stroke-linejoin:round; stroke-width:4; stroke-opacity:1; fill:none" points="1046.72,1333.54 920.494,1260.67 "/>
<polyline clip-path="url(#clip922)" style="stroke:#0000ff; stroke-linecap:round; stroke-linejoin:round; stroke-width:4; stroke-opacity:1; fill:none" stroke-dasharray="16, 10" points="1066.11,1445.72 1695.7,355.23 "/>
<polyline clip-path="url(#clip922)" style="stroke:#0000ff; stroke-linecap:round; stroke-linejoin:round; stroke-width:4; stroke-opacity:1; fill:none" points="1268.73,919.86 1341.6,793.635 "/>
<polyline clip-path="url(#clip922)" style="stroke:#0000ff; stroke-linecap:round; stroke-linejoin:round; stroke-width:4; stroke-opacity:1; fill:none" points="1308.02,815.812 1341.6,793.635 1339.19,833.812 "/>
<polyline clip-path="url(#clip922)" style="stroke:#0000ff; stroke-linecap:round; stroke-linejoin:round; stroke-width:4; stroke-opacity:1; fill:none" points="1341.6,793.635 1268.73,919.86 "/>
<path clip-path="url(#clip920)" d="M1693.53 902.78 Q1693.53 906.51 1692.17 910.691 Q1690.86 914.831 1688.9 918.397 Q1686.97 921.963 1684.3 925.611 Q1681.64 929.259 1679.39 931.841 Q1677.13 934.423 1674.8 936.76 Q1673.52 938.031 1672.95 938.891 Q1672.79 939.137 1672.66 941.064 Q1672.54 942.949 1672.54 943.646 Q1672.54 954.59 1677.66 954.59 Q1681.93 954.59 1688.57 948.032 Q1689.43 947.253 1689.67 947.253 Q1690.17 947.253 1690.41 947.622 Q1690.66 947.991 1690.66 948.278 Q1690.66 948.811 1688.69 950.614 Q1686.76 952.418 1685.58 953.238 Q1681.15 956.435 1677.5 956.435 Q1669.71 956.435 1668.11 943.564 Q1666.39 945.286 1665.08 946.433 Q1663.32 948.196 1662.83 948.606 Q1662.33 949.016 1662.05 949.016 Q1661.68 949.016 1661.35 948.647 Q1661.06 948.278 1661.06 947.95 Q1661.06 947.704 1661.47 947.089 L1667.91 940.982 Q1667.91 927.127 1674.55 912.002 Q1675 910.937 1675.66 909.584 Q1676.31 908.19 1677.83 905.649 Q1679.35 903.108 1680.86 901.181 Q1682.42 899.214 1684.51 897.738 Q1686.6 896.221 1688.57 896.221 Q1693.53 896.221 1693.53 902.78 M1691.52 902.452 Q1691.52 898.066 1688.65 898.066 Q1686.81 898.066 1685.37 899.952 Q1683.98 901.837 1681.93 905.977 Q1679.8 910.363 1677.62 917.864 Q1675.49 925.324 1674.59 929.423 Q1673.73 933.522 1673.4 935.366 Q1691.52 916.511 1691.52 902.452 Z" fill="#000000" fill-rule="nonzero" fill-opacity="1" /><path clip-path="url(#clip920)" d="M1702.16 946.142 L1702.16 944.305 Q1709.22 944.305 1712.87 940.547 Q1713.87 940.547 1714.04 940.776 Q1714.22 941.006 1714.22 942.067 L1714.22 975.035 Q1714.22 976.785 1715.08 977.33 Q1715.94 977.876 1719.7 977.876 L1721.56 977.876 L1721.56 979.683 Q1719.49 979.511 1712.03 979.511 Q1704.57 979.511 1702.54 979.683 L1702.54 977.876 L1704.4 977.876 Q1708.1 977.876 1708.99 977.359 Q1709.88 976.814 1709.88 975.035 L1709.88 944.592 Q1706.81 946.142 1702.16 946.142 Z" fill="#000000" fill-rule="nonzero" fill-opacity="1" /><path clip-path="url(#clip920)" d="M926.207 635.526 Q926.207 639.256 924.854 643.437 Q923.542 647.577 921.575 651.143 Q919.648 654.709 916.984 658.357 Q914.32 662.005 912.065 664.588 Q909.811 667.17 907.475 669.506 Q906.204 670.777 905.63 671.638 Q905.466 671.884 905.343 673.81 Q905.22 675.696 905.22 676.392 Q905.22 687.337 910.344 687.337 Q914.607 687.337 921.247 680.778 Q922.108 679.999 922.354 679.999 Q922.846 679.999 923.091 680.368 Q923.337 680.737 923.337 681.024 Q923.337 681.557 921.37 683.361 Q919.443 685.164 918.255 685.984 Q913.828 689.181 910.18 689.181 Q902.392 689.181 900.793 676.31 Q899.072 678.032 897.76 679.18 Q895.998 680.942 895.506 681.352 Q895.014 681.762 894.727 681.762 Q894.358 681.762 894.03 681.393 Q893.743 681.024 893.743 680.696 Q893.743 680.45 894.153 679.836 L900.588 673.728 Q900.588 659.874 907.229 644.749 Q907.679 643.683 908.335 642.33 Q908.991 640.937 910.508 638.395 Q912.024 635.854 913.541 633.928 Q915.099 631.96 917.189 630.484 Q919.279 628.968 921.247 628.968 Q926.207 628.968 926.207 635.526 M924.198 635.198 Q924.198 630.812 921.329 630.812 Q919.484 630.812 918.05 632.698 Q916.656 634.583 914.607 638.723 Q912.475 643.109 910.303 650.61 Q908.171 658.07 907.27 662.169 Q906.409 666.268 906.081 668.113 Q924.198 649.258 924.198 635.198 Z" fill="#000000" fill-rule="nonzero" fill-opacity="1" /><path clip-path="url(#clip920)" d="M934.844 712.429 Q934.844 711.368 934.93 711.052 Q935.045 710.737 935.504 710.249 L946.78 697.682 Q952.949 690.738 952.949 684.684 Q952.949 680.753 950.883 677.941 Q948.846 675.129 945.087 675.129 Q942.505 675.129 940.324 676.707 Q938.143 678.285 937.139 681.097 Q937.311 681.04 937.914 681.04 Q939.377 681.04 940.181 681.958 Q941.013 682.876 941.013 684.11 Q941.013 685.688 939.98 686.463 Q938.975 687.209 937.971 687.209 Q937.57 687.209 937.024 687.123 Q936.508 687.037 935.676 686.233 Q934.844 685.401 934.844 683.938 Q934.844 679.835 937.943 676.564 Q941.07 673.293 945.833 673.293 Q951.227 673.293 954.756 676.506 Q958.314 679.691 958.314 684.684 Q958.314 686.434 957.769 688.041 Q957.253 689.619 956.535 690.853 Q955.847 692.086 953.953 694.066 Q952.059 696.046 950.539 697.452 Q949.018 698.858 945.603 701.842 L939.377 707.896 L949.965 707.896 Q955.129 707.896 955.531 707.437 Q956.105 706.605 956.822 702.215 L958.314 702.215 L956.65 712.429 L934.844 712.429 Z" fill="#000000" fill-rule="nonzero" fill-opacity="1" /><path clip-path="url(#clip920)" d="M915.712 1409.62 Q915.712 1413.35 914.36 1417.53 Q913.048 1421.67 911.08 1425.24 Q909.154 1428.8 906.49 1432.45 Q903.825 1436.1 901.571 1438.68 Q899.316 1441.27 896.98 1443.6 Q895.709 1444.87 895.136 1445.73 Q894.972 1445.98 894.849 1447.91 Q894.726 1449.79 894.726 1450.49 Q894.726 1461.43 899.849 1461.43 Q904.112 1461.43 910.753 1454.87 Q911.613 1454.09 911.859 1454.09 Q912.351 1454.09 912.597 1454.46 Q912.843 1454.83 912.843 1455.12 Q912.843 1455.65 910.875 1457.46 Q908.949 1459.26 907.76 1460.08 Q903.333 1463.28 899.685 1463.28 Q891.897 1463.28 890.299 1450.41 Q888.577 1452.13 887.266 1453.28 Q885.503 1455.04 885.011 1455.45 Q884.519 1455.86 884.232 1455.86 Q883.864 1455.86 883.536 1455.49 Q883.249 1455.12 883.249 1454.79 Q883.249 1454.55 883.659 1453.93 L890.094 1447.82 Q890.094 1433.97 896.734 1418.84 Q897.185 1417.78 897.841 1416.43 Q898.497 1415.03 900.013 1412.49 Q901.53 1409.95 903.047 1408.02 Q904.604 1406.06 906.695 1404.58 Q908.785 1403.06 910.753 1403.06 Q915.712 1403.06 915.712 1409.62 M913.704 1409.29 Q913.704 1404.91 910.834 1404.91 Q908.99 1404.91 907.555 1406.79 Q906.162 1408.68 904.112 1412.82 Q901.981 1417.2 899.808 1424.71 Q897.677 1432.17 896.775 1436.26 Q895.914 1440.36 895.586 1442.21 Q913.704 1423.35 913.704 1409.29 Z" fill="#000000" fill-rule="nonzero" fill-opacity="1" /><path clip-path="url(#clip920)" d="M924.349 1478.61 Q924.349 1476.86 925.354 1476.02 Q926.358 1475.19 927.649 1475.19 Q928.998 1475.19 929.944 1476.08 Q930.92 1476.94 930.92 1478.46 Q930.92 1480.1 929.772 1481.02 Q928.653 1481.93 927.046 1481.7 Q928.452 1484.06 931.035 1485.12 Q933.646 1486.18 936.056 1486.18 Q938.581 1486.18 940.618 1484 Q942.684 1481.82 942.684 1476.48 Q942.684 1471.95 940.905 1469.34 Q939.155 1466.73 935.683 1466.73 L933.101 1466.73 Q932.211 1466.73 931.953 1466.64 Q931.695 1466.55 931.695 1466.07 Q931.695 1465.49 932.584 1465.38 Q933.474 1465.38 934.879 1465.21 Q938.294 1465.09 940.102 1462.14 Q941.737 1459.38 941.737 1455.45 Q941.737 1451.86 940.015 1450.37 Q938.323 1448.85 936.113 1448.85 Q934.047 1448.85 931.781 1449.71 Q929.514 1450.57 928.28 1452.5 Q931.924 1452.5 931.924 1455.45 Q931.924 1456.74 931.092 1457.6 Q930.289 1458.43 928.94 1458.43 Q927.649 1458.43 926.788 1457.63 Q925.927 1456.8 925.927 1455.39 Q925.927 1452.04 928.911 1449.71 Q931.924 1447.39 936.343 1447.39 Q940.704 1447.39 943.918 1449.68 Q947.16 1451.98 947.16 1455.51 Q947.16 1458.98 944.864 1461.82 Q942.569 1464.66 938.925 1465.84 Q943.401 1466.73 946.07 1469.77 Q948.738 1472.78 948.738 1476.48 Q948.738 1481.07 945.123 1484.46 Q941.507 1487.82 936.228 1487.82 Q931.35 1487.82 927.85 1485.18 Q924.349 1482.54 924.349 1478.61 Z" fill="#000000" fill-rule="nonzero" fill-opacity="1" /><path clip-path="url(#clip920)" d="M1653.68 110.626 Q1653.68 114.356 1652.33 118.536 Q1651.02 122.676 1649.05 126.242 Q1647.12 129.809 1644.46 133.457 Q1641.8 137.105 1639.54 139.687 Q1637.29 142.269 1634.95 144.606 Q1633.68 145.876 1633.11 146.737 Q1632.94 146.983 1632.82 148.91 Q1632.7 150.795 1632.7 151.492 Q1632.7 162.436 1637.82 162.436 Q1642.08 162.436 1648.72 155.878 Q1649.58 155.099 1649.83 155.099 Q1650.32 155.099 1650.57 155.468 Q1650.81 155.837 1650.81 156.124 Q1650.81 156.656 1648.85 158.46 Q1646.92 160.264 1645.73 161.083 Q1641.3 164.28 1637.66 164.28 Q1629.87 164.28 1628.27 151.41 Q1626.55 153.131 1625.24 154.279 Q1623.47 156.042 1622.98 156.452 Q1622.49 156.861 1622.2 156.861 Q1621.83 156.861 1621.51 156.493 Q1621.22 156.124 1621.22 155.796 Q1621.22 155.55 1621.63 154.935 L1628.06 148.828 Q1628.06 134.973 1634.7 119.848 Q1635.15 118.782 1635.81 117.43 Q1636.47 116.036 1637.98 113.495 Q1639.5 110.953 1641.02 109.027 Q1642.57 107.059 1644.66 105.584 Q1646.75 104.067 1648.72 104.067 Q1653.68 104.067 1653.68 110.626 M1651.67 110.298 Q1651.67 105.912 1648.8 105.912 Q1646.96 105.912 1645.53 107.797 Q1644.13 109.683 1642.08 113.823 Q1639.95 118.209 1637.78 125.71 Q1635.65 133.17 1634.75 137.269 Q1633.88 141.367 1633.56 143.212 Q1651.67 124.357 1651.67 110.298 Z" fill="#000000" fill-rule="nonzero" fill-opacity="1" /><path clip-path="url(#clip920)" d="M1662.32 178.225 L1662.32 176.417 L1680.37 148.843 Q1680.83 148.126 1681.54 148.155 Q1682.2 148.155 1682.35 148.413 Q1682.49 148.671 1682.49 149.676 L1682.49 176.417 L1688.37 176.417 L1688.37 178.225 L1682.49 178.225 L1682.49 183.332 Q1682.49 185.025 1683.18 185.57 Q1683.9 186.115 1686.94 186.115 L1688.17 186.115 L1688.17 187.923 Q1685.76 187.75 1680.19 187.75 Q1674.66 187.75 1672.25 187.923 L1672.25 186.115 L1673.48 186.115 Q1676.52 186.115 1677.24 185.599 Q1677.96 185.053 1677.96 183.332 L1677.96 178.225 L1662.32 178.225 M1663.98 176.417 L1678.3 176.417 L1678.3 154.496 L1663.98 176.417 Z" fill="#000000" fill-rule="nonzero" fill-opacity="1" /></svg>
