<?xml version="1.0" encoding="utf-8"?>
<svg xmlns="http://www.w3.org/2000/svg" xmlns:xlink="http://www.w3.org/1999/xlink" width="600" height="400" viewBox="0 0 2400 1600">
<defs>
  <clipPath id="clip270">
    <rect x="0" y="0" width="2400" height="1600"/>
  </clipPath>
</defs>
<path clip-path="url(#clip270)" d="M0 1600 L2400 1600 L2400 0 L0 0  Z" fill="#ffffff" fill-rule="evenodd" fill-opacity="1"/>
<defs>
  <clipPath id="clip271">
    <rect x="480" y="0" width="1681" height="1600"/>
  </clipPath>
</defs>
<path clip-path="url(#clip270)" d="M219.38 1423.18 L2352.76 1423.18 L2352.76 47.2441 L219.38 47.2441  Z" fill="#ffffff" fill-rule="evenodd" fill-opacity="1"/>
<defs>
  <clipPath id="clip272">
    <rect x="219" y="47" width="2134" height="1377"/>
  </clipPath>
</defs>
<polyline clip-path="url(#clip272)" style="stroke:#000000; stroke-linecap:round; stroke-linejoin:round; stroke-width:4; stroke-opacity:1; fill:none" points="368.206,1384.24 374.325,1384.24 380.444,1384.24 386.563,1384.24 392.683,1384.24 398.802,1384.24 404.921,1384.24 411.04,1384.24 417.159,1384.24 423.278,1384.24 429.397,1384.24 435.516,1384.24 441.635,1384.24 447.754,1384.24 453.873,1384.24 459.992,1384.24 466.111,1384.24 472.231,1384.24 478.35,1384.24 484.469,1384.24 490.588,1384.24 496.707,1384.24 502.826,1384.24 508.945,1384.24 515.064,1384.24 521.183,1384.24 527.302,1384.24 533.421,1384.24 539.54,1384.24 545.66,1384.24 551.779,1384.24 557.898,1384.24 564.017,1384.24 570.136,1384.24 576.255,1384.24 582.374,1384.24 588.493,1384.24 594.612,1384.24 600.731,1384.24 606.85,1384.24 612.969,1384.24 619.088,1384.24 625.208,1384.24 631.327,1384.24 637.446,1384.24 643.565,1384.24 649.684,1384.24 655.803,1384.24 661.922,1384.24 668.041,1384.24 674.16,1384.24 680.279,1384.24 686.398,1384.24 692.517,1384.24 698.636,1384.24 704.756,1384.24 710.875,1384.24 716.994,1384.24 723.113,1384.24 729.232,1384.24 735.351,1384.24 741.47,1384.24 747.589,1384.24 753.708,1384.24 759.827,1384.24 765.946,1384.24 772.065,1384.24 778.185,1384.24 784.304,1384.24 790.423,1384.24 796.542,1384.24 802.661,1384.24 808.78,1384.24 814.899,1384.24 821.018,1384.24 827.137,1384.24 833.256,1384.24 839.375,1384.24 845.494,1384.24 851.613,1384.24 857.733,1384.24 863.852,1384.24 869.971,1384.24 876.09,1384.24 882.209,1384.24 888.328,1384.24 894.447,1384.24 900.566,1384.24 906.685,1384.24 912.804,1384.24 918.923,1384.24 925.042,1384.24 931.161,1384.24 937.281,1384.24 943.4,1384.24 949.519,1384.24 955.638,1384.24 961.757,1384.24 967.876,1384.24 973.995,1384.24 980.114,1384.24 986.233,1384.24 992.352,1384.24 998.471,1384.24 1004.59,1384.24 1010.71,1384.24 1016.83,1384.24 1022.95,1384.24 1029.07,1384.24 1035.19,1384.24 1041.3,1384.24 1047.42,1384.24 1053.54,1384.24 1059.66,1384.24 1065.78,1384.24 1071.9,1384.24 1078.02,1384.24 1084.14,1384.24 1090.26,1384.24 1096.38,1384.24 1102.5,1384.24 1108.61,1384.24 1114.73,1384.24 1120.85,1384.24 1126.97,1384.24 1133.09,1384.24 1139.21,1384.24 1145.33,1384.24 1151.45,1384.24 1157.57,1384.24 1163.69,1384.24 1169.81,1384.24 1175.92,1384.24 1182.04,1384.24 1188.16,1384.24 1194.28,1384.24 1200.4,1384.24 1206.52,1384.24 1212.64,1384.24 1218.76,1384.24 1224.88,1384.24 1231,1384.24 1237.12,1384.24 1243.23,1384.24 1249.35,1384.24 1255.47,1384.24 1261.59,1384.24 1267.71,1384.24 1273.83,1384.24 1279.95,1384.24 1286.07,1384.24 1292.19,1384.24 1298.31,1384.24 1304.43,1384.24 1310.54,1384.24 1316.66,1384.24 1322.78,1384.24 1328.9,1384.24 1335.02,1384.24 1341.14,1384.24 1347.26,1384.24 1353.38,1384.24 1359.5,1384.24 1365.62,1384.24 1371.74,1384.24 1377.85,1384.24 1383.97,1384.24 1390.09,1384.24 1396.21,1384.24 1402.33,1384.24 1408.45,1384.24 1414.57,1384.24 1420.69,1384.24 1426.81,1384.24 1432.93,1384.24 1439.04,1384.24 1445.16,1384.24 1451.28,1384.24 1457.4,1384.24 1463.52,1384.24 1469.64,1384.24 1475.76,1384.24 1481.88,1384.24 1488,1384.24 1494.12,1384.24 1500.24,1384.24 1506.35,1384.24 1512.47,1384.24 1518.59,1384.24 1524.71,1384.24 1530.83,1384.24 1536.95,1384.24 1543.07,1384.24 1549.19,1384.24 1555.31,1384.24 1561.43,1384.24 1567.55,1384.24 1573.66,1384.24 1579.78,1384.24 1585.9,1384.24 1592.02,1384.24 1598.14,1384.24 1604.26,1384.24 1610.38,1384.24 1616.5,1384.24 1622.62,1384.24 1628.74,1384.24 1634.86,1384.24 1640.97,1384.24 1647.09,1384.24 1653.21,1384.24 1659.33,1384.24 1665.45,1384.24 1671.57,1384.24 1677.69,1384.24 1683.81,1384.24 1689.93,1384.24 1696.05,1384.24 1702.17,1384.24 1708.28,1384.24 1714.4,1384.24 1720.52,1384.24 1726.64,1384.24 1732.76,1384.24 1738.88,1384.24 1745,1384.24 1751.12,1384.24 1757.24,1384.24 1763.36,1384.24 1769.48,1384.24 1775.59,1384.24 1781.71,1384.24 1787.83,1384.24 1793.95,1384.24 1800.07,1384.24 1806.19,1384.24 1812.31,1384.24 1818.43,1384.24 1824.55,1384.24 1830.67,1384.24 1836.79,1384.24 1842.9,1384.24 1849.02,1384.24 1855.14,1384.24 1861.26,1384.24 1867.38,1384.24 1873.5,1384.24 1879.62,1384.24 1885.74,1384.24 1891.86,1384.24 1897.98,1384.24 1904.09,1384.24 1910.21,1384.24 1916.33,1384.24 1922.45,1384.24 1928.57,1384.24 1934.69,1384.24 1940.81,1384.24 1946.93,1384.24 1953.05,1384.24 1959.17,1384.24 1965.29,1384.24 1971.4,1384.24 1977.52,1384.24 1983.64,1384.24 1989.76,1384.24 1995.88,1384.24 2002,1384.24 2008.12,1384.24 2014.24,1384.24 2020.36,1384.24 2026.48,1384.24 2032.6,1384.24 2038.71,1384.24 2044.83,1384.24 2050.95,1384.24 2057.07,1384.24 2063.19,1384.24 2069.31,1384.24 2075.43,1384.24 2081.55,1384.24 2087.67,1384.24 2093.79,1384.24 2099.91,1384.24 2106.02,1384.24 2112.14,1384.24 2118.26,1384.24 2124.38,1384.24 2130.5,1384.24 2136.62,1384.24 2142.74,1384.24 2148.86,1384.24 2154.98,1384.24 2161.1,1384.24 2167.22,1384.24 2173.33,1384.24 2179.45,1384.24 2185.57,1384.24 2191.69,1384.24 2197.81,1384.24 2203.93,1384.24 "/>
<polyline clip-path="url(#clip272)" style="stroke:#000000; stroke-linecap:round; stroke-linejoin:round; stroke-width:4; stroke-opacity:1; fill:none" points="1286.07,1384.24 1286.68,1384.24 "/>
<polyline clip-path="url(#clip272)" style="stroke:#000000; stroke-linecap:round; stroke-linejoin:round; stroke-width:4; stroke-opacity:1; fill:none" points="1250.68,1366.24 1286.68,1384.24 1250.68,1402.24 "/>
<polyline clip-path="url(#clip272)" style="stroke:#000000; stroke-linecap:round; stroke-linejoin:round; stroke-width:4; stroke-opacity:1; fill:none" points="1286.68,1384.24 1286.07,1384.24 "/>
<polyline clip-path="url(#clip272)" style="stroke:#000000; stroke-linecap:round; stroke-linejoin:round; stroke-width:4; stroke-opacity:1; fill:none" points="2203.93,1384.24 2203.84,1365.88 2203.56,1347.53 2203.1,1329.17 2202.46,1310.83 2201.64,1292.49 2200.63,1274.16 2199.43,1255.84 2198.06,1237.54 2196.5,1219.25 2194.76,1200.97 2192.83,1182.72 2190.73,1164.48 2188.44,1146.27 2185.97,1128.08 2183.32,1109.91 2180.48,1091.77 2177.47,1073.67 2174.27,1055.59 2170.89,1037.55 2167.34,1019.54 2163.6,1001.56 2159.68,983.629 2155.59,965.735 2151.31,947.882 2146.86,930.073 2142.23,912.309 2137.42,894.593 2132.44,876.926 2127.28,859.309 2121.94,841.745 2116.43,824.235 2110.74,806.781 2104.88,789.385 2098.84,772.048 2092.63,754.773 2086.25,737.56 2079.7,720.412 2072.98,703.331 2066.08,686.317 2059.02,669.374 2051.79,652.502 2044.39,635.703 2036.82,618.979 2029.08,602.331 2021.18,585.762 2013.11,569.272 2004.88,552.864 1996.48,536.539 1987.93,520.299 1979.21,504.145 1970.32,488.08 1961.28,472.104 1952.08,456.219 1942.72,440.427 1933.21,424.729 1923.53,409.127 1913.7,393.623 1903.72,378.218 1893.58,362.913 "/>
<polyline clip-path="url(#clip272)" style="stroke:#000000; stroke-linecap:round; stroke-linejoin:round; stroke-width:4; stroke-opacity:1; fill:none" points="2123.84,847.932 2123.3,846.176 "/>
<polyline clip-path="url(#clip272)" style="stroke:#000000; stroke-linecap:round; stroke-linejoin:round; stroke-width:4; stroke-opacity:1; fill:none" points="2116.63,885.868 2123.3,846.176 2151.05,875.333 "/>
<polyline clip-path="url(#clip272)" style="stroke:#000000; stroke-linecap:round; stroke-linejoin:round; stroke-width:4; stroke-opacity:1; fill:none" points="2123.3,846.176 2123.84,847.932 "/>
<polyline clip-path="url(#clip272)" style="stroke:#0000ff; stroke-linecap:round; stroke-linejoin:round; stroke-width:4; stroke-opacity:1; fill:none" points="1890.57,358.421 1880.23,343.249 1869.75,328.181 1859.11,313.218 1848.33,298.363 1837.39,283.616 1826.31,268.98 1815.09,254.455 1803.72,240.043 1792.21,225.745 1780.55,211.563 1768.75,197.499 1756.82,183.553 1744.74,169.727 1732.53,156.023 1720.18,142.441 1707.69,128.984 1695.07,115.652 1682.32,102.447 1669.44,89.3699 "/>
<polyline clip-path="url(#clip272)" style="stroke:#0000ff; stroke-linecap:round; stroke-linejoin:round; stroke-width:4; stroke-opacity:1; fill:none" points="1784.97,216.903 1783.8,215.487 "/>
<polyline clip-path="url(#clip272)" style="stroke:#0000ff; stroke-linecap:round; stroke-linejoin:round; stroke-width:4; stroke-opacity:1; fill:none" points="1792.82,254.712 1783.8,215.487 1820.59,231.806 "/>
<polyline clip-path="url(#clip272)" style="stroke:#0000ff; stroke-linecap:round; stroke-linejoin:round; stroke-width:4; stroke-opacity:1; fill:none" points="1783.8,215.487 1784.97,216.903 "/>
<polyline clip-path="url(#clip272)" style="stroke:#0000ff; stroke-linecap:round; stroke-linejoin:round; stroke-width:4; stroke-opacity:1; fill:none" stroke-dasharray="16, 10" points="368.206,1384.24 383.43,1373.98 398.653,1363.72 413.877,1353.46 429.101,1343.21 444.324,1332.95 459.548,1322.69 474.771,1312.43 489.995,1302.17 505.219,1291.91 520.442,1281.66 535.666,1271.4 550.889,1261.14 566.113,1250.88 581.337,1240.62 596.56,1230.37 611.784,1220.11 627.007,1209.85 642.231,1199.59 657.455,1189.33 672.678,1179.07 687.902,1168.82 703.125,1158.56 718.349,1148.3 733.573,1138.04 748.796,1127.78 764.02,1117.53 779.243,1107.27 794.467,1097.01 809.691,1086.75 824.914,1076.49 840.138,1066.23 855.361,1055.98 870.585,1045.72 885.809,1035.46 901.032,1025.2 916.256,1014.94 931.479,1004.69 946.703,994.428 961.927,984.169 977.15,973.911 992.374,963.653 1007.6,953.395 1022.82,943.137 1038.04,932.879 1053.27,922.62 1068.49,912.362 1083.72,902.104 1098.94,891.846 1114.16,881.588 1129.39,871.33 1144.61,861.071 1159.83,850.813 1175.06,840.555 1190.28,830.297 1205.5,820.039 1220.73,809.78 1235.95,799.522 1251.17,789.264 1266.4,779.006 1281.62,768.748 1296.85,758.49 1312.07,748.231 1327.29,737.973 1342.52,727.715 1357.74,717.457 1372.96,707.199 1388.19,696.941 1403.41,686.682 1418.63,676.424 1433.86,666.166 1449.08,655.908 1464.31,645.65 1479.53,635.391 1494.75,625.133 1509.98,614.875 1525.2,604.617 1540.42,594.359 1555.65,584.101 1570.87,573.842 1586.09,563.584 1601.32,553.326 1616.54,543.068 1631.76,532.81 1646.99,522.552 1662.21,512.293 1677.44,502.035 1692.66,491.777 1707.88,481.519 1723.11,471.261 1738.33,461.002 1753.55,450.744 1768.78,440.486 1784,430.228 1799.22,419.97 1814.45,409.712 1829.67,399.453 1844.9,389.195 1860.12,378.937 1875.34,368.679 1890.57,358.421 "/>
<polyline clip-path="url(#clip272)" style="stroke:#000000; stroke-linecap:round; stroke-linejoin:round; stroke-width:4; stroke-opacity:1; fill:none" points="368.206,1384.24 381.187,1371.26 394.167,1358.28 407.148,1345.3 420.128,1332.32 433.109,1319.34 446.089,1306.36 459.07,1293.37 472.05,1280.39 485.031,1267.41 498.012,1254.43 510.992,1241.45 523.973,1228.47 536.953,1215.49 549.934,1202.51 562.914,1189.53 575.895,1176.55 588.875,1163.57 601.856,1150.59 614.836,1137.61 627.817,1124.63 640.797,1111.65 653.778,1098.67 666.758,1085.69 679.739,1072.71 692.719,1059.73 705.7,1046.74 718.68,1033.76 731.661,1020.78 744.641,1007.8 757.622,994.822 770.603,981.842 783.583,968.861 796.564,955.881 809.544,942.9 822.525,929.92 835.505,916.939 848.486,903.959 861.466,890.978 874.447,877.998 887.427,865.017 900.408,852.037 913.388,839.056 926.369,826.076 939.349,813.095 952.33,800.115 965.31,787.134 978.291,774.154 991.271,761.173 1004.25,748.192 1017.23,735.212 1030.21,722.231 1043.19,709.251 1056.17,696.27 1069.15,683.29 1082.14,670.309 1095.12,657.329 1108.1,644.348 1121.08,631.368 1134.06,618.387 1147.04,605.407 1160.02,592.426 1173,579.446 1185.98,566.465 1198.96,553.485 1211.94,540.504 1224.92,527.524 1237.9,514.543 1250.88,501.563 1263.86,488.582 1276.84,475.601 1289.82,462.621 1302.8,449.64 1315.78,436.66 1328.77,423.679 1341.75,410.699 1354.73,397.718 1367.71,384.738 1380.69,371.757 1393.67,358.777 1406.65,345.796 1419.63,332.816 1432.61,319.835 1445.59,306.855 1458.57,293.874 1471.55,280.894 1484.53,267.913 1497.51,254.933 1510.49,241.952 1523.47,228.971 1536.45,215.991 1549.43,203.01 1562.41,190.03 1575.4,177.049 1588.38,164.069 1601.36,151.088 1614.34,138.108 1627.32,125.127 1640.3,112.147 1653.28,99.1662 1666.26,86.1857 "/>
<polyline clip-path="url(#clip272)" style="stroke:#000000; stroke-linecap:round; stroke-linejoin:round; stroke-width:4; stroke-opacity:1; fill:none" points="1017.23,735.212 1018.53,733.914 "/>
<polyline clip-path="url(#clip272)" style="stroke:#000000; stroke-linecap:round; stroke-linejoin:round; stroke-width:4; stroke-opacity:1; fill:none" points="980.347,746.642 1018.53,733.914 1005.8,772.098 "/>
<polyline clip-path="url(#clip272)" style="stroke:#000000; stroke-linecap:round; stroke-linejoin:round; stroke-width:4; stroke-opacity:1; fill:none" points="1018.53,733.914 1017.23,735.212 "/>
<path clip-path="url(#clip270)" d="M1283.9 1471.17 Q1283.9 1474.9 1282.55 1479.08 Q1281.23 1483.22 1279.27 1486.78 Q1277.34 1490.35 1274.68 1494 Q1272.01 1497.64 1269.76 1500.23 Q1267.5 1502.81 1265.17 1505.15 Q1263.9 1506.42 1263.32 1507.28 Q1263.16 1507.52 1263.03 1509.45 Q1262.91 1511.34 1262.91 1512.03 Q1262.91 1522.98 1268.04 1522.98 Q1272.3 1522.98 1278.94 1516.42 Q1279.8 1515.64 1280.05 1515.64 Q1280.54 1515.64 1280.78 1516.01 Q1281.03 1516.38 1281.03 1516.66 Q1281.03 1517.2 1279.06 1519 Q1277.13 1520.8 1275.95 1521.62 Q1271.52 1524.82 1267.87 1524.82 Q1260.08 1524.82 1258.48 1511.95 Q1256.76 1513.67 1255.45 1514.82 Q1253.69 1516.58 1253.2 1516.99 Q1252.71 1517.4 1252.42 1517.4 Q1252.05 1517.4 1251.72 1517.03 Q1251.43 1516.66 1251.43 1516.34 Q1251.43 1516.09 1251.84 1515.47 L1258.28 1509.37 Q1258.28 1495.51 1264.92 1480.39 Q1265.37 1479.32 1266.03 1477.97 Q1266.68 1476.58 1268.2 1474.03 Q1269.72 1471.49 1271.23 1469.57 Q1272.79 1467.6 1274.88 1466.12 Q1276.97 1464.61 1278.94 1464.61 Q1283.9 1464.61 1283.9 1471.17 M1281.89 1470.84 Q1281.89 1466.45 1279.02 1466.45 Q1277.18 1466.45 1275.74 1468.34 Q1274.35 1470.22 1272.3 1474.36 Q1270.17 1478.75 1267.99 1486.25 Q1265.86 1493.71 1264.96 1497.81 Q1264.1 1501.91 1263.77 1503.75 Q1281.89 1484.9 1281.89 1470.84 Z" fill="#000000" fill-rule="nonzero" fill-opacity="1" /><path clip-path="url(#clip270)" d="M1292.54 1514.53 L1292.54 1512.69 Q1299.59 1512.69 1303.24 1508.93 Q1304.24 1508.93 1304.41 1509.16 Q1304.59 1509.39 1304.59 1510.45 L1304.59 1543.42 Q1304.59 1545.17 1305.45 1545.72 Q1306.31 1546.26 1310.07 1546.26 L1311.93 1546.26 L1311.93 1548.07 Q1309.87 1547.9 1302.41 1547.9 Q1294.95 1547.9 1292.91 1548.07 L1292.91 1546.26 L1294.77 1546.26 Q1298.47 1546.26 1299.36 1545.74 Q1300.25 1545.2 1300.25 1543.42 L1300.25 1512.98 Q1297.18 1514.53 1292.54 1514.53 Z" fill="#000000" fill-rule="nonzero" fill-opacity="1" /><path clip-path="url(#clip270)" d="M890.663 577.376 Q890.663 581.106 889.31 585.287 Q887.999 589.427 886.031 592.993 Q884.105 596.559 881.44 600.207 Q878.776 603.855 876.522 606.437 Q874.267 609.02 871.931 611.356 Q870.66 612.627 870.086 613.488 Q869.922 613.734 869.8 615.66 Q869.677 617.546 869.677 618.242 Q869.677 629.187 874.8 629.187 Q879.063 629.187 885.703 622.628 Q886.564 621.849 886.81 621.849 Q887.302 621.849 887.548 622.218 Q887.794 622.587 887.794 622.874 Q887.794 623.407 885.826 625.211 Q883.9 627.014 882.711 627.834 Q878.284 631.031 874.636 631.031 Q866.848 631.031 865.25 618.16 Q863.528 619.882 862.217 621.03 Q860.454 622.792 859.962 623.202 Q859.47 623.612 859.183 623.612 Q858.814 623.612 858.486 623.243 Q858.2 622.874 858.2 622.546 Q858.2 622.3 858.609 621.686 L865.045 615.578 Q865.045 601.724 871.685 586.599 Q872.136 585.533 872.792 584.18 Q873.448 582.787 874.964 580.245 Q876.481 577.704 877.997 575.778 Q879.555 573.81 881.645 572.334 Q883.736 570.818 885.703 570.818 Q890.663 570.818 890.663 577.376 M888.655 577.048 Q888.655 572.662 885.785 572.662 Q883.941 572.662 882.506 574.548 Q881.113 576.433 879.063 580.573 Q876.932 584.959 874.759 592.46 Q872.628 599.92 871.726 604.019 Q870.865 608.118 870.537 609.963 Q888.655 591.108 888.655 577.048 Z" fill="#000000" fill-rule="nonzero" fill-opacity="1" /><path clip-path="url(#clip270)" d="M899.3 654.279 Q899.3 653.218 899.386 652.902 Q899.501 652.587 899.96 652.099 L911.236 639.532 Q917.405 632.588 917.405 626.534 Q917.405 622.603 915.339 619.791 Q913.302 616.979 909.543 616.979 Q906.961 616.979 904.78 618.557 Q902.6 620.135 901.596 622.947 Q901.768 622.89 902.37 622.89 Q903.834 622.89 904.637 623.808 Q905.469 624.726 905.469 625.96 Q905.469 627.538 904.436 628.313 Q903.432 629.059 902.428 629.059 Q902.026 629.059 901.481 628.973 Q900.964 628.887 900.132 628.083 Q899.3 627.251 899.3 625.788 Q899.3 621.685 902.399 618.414 Q905.526 615.143 910.289 615.143 Q915.684 615.143 919.213 618.356 Q922.771 621.541 922.771 626.534 Q922.771 628.284 922.225 629.891 Q921.709 631.469 920.992 632.703 Q920.303 633.936 918.409 635.916 Q916.516 637.896 914.995 639.302 Q913.474 640.708 910.06 643.692 L903.834 649.746 L914.421 649.746 Q919.586 649.746 919.987 649.287 Q920.561 648.455 921.279 644.065 L922.771 644.065 L921.106 654.279 L899.3 654.279 Z" fill="#000000" fill-rule="nonzero" fill-opacity="1" /><path clip-path="url(#clip270)" d="M2201.9 749.678 Q2201.9 749.735 2201.84 749.792 Q2201.47 752.834 2200.75 754.527 Q2200.04 756.191 2198.43 756.966 Q2197.25 757.539 2195.79 757.539 Q2193.58 757.539 2190.4 756.076 Q2190.28 756.019 2189.65 755.732 Q2189.02 755.445 2188.79 755.359 Q2188.56 755.273 2188.07 755.1 Q2187.58 754.9 2187.21 754.842 Q2186.84 754.785 2186.46 754.785 Q2185.66 754.785 2184.97 755.129 Q2183.57 755.818 2182.71 756.851 Q2181.82 757.855 2181.59 759.663 Q2181.53 759.892 2181.33 760.064 Q2181.13 760.236 2180.87 760.236 Q2180.61 760.236 2180.38 760.036 Q2180.15 759.835 2180.15 759.548 Q2180.15 759.49 2180.21 759.433 Q2180.58 756.392 2181.3 754.727 Q2182.02 753.035 2183.62 752.26 Q2184.89 751.657 2186.26 751.657 Q2188.42 751.657 2191.69 753.149 Q2191.8 753.207 2192.43 753.494 Q2193.06 753.781 2193.29 753.867 Q2193.52 753.953 2194.01 754.154 Q2194.5 754.326 2194.87 754.383 Q2195.24 754.441 2195.62 754.441 Q2196.33 754.441 2197.08 754.068 Q2198.49 753.379 2199.38 752.375 Q2200.27 751.37 2200.49 749.563 Q2200.55 749.333 2200.75 749.161 Q2200.95 748.96 2201.21 748.96 Q2201.47 748.96 2201.7 749.19 Q2201.9 749.391 2201.9 749.678 Z" fill="#000000" fill-rule="nonzero" fill-opacity="1" /><path clip-path="url(#clip270)" d="M2207.28 770.909 Q2207.28 771.237 2205.68 774.107 Q2203.01 779.394 2199.61 787.469 Q2196.21 795.544 2194.28 801.528 Q2193.87 802.963 2193.59 804.807 Q2192.85 810.464 2190.47 819.236 Q2189.65 821.982 2189.12 823.13 Q2188.58 824.277 2187.81 824.277 Q2186.7 824.277 2186.7 822.761 Q2186.7 821.244 2188.09 815.588 Q2189.53 809.931 2191.09 804.726 Q2192.07 801.856 2192.07 796.487 Q2192.07 794.765 2191.99 793.208 Q2191.9 791.65 2191.58 789.396 Q2191.25 787.141 2190.72 785.297 Q2190.18 783.452 2189.16 781.526 Q2188.13 779.558 2186.74 778.246 Q2185.35 776.894 2183.22 776.033 Q2181.12 775.172 2178.5 775.172 Q2177.85 775.172 2177.03 775.254 Q2176.25 775.295 2174.36 775.828 Q2172.52 776.361 2170.96 777.304 Q2169.4 778.205 2167.72 780.214 Q2166.04 782.222 2165.14 784.928 L2164.81 785.338 Q2164.28 785.338 2163.99 785.338 Q2163.75 785.297 2163.46 785.092 Q2163.21 784.887 2163.21 784.518 Q2163.21 783.657 2163.87 781.935 Q2164.56 780.214 2165.96 778.001 Q2167.39 775.787 2169.24 773.82 Q2171.12 771.852 2173.87 770.499 Q2176.62 769.147 2179.57 769.147 Q2187.15 769.147 2190.76 778.369 Q2193.91 786.198 2194.2 795.503 Q2200.76 778.984 2205.27 770.663 Q2205.51 770.049 2206.25 770.049 Q2207.28 770.09 2207.28 770.909 Z" fill="#000000" fill-rule="nonzero" fill-opacity="1" /><path clip-path="url(#clip270)" d="M1847.7 121.266 Q1847.7 121.594 1846.11 124.463 Q1843.44 129.751 1840.04 137.826 Q1836.64 145.901 1834.71 151.885 Q1834.3 153.32 1834.01 155.164 Q1833.28 160.821 1830.9 169.592 Q1830.08 172.339 1829.55 173.486 Q1829.01 174.634 1828.23 174.634 Q1827.13 174.634 1827.13 173.117 Q1827.13 171.601 1828.52 165.944 Q1829.96 160.288 1831.51 155.082 Q1832.5 152.213 1832.5 146.843 Q1832.5 145.122 1832.42 143.564 Q1832.33 142.007 1832.01 139.752 Q1831.68 137.498 1831.14 135.653 Q1830.61 133.809 1829.59 131.882 Q1828.56 129.915 1827.17 128.603 Q1825.78 127.25 1823.64 126.39 Q1821.55 125.529 1818.93 125.529 Q1818.27 125.529 1817.45 125.611 Q1816.68 125.652 1814.79 126.185 Q1812.95 126.718 1811.39 127.66 Q1809.83 128.562 1808.15 130.571 Q1806.47 132.579 1805.57 135.284 L1805.24 135.694 Q1804.71 135.694 1804.42 135.694 Q1804.17 135.653 1803.89 135.448 Q1803.64 135.243 1803.64 134.875 Q1803.64 134.014 1804.3 132.292 Q1804.99 130.571 1806.39 128.357 Q1807.82 126.144 1809.67 124.176 Q1811.55 122.209 1814.3 120.856 Q1817.04 119.504 1820 119.504 Q1827.58 119.504 1831.19 128.726 Q1834.34 136.555 1834.63 145.86 Q1841.19 129.341 1845.7 121.02 Q1845.94 120.405 1846.68 120.405 Q1847.7 120.446 1847.7 121.266 Z" fill="#000000" fill-rule="nonzero" fill-opacity="1" /><path clip-path="url(#clip270)" d="M1879.94 167.011 Q1879.94 167.613 1879.43 168.101 Q1878.94 168.589 1878.33 168.589 Q1877.99 168.589 1877.16 168.015 Q1874.78 166.351 1871.76 166.351 Q1869.07 166.351 1866.57 167.011 Q1864.07 167.671 1862.38 169.019 Q1860.72 170.339 1860.72 172.061 Q1860.72 174.213 1863.07 175.475 Q1865.51 174.356 1868.52 174.356 Q1869.5 174.356 1870.16 174.413 Q1870.85 174.471 1871.51 174.614 Q1872.17 174.758 1872.48 175.102 Q1872.83 175.418 1872.83 175.934 Q1872.83 177.77 1868.06 177.77 Q1864.96 177.77 1863.01 176.938 Q1860.52 178.172 1859.14 180.152 Q1857.76 182.132 1857.76 183.825 Q1857.76 185.288 1858.57 186.35 Q1859.4 187.411 1860.75 187.928 Q1862.12 188.444 1863.47 188.674 Q1864.85 188.874 1866.37 188.874 Q1868.87 188.874 1870.62 188.559 Q1872.4 188.215 1873.37 187.583 Q1874.38 186.952 1874.78 186.522 Q1875.21 186.063 1875.64 185.345 Q1875.9 184.944 1876.24 184.944 Q1876.5 184.944 1876.67 185.116 Q1876.87 185.259 1876.87 185.517 Q1876.87 185.833 1876.47 186.493 Q1876.1 187.153 1875.18 188.042 Q1874.29 188.903 1873.06 189.707 Q1871.85 190.481 1869.93 191.026 Q1868.01 191.572 1865.82 191.572 Q1861.38 191.572 1858.8 189.391 Q1856.24 187.21 1856.24 184.169 Q1856.24 182.046 1857.65 179.865 Q1859.08 177.656 1861.61 176.25 Q1859.25 174.5 1859.25 172.061 Q1859.25 169.88 1861.09 167.929 Q1862.96 165.978 1865.97 164.83 Q1869.01 163.654 1872.34 163.654 Q1874.2 163.654 1876.04 164.285 Q1877.88 164.888 1878.91 165.662 Q1879.94 166.437 1879.94 167.011 M1871.31 175.992 Q1870.04 175.647 1868.52 175.647 Q1866.46 175.647 1864.94 176.164 Q1866.17 176.479 1868.06 176.479 Q1869.64 176.479 1870.1 176.393 Q1870.59 176.307 1871.31 175.992 Z" fill="#000000" fill-rule="nonzero" fill-opacity="1" /><path clip-path="url(#clip270)" d="M2270.31 472.27 Q2270.31 472.598 2268.72 475.467 Q2266.05 480.754 2262.65 488.829 Q2259.25 496.904 2257.32 502.889 Q2256.91 504.323 2256.62 506.168 Q2255.89 511.824 2253.51 520.596 Q2252.69 523.342 2252.16 524.49 Q2251.62 525.638 2250.84 525.638 Q2249.74 525.638 2249.74 524.121 Q2249.74 522.604 2251.13 516.948 Q2252.57 511.291 2254.12 506.086 Q2255.11 503.217 2255.11 497.847 Q2255.11 496.125 2255.02 494.568 Q2254.94 493.01 2254.61 490.756 Q2254.29 488.501 2253.75 486.657 Q2253.22 484.812 2252.2 482.886 Q2251.17 480.918 2249.78 479.607 Q2248.38 478.254 2246.25 477.393 Q2244.16 476.533 2241.54 476.533 Q2240.88 476.533 2240.06 476.615 Q2239.28 476.656 2237.4 477.188 Q2235.55 477.721 2234 478.664 Q2232.44 479.566 2230.76 481.574 Q2229.08 483.583 2228.18 486.288 L2227.85 486.698 Q2227.32 486.698 2227.03 486.698 Q2226.78 486.657 2226.5 486.452 Q2226.25 486.247 2226.25 485.878 Q2226.25 485.017 2226.91 483.296 Q2227.6 481.574 2229 479.361 Q2230.43 477.147 2232.28 475.18 Q2234.16 473.212 2236.91 471.86 Q2239.65 470.507 2242.6 470.507 Q2250.19 470.507 2253.79 479.73 Q2256.95 487.559 2257.24 496.863 Q2263.8 480.345 2268.31 472.024 Q2268.55 471.409 2269.29 471.409 Q2270.31 471.45 2270.31 472.27 Z" fill="#000000" fill-rule="nonzero" fill-opacity="1" /></svg>
