<?xml version="1.0" encoding="utf-8"?>
<svg xmlns="http://www.w3.org/2000/svg" xmlns:xlink="http://www.w3.org/1999/xlink" width="600" height="400" viewBox="0 0 2400 1600">
<defs>
  <clipPath id="clip260">
    <rect x="0" y="0" width="2400" height="1600"/>
  </clipPath>
</defs>
<path clip-path="url(#clip260)" d="M0 1600 L2400 1600 L2400 0 L0 0  Z" fill="#ffffff" fill-rule="evenodd" fill-opacity="1"/>
<defs>
  <clipPath id="clip261">
    <rect x="480" y="0" width="1681" height="1600"/>
  </clipPath>
</defs>
<path clip-path="url(#clip260)" d="M219.38 1423.18 L2352.76 1423.18 L2352.76 47.2441 L219.38 47.2441  Z" fill="#ffffff" fill-rule="evenodd" fill-opacity="1"/>
<defs>
  <clipPath id="clip262">
    <rect x="219" y="47" width="2134" height="1377"/>
  </clipPath>
</defs>
<polyline clip-path="url(#clip262)" style="stroke:#000000; stroke-linecap:round; stroke-linejoin:round; stroke-width:4; stroke-opacity:1; fill:none" points="368.206,1384.24 374.325,1384.24 380.444,1384.24 386.563,1384.24 392.683,1384.24 398.802,1384.24 404.921,1384.24 411.04,1384.24 417.159,1384.24 423.278,1384.24 429.397,1384.24 435.516,1384.24 441.635,1384.24 447.754,1384.24 453.873,1384.24 459.992,1384.24 466.111,1384.24 472.231,1384.24 478.35,1384.24 484.469,1384.24 490.588,1384.24 496.707,1384.24 502.826,1384.24 508.945,1384.24 515.064,1384.24 521.183,1384.24 527.302,1384.24 533.421,1384.24 539.54,1384.24 545.66,1384.24 551.779,1384.24 557.898,1384.24 564.017,1384.24 570.136,1384.24 576.255,1384.24 582.374,1384.24 588.493,1384.24 594.612,1384.24 600.731,1384.24 606.85,1384.24 612.969,1384.24 619.088,1384.24 625.208,1384.24 631.327,1384.24 637.446,1384.24 643.565,1384.24 649.684,1384.24 655.803,1384.24 661.922,1384.24 668.041,1384.24 674.16,1384.24 680.279,1384.24 686.398,1384.24 692.517,1384.24 698.636,1384.24 704.756,1384.24 710.875,1384.24 716.994,1384.24 723.113,1384.24 729.232,1384.24 735.351,1384.24 741.47,1384.24 747.589,1384.24 753.708,1384.24 759.827,1384.24 765.946,1384.24 772.065,1384.24 778.185,1384.24 784.304,1384.24 790.423,1384.24 796.542,1384.24 802.661,1384.24 808.78,1384.24 814.899,1384.24 821.018,1384.24 827.137,1384.24 833.256,1384.24 839.375,1384.24 845.494,1384.24 851.613,1384.24 857.733,1384.24 863.852,1384.24 869.971,1384.24 876.09,1384.24 882.209,1384.24 888.328,1384.24 894.447,1384.24 900.566,1384.24 906.685,1384.24 912.804,1384.24 918.923,1384.24 925.042,1384.24 931.161,1384.24 937.281,1384.24 943.4,1384.24 949.519,1384.24 955.638,1384.24 961.757,1384.24 967.876,1384.24 973.995,1384.24 980.114,1384.24 986.233,1384.24 992.352,1384.24 998.471,1384.24 1004.59,1384.24 1010.71,1384.24 1016.83,1384.24 1022.95,1384.24 1029.07,1384.24 1035.19,1384.24 1041.3,1384.24 1047.42,1384.24 1053.54,1384.24 1059.66,1384.24 1065.78,1384.24 1071.9,1384.24 1078.02,1384.24 1084.14,1384.24 1090.26,1384.24 1096.38,1384.24 1102.5,1384.24 1108.61,1384.24 1114.73,1384.24 1120.85,1384.24 1126.97,1384.24 1133.09,1384.24 1139.21,1384.24 1145.33,1384.24 1151.45,1384.24 1157.57,1384.24 1163.69,1384.24 1169.81,1384.24 1175.92,1384.24 1182.04,1384.24 1188.16,1384.24 1194.28,1384.24 1200.4,1384.24 1206.52,1384.24 1212.64,1384.24 1218.76,1384.24 1224.88,1384.24 1231,1384.24 1237.12,1384.24 1243.23,1384.24 1249.35,1384.24 1255.47,1384.24 1261.59,1384.24 1267.71,1384.24 1273.83,1384.24 1279.95,1384.24 1286.07,1384.24 1292.19,1384.24 1298.31,1384.24 1304.43,1384.24 1310.54,1384.24 1316.66,1384.24 1322.78,1384.24 1328.9,1384.24 1335.02,1384.24 1341.14,1384.24 1347.26,1384.24 1353.38,1384.24 1359.5,1384.24 1365.62,1384.24 1371.74,1384.24 1377.85,1384.24 1383.97,1384.24 1390.09,1384.24 1396.21,1384.24 1402.33,1384.24 1408.45,1384.24 1414.57,1384.24 1420.69,1384.24 1426.81,1384.24 1432.93,1384.24 1439.04,1384.24 1445.16,1384.24 1451.28,1384.24 1457.4,1384.24 1463.52,1384.24 1469.64,1384.24 1475.76,1384.24 1481.88,1384.24 1488,1384.24 1494.12,1384.24 1500.24,1384.24 1506.35,1384.24 1512.47,1384.24 1518.59,1384.24 1524.71,1384.24 1530.83,1384.24 1536.95,1384.24 1543.07,1384.24 1549.19,1384.24 1555.31,1384.24 1561.43,1384.24 1567.55,1384.24 1573.66,1384.24 1579.78,1384.24 1585.9,1384.24 1592.02,1384.24 1598.14,1384.24 1604.26,1384.24 1610.38,1384.24 1616.5,1384.24 1622.62,1384.24 1628.74,1384.24 1634.86,1384.24 1640.97,1384.24 1647.09,1384.24 1653.21,1384.24 1659.33,1384.24 1665.45,1384.24 1671.57,1384.24 1677.69,1384.24 1683.81,1384.24 1689.93,1384.24 1696.05,1384.24 1702.17,1384.24 1708.28,1384.24 1714.4,1384.24 1720.52,1384.24 1726.64,1384.24 1732.76,1384.24 1738.88,1384.24 1745,1384.24 1751.12,1384.24 1757.24,1384.24 1763.36,1384.24 1769.48,1384.24 1775.59,1384.24 1781.71,1384.24 1787.83,1384.24 1793.95,1384.24 1800.07,1384.24 1806.19,1384.24 1812.31,1384.24 1818.43,1384.24 1824.55,1384.24 1830.67,1384.24 1836.79,1384.24 1842.9,1384.24 1849.02,1384.24 1855.14,1384.24 1861.26,1384.24 1867.38,1384.24 1873.5,1384.24 1879.62,1384.24 1885.74,1384.24 1891.86,1384.24 1897.98,1384.24 1904.09,1384.24 1910.21,1384.24 1916.33,1384.24 1922.45,1384.24 1928.57,1384.24 1934.69,1384.24 1940.81,1384.24 1946.93,1384.24 1953.05,1384.24 1959.17,1384.24 1965.29,1384.24 1971.4,1384.24 1977.52,1384.24 1983.64,1384.24 1989.76,1384.24 1995.88,1384.24 2002,1384.24 2008.12,1384.24 2014.24,1384.24 2020.36,1384.24 2026.48,1384.24 2032.6,1384.24 2038.71,1384.24 2044.83,1384.24 2050.95,1384.24 2057.07,1384.24 2063.19,1384.24 2069.31,1384.24 2075.43,1384.24 2081.55,1384.24 2087.67,1384.24 2093.79,1384.24 2099.91,1384.24 2106.02,1384.24 2112.14,1384.24 2118.26,1384.24 2124.38,1384.24 2130.5,1384.24 2136.62,1384.24 2142.74,1384.24 2148.86,1384.24 2154.98,1384.24 2161.1,1384.24 2167.22,1384.24 2173.33,1384.24 2179.45,1384.24 2185.57,1384.24 2191.69,1384.24 2197.81,1384.24 2203.93,1384.24 "/>
<polyline clip-path="url(#clip262)" style="stroke:#000000; stroke-linecap:round; stroke-linejoin:round; stroke-width:4; stroke-opacity:1; fill:none" points="1286.07,1384.24 1286.68,1384.24 "/>
<polyline clip-path="url(#clip262)" style="stroke:#000000; stroke-linecap:round; stroke-linejoin:round; stroke-width:4; stroke-opacity:1; fill:none" points="1250.68,1366.24 1286.68,1384.24 1250.68,1402.24 "/>
<polyline clip-path="url(#clip262)" style="stroke:#000000; stroke-linecap:round; stroke-linejoin:round; stroke-width:4; stroke-opacity:1; fill:none" points="1286.68,1384.24 1286.07,1384.24 "/>
<polyline clip-path="url(#clip262)" style="stroke:#000000; stroke-linecap:round; stroke-linejoin:round; stroke-width:4; stroke-opacity:1; fill:none" points="2203.93,1384.24 2203.84,1365.88 2203.56,1347.53 2203.1,1329.17 2202.46,1310.83 2201.64,1292.49 2200.63,1274.16 2199.43,1255.84 2198.06,1237.54 2196.5,1219.25 2194.76,1200.97 2192.83,1182.72 2190.73,1164.48 2188.44,1146.27 2185.97,1128.08 2183.32,1109.91 2180.48,1091.77 2177.47,1073.67 2174.27,1055.59 2170.89,1037.55 2167.34,1019.54 2163.6,1001.56 2159.68,983.629 2155.59,965.735 2151.31,947.882 2146.86,930.073 2142.23,912.309 2137.42,894.593 2132.44,876.926 2127.28,859.309 2121.94,841.745 2116.43,824.235 2110.74,806.781 2104.88,789.385 2098.84,772.048 2092.63,754.773 2086.25,737.56 2079.7,720.412 2072.98,703.331 2066.08,686.317 2059.02,669.374 2051.79,652.502 2044.39,635.703 2036.82,618.979 2029.08,602.331 2021.18,585.762 2013.11,569.272 2004.88,552.864 1996.48,536.539 1987.93,520.299 1979.21,504.145 1970.32,488.08 1961.28,472.104 1952.08,456.219 1942.72,440.427 1933.21,424.729 1923.53,409.127 1913.7,393.623 1903.72,378.218 1893.58,362.913 "/>
<polyline clip-path="url(#clip262)" style="stroke:#000000; stroke-linecap:round; stroke-linejoin:round; stroke-width:4; stroke-opacity:1; fill:none" points="2123.84,847.932 2123.3,846.176 "/>
<polyline clip-path="url(#clip262)" style="stroke:#000000; stroke-linecap:round; stroke-linejoin:round; stroke-width:4; stroke-opacity:1; fill:none" points="2116.63,885.868 2123.3,846.176 2151.05,875.333 "/>
<polyline clip-path="url(#clip262)" style="stroke:#000000; stroke-linecap:round; stroke-linejoin:round; stroke-width:4; stroke-opacity:1; fill:none" points="2123.3,846.176 2123.84,847.932 "/>
<polyline clip-path="url(#clip262)" style="stroke:#0000ff; stroke-linecap:round; stroke-linejoin:round; stroke-width:4; stroke-opacity:1; fill:none" points="1890.57,358.421 1880.23,343.249 1869.75,328.181 1859.11,313.218 1848.33,298.363 1837.39,283.616 1826.31,268.98 1815.09,254.455 1803.72,240.043 1792.21,225.745 1780.55,211.563 1768.75,197.499 1756.82,183.553 1744.74,169.727 1732.53,156.023 1720.18,142.441 1707.69,128.984 1695.07,115.652 1682.32,102.447 1669.44,89.3699 "/>
<polyline clip-path="url(#clip262)" style="stroke:#0000ff; stroke-linecap:round; stroke-linejoin:round; stroke-width:4; stroke-opacity:1; fill:none" points="1784.97,216.903 1783.8,215.487 "/>
<polyline clip-path="url(#clip262)" style="stroke:#0000ff; stroke-linecap:round; stroke-linejoin:round; stroke-width:4; stroke-opacity:1; fill:none" points="1792.82,254.712 1783.8,215.487 1820.59,231.806 "/>
<polyline clip-path="url(#clip262)" style="stroke:#0000ff; stroke-linecap:round; stroke-linejoin:round; stroke-width:4; stroke-opacity:1; fill:none" points="1783.8,215.487 1784.97,216.903 "/>
<polyline clip-path="url(#clip262)" style="stroke:#0000ff; stroke-linecap:round; stroke-linejoin:round; stroke-width:4; stroke-opacity:1; fill:none" stroke-dasharray="16, 10" points="368.206,1384.24 383.43,1373.98 398.653,1363.72 413.877,1353.46 429.101,1343.21 444.324,1332.95 459.548,1322.69 474.771,1312.43 489.995,1302.17 505.219,1291.91 520.442,1281.66 535.666,1271.4 550.889,1261.14 566.113,1250.88 581.337,1240.62 596.56,1230.37 611.784,1220.11 627.007,1209.85 642.231,1199.59 657.455,1189.33 672.678,1179.07 687.902,1168.82 703.125,1158.56 718.349,1148.3 733.573,1138.04 748.796,1127.78 764.02,1117.53 779.243,1107.27 794.467,1097.01 809.691,1086.75 824.914,1076.49 840.138,1066.23 855.361,1055.98 870.585,1045.72 885.809,1035.46 901.032,1025.2 916.256,1014.94 931.479,1004.69 946.703,994.428 961.927,984.169 977.15,973.911 992.374,963.653 1007.6,953.395 1022.82,943.137 1038.04,932.879 1053.27,922.62 1068.49,912.362 1083.72,902.104 1098.94,891.846 1114.16,881.588 1129.39,871.33 1144.61,861.071 1159.83,850.813 1175.06,840.555 1190.28,830.297 1205.5,820.039 1220.73,809.78 1235.95,799.522 1251.17,789.264 1266.4,779.006 1281.62,768.748 1296.85,758.49 1312.07,748.231 1327.29,737.973 1342.52,727.715 1357.74,717.457 1372.96,707.199 1388.19,696.941 1403.41,686.682 1418.63,676.424 1433.86,666.166 1449.08,655.908 1464.31,645.65 1479.53,635.391 1494.75,625.133 1509.98,614.875 1525.2,604.617 1540.42,594.359 1555.65,584.101 1570.87,573.842 1586.09,563.584 1601.32,553.326 1616.54,543.068 1631.76,532.81 1646.99,522.552 1662.21,512.293 1677.44,502.035 1692.66,491.777 1707.88,481.519 1723.11,471.261 1738.33,461.002 1753.55,450.744 1768.78,440.486 1784,430.228 1799.22,419.97 1814.45,409.712 1829.67,399.453 1844.9,389.195 1860.12,378.937 1875.34,368.679 1890.57,358.421 "/>
<polyline clip-path="url(#clip262)" style="stroke:#000000; stroke-linecap:round; stroke-linejoin:round; stroke-width:4; stroke-opacity:1; fill:none" points="368.206,1384.24 381.187,1371.26 394.167,1358.28 407.148,1345.3 420.128,1332.32 433.109,1319.34 446.089,1306.36 459.07,1293.37 472.05,1280.39 485.031,1267.41 498.012,1254.43 510.992,1241.45 523.973,1228.47 536.953,1215.49 549.934,1202.51 562.914,1189.53 575.895,1176.55 588.875,1163.57 601.856,1150.59 614.836,1137.61 627.817,1124.63 640.797,1111.65 653.778,1098.67 666.758,1085.69 679.739,1072.71 692.719,1059.73 705.7,1046.74 718.68,1033.76 731.661,1020.78 744.641,1007.8 757.622,994.822 770.603,981.842 783.583,968.861 796.564,955.881 809.544,942.9 822.525,929.92 835.505,916.939 848.486,903.959 861.466,890.978 874.447,877.998 887.427,865.017 900.408,852.037 913.388,839.056 926.369,826.076 939.349,813.095 952.33,800.115 965.31,787.134 978.291,774.154 991.271,761.173 1004.25,748.192 1017.23,735.212 1030.21,722.231 1043.19,709.251 1056.17,696.27 1069.15,683.29 1082.14,670.309 1095.12,657.329 1108.1,644.348 1121.08,631.368 1134.06,618.387 1147.04,605.407 1160.02,592.426 1173,579.446 1185.98,566.465 1198.96,553.485 1211.94,540.504 1224.92,527.524 1237.9,514.543 1250.88,501.563 1263.86,488.582 1276.84,475.601 1289.82,462.621 1302.8,449.64 1315.78,436.66 1328.77,423.679 1341.75,410.699 1354.73,397.718 1367.71,384.738 1380.69,371.757 1393.67,358.777 1406.65,345.796 1419.63,332.816 1432.61,319.835 1445.59,306.855 1458.57,293.874 1471.55,280.894 1484.53,267.913 1497.51,254.933 1510.49,241.952 1523.47,228.971 1536.45,215.991 1549.43,203.01 1562.41,190.03 1575.4,177.049 1588.38,164.069 1601.36,151.088 1614.34,138.108 1627.32,125.127 1640.3,112.147 1653.28,99.1662 1666.26,86.1857 "/>
<polyline clip-path="url(#clip262)" style="stroke:#000000; stroke-linecap:round; stroke-linejoin:round; stroke-width:4; stroke-opacity:1; fill:none" points="1017.23,735.212 1018.53,733.914 "/>
<polyline clip-path="url(#clip262)" style="stroke:#000000; stroke-linecap:round; stroke-linejoin:round; stroke-width:4; stroke-opacity:1; fill:none" points="980.347,746.642 1018.53,733.914 1005.8,772.098 "/>
<polyline clip-path="url(#clip262)" style="stroke:#000000; stroke-linecap:round; stroke-linejoin:round; stroke-width:4; stroke-opacity:1; fill:none" points="1018.53,733.914 1017.23,735.212 "/>
<path clip-path="url(#clip260)" d="M1283.9 1471.17 Q1283.9 1474.9 1282.55 1479.08 Q1281.23 1483.22 1279.27 1486.78 Q1277.34 1490.35 1274.68 1494 Q1272.01 1497.64 1269.76 1500.23 Q1267.5 1502.81 1265.17 1505.15 Q1263.9 1506.42 1263.32 1507.28 Q1263.16 1507.52 1263.03 1509.45 Q1262.91 1511.34 1262.91 1512.03 Q1262.91 1522.98 1268.04 1522.98 Q1272.3 1522.98 1278.94 1516.42 Q1279.8 1515.64 1280.05 1515.64 Q1280.54 1515.64 1280.78 1516.01 Q1281.03 1516.38 1281.03 1516.66 Q1281.03 1517.2 1279.06 1519 Q1277.13 1520.8 1275.95 1521.62 Q1271.52 1524.82 1267.87 1524.82 Q1260.08 1524.82 1258.48 1511.95 Q1256.76 1513.67 1255.45 1514.82 Q1253.69 1516.58 1253.2 1516.99 Q1252.71 1517.4 1252.42 1517.4 Q1252.05 1517.4 1251.72 1517.03 Q1251.43 1516.66 1251.43 1516.34 Q1251.43 1516.09 1251.84 1515.47 L1258.28 1509.37 Q1258.28 1495.51 1264.92 1480.39 Q1265.37 1479.32 1266.03 1477.97 Q1266.68 1476.58 1268.2 1474.03 Q1269.72 1471.49 1271.23 1469.57 Q1272.79 1467.6 1274.88 1466.12 Q1276.97 1464.61 1278.94 1464.61 Q1283.9 1464.61 1283.9 1471.17 M1281.89 1470.84 Q1281.89 1466.45 1279.02 1466.45 Q1277.18 1466.45 1275.74 1468.34 Q1274.35 1470.22 1272.3 1474.36 Q1270.17 1478.75 1267.99 1486.25 Q1265.86 1493.71 1264.96 1497.81 Q1264.1 1501.91 1263.77 1503.75 Q1281.89 1484.9 1281.89 1470.84 Z" fill="#000000" fill-rule="nonzero" fill-opacity="1" /><path clip-path="url(#clip260)" d="M1292.54 1514.53 L1292.54 1512.69 Q1299.59 1512.69 1303.24 1508.93 Q1304.24 1508.93 1304.41 1509.16 Q1304.59 1509.39 1304.59 1510.45 L1304.59 1543.42 Q1304.59 1545.17 1305.45 1545.72 Q1306.31 1546.26 1310.07 1546.26 L1311.93 1546.26 L1311.93 1548.07 Q1309.87 1547.9 1302.41 1547.9 Q1294.95 1547.9 1292.91 1548.07 L1292.91 1546.26 L1294.77 1546.26 Q1298.47 1546.26 1299.36 1545.74 Q1300.25 1545.2 1300.25 1543.42 L1300.25 1512.98 Q1297.18 1514.53 1292.54 1514.53 Z" fill="#000000" fill-rule="nonzero" fill-opacity="1" /><path clip-path="url(#clip260)" d="M890.663 577.376 Q890.663 581.106 889.31 585.287 Q887.999 589.427 886.031 592.993 Q884.105 596.559 881.44 600.207 Q878.776 603.855 876.522 606.437 Q874.267 609.02 871.931 611.356 Q870.66 612.627 870.086 613.488 Q869.922 613.734 869.8 615.66 Q869.677 617.546 869.677 618.242 Q869.677 629.187 874.8 629.187 Q879.063 629.187 885.703 622.628 Q886.564 621.849 886.81 621.849 Q887.302 621.849 887.548 622.218 Q887.794 622.587 887.794 622.874 Q887.794 623.407 885.826 625.211 Q883.9 627.014 882.711 627.834 Q878.284 631.031 874.636 631.031 Q866.848 631.031 865.25 618.16 Q863.528 619.882 862.217 621.03 Q860.454 622.792 859.962 623.202 Q859.47 623.612 859.183 623.612 Q858.814 623.612 858.486 623.243 Q858.2 622.874 858.2 622.546 Q858.2 622.3 858.609 621.686 L865.045 615.578 Q865.045 601.724 871.685 586.599 Q872.136 585.533 872.792 584.18 Q873.448 582.787 874.964 580.245 Q876.481 577.704 877.997 575.778 Q879.555 573.81 881.645 572.334 Q883.736 570.818 885.703 570.818 Q890.663 570.818 890.663 577.376 M888.655 577.048 Q888.655 572.662 885.785 572.662 Q883.941 572.662 882.506 574.548 Q881.113 576.433 879.063 580.573 Q876.932 584.959 874.759 592.46 Q872.628 599.92 871.726 604.019 Q870.865 608.118 870.537 609.963 Q888.655 591.108 888.655 577.048 Z" fill="#000000" fill-rule="nonzero" fill-opacity="1" /><path clip-path="url(#clip260)" d="M899.3 654.279 Q899.3 653.218 899.386 652.902 Q899.501 652.587 899.96 652.099 L911.236 639.532 Q917.405 632.588 917.405 626.534 Q917.405 622.603 915.339 619.791 Q913.302 616.979 909.543 616.979 Q906.961 616.979 904.78 618.557 Q902.6 620.135 901.596 622.947 Q901.768 622.89 902.37 622.89 Q903.834 622.89 904.637 623.808 Q905.469 624.726 905.469 625.96 Q905.469 627.538 904.436 628.313 Q903.432 629.059 902.428 629.059 Q902.026 629.059 901.481 628.973 Q900.964 628.887 900.132 628.083 Q899.3 627.251 899.3 625.788 Q899.3 621.685 902.399 618.414 Q905.526 615.143 910.289 615.143 Q915.684 615.143 919.213 618.356 Q922.771 621.541 922.771 626.534 Q922.771 628.284 922.225 629.891 Q921.709 631.469 920.992 632.703 Q920.303 633.936 918.409 635.916 Q916.516 637.896 914.995 639.302 Q913.474 640.708 910.06 643.692 L903.834 649.746 L914.421 649.746 Q919.586 649.746 919.987 649.287 Q920.561 648.455 921.279 644.065 L922.771 644.065 L921.106 654.279 L899.3 654.279 Z" fill="#000000" fill-rule="nonzero" fill-opacity="1" /><path clip-path="url(#clip260)" d="M2201.9 749.678 Q2201.9 749.735 2201.84 749.792 Q2201.47 752.834 2200.75 754.527 Q2200.04 756.191 2198.43 756.966 Q2197.25 757.539 2195.79 757.539 Q2193.58 757.539 2190.4 756.076 Q2190.28 756.019 2189.65 755.732 Q2189.02 755.445 2188.79 755.359 Q2188.56 755.273 2188.07 755.1 Q2187.58 754.9 2187.21 754.842 Q2186.84 754.785 2186.46 754.785 Q2185.66 754.785 2184.97 755.129 Q2183.57 755.818 2182.71 756.851 Q2181.82 757.855 2181.59 759.663 Q2181.53 759.892 2181.33 760.064 Q2181.13 760.236 2180.87 760.236 Q2180.61 760.236 2180.38 760.036 Q2180.15 759.835 2180.15 759.548 Q2180.15 759.49 2180.21 759.433 Q2180.58 756.392 2181.3 754.727 Q2182.02 753.035 2183.62 752.26 Q2184.89 751.657 2186.26 751.657 Q2188.42 751.657 2191.69 753.149 Q2191.8 753.207 2192.43 753.494 Q2193.06 753.781 2193.29 753.867 Q2193.52 753.953 2194.01 754.154 Q2194.5 754.326 2194.87 754.383 Q2195.24 754.441 2195.62 754.441 Q2196.33 754.441 2197.08 754.068 Q2198.49 753.379 2199.38 752.375 Q2200.27 751.37 2200.49 749.563 Q2200.55 749.333 2200.75 749.161 Q2200.95 748.96 2201.21 748.96 Q2201.47 748.96 2201.7 749.19 Q2201.9 749.391 2201.9 749.678 Z" fill="#000000" fill-rule="nonzero" fill-opacity="1" /><path clip-path="url(#clip260)" d="M2207.28 770.909 Q2207.28 771.237 2205.68 774.107 Q2203.01 779.394 2199.61 787.469 Q2196.21 795.544 2194.28 801.528 Q2193.87 802.963 2193.59 804.807 Q2192.85 810.464 2190.47 819.236 Q2189.65 821.982 2189.12 823.13 Q2188.58 824.277 2187.81 824.277 Q2186.7 824.277 2186.7 822.761 Q2186.7 821.244 2188.09 815.588 Q2189.53 809.931 2191.09 804.726 Q2192.07 801.856 2192.07 796.487 Q2192.07 794.765 2191.99 793.208 Q2191.9 791.65 2191.58 789.396 Q2191.25 787.141 2190.72 785.297 Q2190.18 783.452 2189.16 781.526 Q2188.13 779.558 2186.74 778.246 Q2185.35 776.894 2183.22 776.033 Q2181.12 775.172 2178.5 775.172 Q2177.85 775.172 2177.03 775.254 Q2176.25 775.295 2174.36 775.828 Q2172.52 776.361 2170.96 777.304 Q2169.4 778.205 2167.72 780.214 Q2166.04 782.222 2165.14 784.928 L2164.81 785.338 Q2164.28 785.338 2163.99 785.338 Q2163.75 785.297 2163.46 785.092 Q2163.21 784.887 2163.21 784.518 Q2163.21 783.657 2163.87 781.935 Q2164.56 780.214 2165.96 778.001 Q2167.39 775.787 2169.24 773.82 Q2171.12 771.852 2173.87 770.499 Q2176.62 769.147 2179.57 769.147 Q2187.15 769.147 2190.76 778.369 Q2193.91 786.198 2194.2 795.503 Q2200.76 778.984 2205.27 770.663 Q2205.51 770.049 2206.25 770.049 Q2207.28 770.09 2207.28 770.909 Z" fill="#000000" fill-rule="nonzero" fill-opacity="1" /><path clip-path="url(#clip260)" d="M1847.7 121.266 Q1847.7 121.594 1846.11 124.463 Q1843.44 129.751 1840.04 137.826 Q1836.64 145.901 1834.71 151.885 Q1834.3 153.32 1834.01 155.164 Q1833.28 160.821 1830.9 169.592 Q1830.08 172.339 1829.55 173.486 Q1829.01 174.634 1828.23 174.634 Q1827.13 174.634 1827.13 173.117 Q1827.13 171.601 1828.52 165.944 Q1829.96 160.288 1831.51 155.082 Q1832.5 152.213 1832.5 146.843 Q1832.5 145.122 1832.42 143.564 Q1832.33 142.007 1832.01 139.752 Q1831.68 137.498 1831.14 135.653 Q1830.61 133.809 1829.59 131.882 Q1828.56 129.915 1827.17 128.603 Q1825.78 127.25 1823.64 126.39 Q1821.55 125.529 1818.93 125.529 Q1818.27 125.529 1817.45 125.611 Q1816.68 125.652 1814.79 126.185 Q1812.95 126.718 1811.39 127.66 Q1809.83 128.562 1808.15 130.571 Q1806.47 132.579 1805.57 135.284 L1805.24 135.694 Q1804.71 135.694 1804.42 135.694 Q1804.17 135.653 1803.89 135.448 Q1803.64 135.243 1803.64 134.875 Q1803.64 134.014 1804.3 132.292 Q1804.99 130.571 1806.39 128.357 Q1807.82 126.144 1809.67 124.176 Q1811.55 122.209 1814.3 120.856 Q1817.04 119.504 1820 119.504 Q1827.58 119.504 1831.19 128.726 Q1834.34 136.555 1834.63 145.86 Q1841.19 129.341 1845.7 121.02 Q1845.94 120.405 1846.68 120.405 Q1847.7 120.446 1847.7 121.266 Z" fill="#000000" fill-rule="nonzero" fill-opacity="1" /><path clip-path="url(#clip260)" d="M1879.94 167.011 Q1879.94 167.613 1879.43 168.101 Q1878.94 168.589 1878.33 168.589 Q1877.99 168.589 1877.16 168.015 Q1874.78 166.351 1871.76 166.351 Q1869.07 166.351 1866.57 167.011 Q1864.07 167.671 1862.38 169.019 Q1860.72 170.339 1860.72 172.061 Q1860.72 174.213 1863.07 175.475 Q1865.51 174.356 1868.52 174.356 Q1869.5 174.356 1870.16 174.413 Q1870.85 174.471 1871.51 174.614 Q1872.17 174.758 1872.48 175.102 Q1872.83 175.418 1872.83 175.934 Q1872.83 177.77 1868.06 177.77 Q1864.96 177.77 1863.01 176.938 Q1860.52 178.172 1859.14 180.152 Q1857.76 182.132 1857.76 183.825 Q1857.76 185.288 1858.57 186.35 Q1859.4 187.411 1860.75 187.928 Q1862.12 188.444 1863.47 188.674 Q1864.85 188.874 1866.37 188.874 Q1868.87 188.874 1870.62 188.559 Q1872.4 188.215 1873.37 187.583 Q1874.38 186.952 1874.78 186.522 Q1875.21 186.063 1875.64 185.345 Q1875.9 184.944 1876.24 184.944 Q1876.5 184.944 1876.67 185.116 Q1876.87 185.259 1876.87 185.517 Q1876.87 185.833 1876.47 186.493 Q1876.1 187.153 1875.18 188.042 Q1874.29 188.903 1873.06 189.707 Q1871.85 190.481 1869.93 191.026 Q1868.01 191.572 1865.82 191.572 Q1861.38 191.572 1858.8 189.391 Q1856.24 187.21 1856.24 184.169 Q1856.24 182.046 1857.65 179.865 Q1859.08 177.656 1861.61 176.25 Q1859.25 174.5 1859.25 172.061 Q1859.25 169.88 1861.09 167.929 Q1862.96 165.978 1865.97 164.83 Q1869.01 163.654 1872.34 163.654 Q1874.2 163.654 1876.04 164.285 Q1877.88 164.888 1878.91 165.662 Q1879.94 166.437 1879.94 167.011 M1871.31 175.992 Q1870.04 175.647 1868.52 175.647 Q1866.46 175.647 1864.94 176.164 Q1866.17 176.479 1868.06 176.479 Q1869.64 176.479 1870.1 176.393 Q1870.59 176.307 1871.31 175.992 Z" fill="#000000" fill-rule="nonzero" fill-opacity="1" /><path clip-path="url(#clip260)" d="M2270.31 472.27 Q2270.31 472.598 2268.72 475.467 Q2266.05 480.754 2262.65 488.829 Q2259.25 496.904 2257.32 502.889 Q2256.91 504.323 2256.62 506.168 Q2255.89 511.824 2253.51 520.596 Q2252.69 523.342 2252.16 524.49 Q2251.62 525.638 2250.84 525.638 Q2249.74 525.638 2249.74 524.121 Q2249.74 522.604 2251.13 516.948 Q2252.57 511.291 2254.12 506.086 Q2255.11 503.217 2255.11 497.847 Q2255.11 496.125 2255.02 494.568 Q2254.94 493.01 2254.61 490.756 Q2254.29 488.501 2253.75 486.657 Q2253.22 484.812 2252.2 482.886 Q2251.17 480.918 2249.78 479.607 Q2248.38 478.254 2246.25 477.393 Q2244.16 476.533 2241.54 476.533 Q2240.88 476.533 2240.06 476.615 Q2239.28 476.656 2237.4 477.188 Q2235.55 477.721 2234 478.664 Q2232.44 479.566 2230.76 481.574 Q2229.08 483.583 2228.18 486.288 L2227.85 486.698 Q2227.32 486.698 2227.03 486.698 Q2226.78 486.657 2226.5 486.452 Q2226.25 486.247 2226.25 485.878 Q2226.25 485.017 2226.91 483.296 Q2227.6 481.574 2229 479.361 Q2230.43 477.147 2232.28 475.18 Q2234.16 473.212 2236.91 471.86 Q2239.65 470.507 2242.6 470.507 Q2250.19 470.507 2253.79 479.73 Q2256.95 487.559 2257.24 496.863 Q2263.8 480.345 2268.31 472.024 Q2268.55 471.409 2269.29 471.409 Q2270.31 471.45 2270.31 472.27 Z" fill="#000000" fill-rule="nonzero" fill-opacity="1" /><path clip-path="url(#clip260)" d="M286.23 1445.35 Q286.23 1433.02 289.345 1426.29 Q293.69 1416.29 303.938 1416.29 Q306.11 1416.29 308.365 1416.91 Q310.66 1417.48 313.529 1419.74 Q316.439 1421.99 318.202 1425.68 Q321.563 1432.81 321.563 1445.35 Q321.563 1457.61 318.448 1464.29 Q313.898 1474.05 303.856 1474.05 Q300.085 1474.05 296.232 1472.12 Q292.42 1470.19 290.001 1465.56 Q286.23 1458.64 286.23 1445.35 M293.198 1444.33 Q293.198 1457 294.1 1462.04 Q295.125 1467.49 297.912 1469.87 Q300.741 1472.2 303.856 1472.2 Q307.217 1472.2 310.004 1469.7 Q312.832 1467.16 313.693 1461.71 Q314.636 1456.34 314.595 1444.33 Q314.595 1432.65 313.775 1427.98 Q312.668 1422.52 309.717 1420.35 Q306.807 1418.14 303.856 1418.14 Q302.749 1418.14 301.56 1418.47 Q300.413 1418.79 298.732 1419.74 Q297.051 1420.68 295.74 1423.02 Q294.469 1425.35 293.854 1428.88 Q293.198 1433.43 293.198 1444.33 Z" fill="#000000" fill-rule="nonzero" fill-opacity="1" /><path clip-path="url(#clip260)" d="M2284.36 1426.47 Q2284.36 1425.12 2283.99 1424.01 Q2283.67 1422.87 2283.13 1422.09 Q2282.64 1421.27 2281.7 1420.65 Q2280.76 1420 2279.98 1419.59 Q2279.2 1419.18 2277.89 1418.93 Q2276.58 1418.64 2275.71 1418.52 Q2274.85 1418.36 2273.38 1418.27 Q2271.9 1418.19 2271.16 1418.19 Q2270.47 1418.19 2269.07 1418.19 Q2264.69 1418.19 2263.95 1418.27 Q2262.84 1418.44 2262.43 1419.09 Q2262.02 1419.71 2261.61 1421.39 L2256.16 1443.28 L2265.55 1443.28 Q2270.67 1443.28 2274.2 1441.84 Q2277.72 1440.41 2279.73 1438.4 Q2281.94 1436.19 2283.13 1432.62 Q2284.36 1429.05 2284.36 1426.47 M2293.5 1465.13 Q2293.5 1465.58 2293.13 1466.6 Q2292.81 1467.63 2291.99 1469.06 Q2291.17 1470.45 2290.06 1471.72 Q2288.95 1473 2287.19 1473.86 Q2285.43 1474.76 2283.42 1474.76 Q2282.93 1474.76 2282.44 1474.72 Q2281.94 1474.72 2280.72 1474.51 Q2279.53 1474.35 2278.54 1474.02 Q2277.56 1473.73 2276.33 1473.04 Q2275.1 1472.38 2274.24 1471.48 Q2273.42 1470.54 2272.85 1469.06 Q2272.27 1467.54 2272.27 1465.7 Q2272.27 1464.06 2273.62 1458.57 Q2274.81 1453.89 2274.81 1452.75 Q2274.81 1451.48 2274.4 1450.29 Q2274.03 1449.1 2273.09 1447.87 Q2272.19 1446.64 2270.26 1445.9 Q2268.34 1445.12 2265.63 1445.12 L2255.67 1445.12 L2250.1 1467.38 Q2250.1 1467.42 2249.97 1467.99 Q2249.85 1468.53 2249.85 1468.81 Q2249.85 1469.35 2250.18 1469.68 Q2250.55 1470 2251.45 1470.17 Q2252.35 1470.29 2253.05 1470.33 Q2253.79 1470.33 2255.3 1470.33 Q2257.19 1470.33 2257.52 1470.66 Q2257.68 1470.86 2257.68 1471.23 Q2257.68 1471.81 2257.52 1472.22 Q2257.39 1472.59 2257.06 1472.71 Q2256.78 1472.83 2256.57 1472.87 Q2256.37 1472.91 2256 1472.91 L2245.34 1472.67 L2234.77 1472.91 Q2233.58 1472.91 2233.58 1471.97 Q2233.58 1471.15 2233.86 1470.82 Q2234.15 1470.45 2234.52 1470.41 Q2234.89 1470.33 2235.83 1470.33 Q2237.88 1470.33 2239.11 1470.21 Q2240.34 1470.09 2241.12 1469.92 Q2241.94 1469.72 2242.35 1469.14 Q2242.8 1468.57 2243.01 1468.08 Q2243.21 1467.54 2243.5 1466.36 L2254.73 1421.27 Q2255.06 1419.91 2255.06 1419.71 Q2255.06 1418.93 2254.56 1418.73 Q2254.11 1418.48 2252.8 1418.36 L2249.6 1418.19 Q2248.62 1418.19 2248.21 1418.15 Q2247.84 1418.11 2247.55 1417.91 Q2247.27 1417.7 2247.27 1417.25 Q2247.27 1416.1 2247.76 1415.86 Q2248.25 1415.57 2249.69 1415.57 L2273.62 1415.57 Q2281.78 1415.57 2286.95 1419.14 Q2292.15 1422.7 2292.15 1428.15 Q2292.15 1430.61 2291.04 1432.91 Q2289.94 1435.2 2288.09 1437.01 Q2286.29 1438.81 2283.87 1440.33 Q2281.45 1441.8 2278.87 1442.83 Q2276.33 1443.81 2273.71 1444.38 Q2274.85 1444.79 2275.92 1445.41 Q2277.03 1446.02 2278.42 1447.17 Q2279.85 1448.32 2280.72 1450.16 Q2281.58 1452.01 2281.58 1454.26 Q2281.58 1455.86 2281.25 1458.24 Q2280.43 1465 2280.43 1467.79 Q2280.43 1470.45 2281.13 1471.68 Q2281.82 1472.91 2283.79 1472.91 Q2285.72 1472.91 2287.85 1471.19 Q2290.02 1469.43 2291.41 1465.29 Q2291.74 1464.1 2292.52 1464.1 Q2292.56 1464.1 2292.6 1464.1 Q2292.68 1464.1 2292.85 1464.18 Q2293.01 1464.22 2293.13 1464.35 Q2293.3 1464.43 2293.38 1464.63 Q2293.5 1464.84 2293.5 1465.13 Z" fill="#000000" fill-rule="nonzero" fill-opacity="1" /><path clip-path="url(#clip260)" d="M1556.12 86.2289 Q1556.45 86.5978 1556.45 86.9668 Q1556.45 87.3357 1555.63 88.4014 Q1554.85 89.4671 1553.17 90.9017 Q1551.49 92.3363 1549.32 93.689 Q1547.15 95.0416 1543.95 95.9434 Q1540.75 96.8862 1537.39 96.8862 Q1531.37 96.8862 1527.76 92.5823 Q1524.19 88.2784 1524.19 81.6791 Q1524.19 77.4572 1525.59 73.7272 Q1526.98 69.9562 1529.23 67.2919 Q1531.53 64.6276 1534.4 62.7011 Q1537.31 60.7336 1540.34 59.7909 Q1543.38 58.8481 1546.2 58.8481 Q1550.34 58.8481 1552.76 60.9386 Q1555.18 63.029 1555.18 65.9802 Q1555.18 66.6771 1554.98 67.5378 Q1554.81 68.3986 1554.24 69.7513 Q1553.7 71.1039 1552.31 72.4565 Q1550.92 73.7682 1548.87 74.629 Q1544.32 76.5555 1536.04 76.5555 L1531.57 76.5555 Q1530.26 81.8431 1530.26 85.2862 Q1530.26 86.6388 1530.5 88.0325 Q1530.75 89.3851 1531.41 91.1067 Q1532.1 92.8282 1533.66 93.9349 Q1535.26 95.0007 1537.55 95.0007 Q1538.29 95.0007 1539.07 94.9597 Q1539.89 94.9187 1541.94 94.4678 Q1544.03 94.0169 1545.88 93.2381 Q1547.72 92.4593 1550.06 90.7788 Q1552.43 89.0572 1554.32 86.7208 Q1554.98 85.86 1555.43 85.86 Q1555.79 85.86 1556.12 86.2289 M1552.39 65.9802 Q1552.39 63.7258 1550.71 62.2092 Q1549.07 60.6926 1546.2 60.6926 Q1545.3 60.6926 1544.19 60.8976 Q1543.09 61.1025 1541.24 61.9633 Q1539.44 62.8241 1537.84 64.2587 Q1536.24 65.6523 1534.64 68.3986 Q1533.05 71.1039 1532.1 74.711 L1535.55 74.711 Q1536.73 74.711 1537.6 74.711 Q1538.46 74.67 1540.34 74.506 Q1542.27 74.3421 1543.66 74.0551 Q1545.06 73.7272 1546.82 73.0714 Q1548.58 72.4156 1549.69 71.5548 Q1550.84 70.653 1551.61 69.2184 Q1552.39 67.7838 1552.39 65.9802 Z" fill="#000000" fill-rule="nonzero" fill-opacity="1" /><path clip-path="url(#clip260)" d="M1580.1 21.1045 Q1580.1 22.367 1579.06 23.3138 Q1578.06 24.232 1576.97 24.232 Q1575.96 24.232 1575.33 23.6295 Q1574.73 22.9982 1574.73 22.1087 Q1574.73 20.9324 1575.73 19.9568 Q1576.74 18.9813 1577.92 18.9813 Q1578.89 18.9813 1579.49 19.5838 Q1580.1 20.1864 1580.1 21.1045 M1580.61 49.424 Q1580.61 49.6535 1580.35 50.5717 Q1580.1 51.4612 1579.46 52.8384 Q1578.86 54.187 1578.03 55.4494 Q1577.2 56.7119 1575.82 57.6014 Q1574.47 58.4908 1572.92 58.4908 Q1570.83 58.4908 1569.45 57.1136 Q1568.1 55.7364 1568.1 53.6705 Q1568.1 52.5515 1569.45 48.9649 Q1573.35 38.5209 1573.5 38.0905 Q1574.16 36.455 1574.16 35.0204 Q1574.16 34.3604 1574.01 33.9587 Q1573.87 33.5284 1573.58 33.3849 Q1573.3 33.2127 1573.12 33.1841 Q1572.98 33.1554 1572.69 33.1554 Q1571 33.1554 1569.42 34.8769 Q1567.84 36.5985 1566.75 40.4433 Q1566.52 41.1606 1566.38 41.3327 Q1566.24 41.5049 1565.81 41.5049 Q1565.09 41.4762 1565.09 40.9023 Q1565.09 40.7302 1565.29 40.0703 Q1565.49 39.3816 1565.86 38.3487 Q1566.24 37.2871 1566.9 36.1968 Q1567.56 35.0778 1568.36 34.1022 Q1569.19 33.1267 1570.37 32.4954 Q1571.55 31.8642 1572.87 31.8642 Q1575.02 31.8642 1576.34 33.2701 Q1577.69 34.6474 1577.69 36.6845 Q1577.69 37.8035 1576.91 39.7833 Q1575.96 42.3656 1575.62 43.1977 L1573.32 49.3666 Q1572.49 51.6046 1572.23 52.2933 Q1572 52.9532 1571.8 53.7566 Q1571.63 54.5313 1571.63 55.2486 Q1571.63 56.2528 1571.95 56.7119 Q1572.29 57.171 1573.04 57.171 Q1575.1 57.171 1576.62 55.1338 Q1578.14 53.068 1579.03 49.9118 Q1579.06 49.8257 1579.09 49.6822 Q1579.32 48.9649 1579.55 48.8788 Q1579.67 48.8502 1579.89 48.8502 Q1580.61 48.8502 1580.61 49.424 Z" fill="#000000" fill-rule="nonzero" fill-opacity="1" /><path clip-path="url(#clip260)" d="M1617.36 33.9014 Q1617.36 35.9098 1614.49 35.9098 L1607.77 35.9098 Q1606.74 40.6728 1606.74 45.2636 Q1606.74 50.7439 1608.43 54.9617 Q1608.78 55.7937 1608.78 56.2528 Q1608.78 57.1136 1608 57.8022 Q1607.26 58.4908 1606.37 58.4908 Q1605.62 58.4908 1605.13 57.917 Q1604.67 57.3431 1604.27 55.5355 Q1603.78 53.4123 1603.78 51.0595 Q1603.78 48.2476 1604.24 45.5505 Q1604.7 42.8247 1606.25 35.9098 L1599.62 35.9098 L1596.32 48.9075 Q1595.15 53.2975 1594.75 54.646 Q1594.49 55.4494 1594.4 55.7077 Q1594.32 55.9659 1594.06 56.5971 Q1593.83 57.1997 1593.66 57.4292 Q1593.48 57.6301 1593.2 57.9457 Q1592.91 58.29 1592.57 58.3761 Q1592.22 58.4908 1591.79 58.4908 Q1591.13 58.4908 1590.62 58.0604 Q1590.1 57.6587 1590.1 56.8841 Q1590.1 56.3676 1590.56 55.4781 Q1596.01 43.7142 1598.08 35.9098 L1594.75 35.9098 Q1590.16 35.9098 1587.29 40.4433 Q1586.83 41.0458 1586.57 41.1032 Q1586.45 41.1319 1586.34 41.1319 Q1586.02 41.1319 1585.82 40.9884 Q1585.65 40.8449 1585.65 40.7015 L1585.62 40.558 Q1585.62 40.3859 1586.05 39.6112 Q1586.51 38.8078 1587.37 37.574 Q1588.26 36.3402 1589.21 35.2786 Q1590.13 34.3031 1591.02 33.7005 Q1591.93 33.0693 1592.8 32.8397 Q1593.66 32.6102 1594.14 32.5528 Q1594.63 32.4954 1595.32 32.4954 L1615 32.4954 Q1615.75 32.4954 1616.15 32.5528 Q1616.55 32.5815 1616.95 32.9258 Q1617.36 33.2414 1617.36 33.9014 Z" fill="#000000" fill-rule="nonzero" fill-opacity="1" /><path clip-path="url(#clip260)" d="M1618.79 71.6894 Q1618.79 71.4025 1619.02 70.7712 L1639.76 15.3373 Q1639.76 15.2799 1639.9 14.9643 Q1640.05 14.6487 1640.13 14.4479 Q1640.22 14.2183 1640.39 14.0462 Q1640.59 13.874 1640.82 13.874 Q1641.4 13.874 1641.4 14.5913 Q1641.4 14.6487 1641.22 15.3373 L1620.42 70.8286 Q1620.08 71.8328 1619.85 72.1198 Q1619.65 72.4067 1619.3 72.4067 Q1618.79 72.4067 1618.79 71.6894 Z" fill="#000000" fill-rule="nonzero" fill-opacity="1" /><path clip-path="url(#clip260)" d="M1647.88 48.1328 L1647.88 46.3252 L1665.93 18.7517 Q1666.39 18.0344 1667.11 18.0631 Q1667.77 18.0631 1667.91 18.3213 Q1668.06 18.5796 1668.06 19.5838 L1668.06 46.3252 L1673.94 46.3252 L1673.94 48.1328 L1668.06 48.1328 L1668.06 53.2401 Q1668.06 54.933 1668.74 55.4781 Q1669.46 56.0233 1672.5 56.0233 L1673.74 56.0233 L1673.74 57.8309 Q1671.33 57.6587 1665.76 57.6587 Q1660.22 57.6587 1657.81 57.8309 L1657.81 56.0233 L1659.05 56.0233 Q1662.09 56.0233 1662.8 55.5068 Q1663.52 54.9617 1663.52 53.2401 L1663.52 48.1328 L1647.88 48.1328 M1649.55 46.3252 L1663.87 46.3252 L1663.87 24.4041 L1649.55 46.3252 Z" fill="#000000" fill-rule="nonzero" fill-opacity="1" /><path clip-path="url(#clip260)" d="M1938.09 352.881 Q1938.42 353.25 1938.42 353.619 Q1938.42 353.988 1937.6 355.054 Q1936.82 356.119 1935.14 357.554 Q1933.46 358.988 1931.29 360.341 Q1929.11 361.694 1925.92 362.596 Q1922.72 363.538 1919.36 363.538 Q1913.33 363.538 1909.73 359.234 Q1906.16 354.931 1906.16 348.331 Q1906.16 344.109 1907.55 340.379 Q1908.95 336.608 1911.2 333.944 Q1913.5 331.28 1916.37 329.353 Q1919.28 327.386 1922.31 326.443 Q1925.34 325.5 1928.17 325.5 Q1932.31 325.5 1934.73 327.591 Q1937.15 329.681 1937.15 332.632 Q1937.15 333.329 1936.94 334.19 Q1936.78 335.051 1936.21 336.403 Q1935.67 337.756 1934.28 339.109 Q1932.88 340.42 1930.84 341.281 Q1926.29 343.208 1918.01 343.208 L1913.54 343.208 Q1912.23 348.495 1912.23 351.938 Q1912.23 353.291 1912.47 354.685 Q1912.72 356.037 1913.37 357.759 Q1914.07 359.48 1915.63 360.587 Q1917.23 361.653 1919.52 361.653 Q1920.26 361.653 1921.04 361.612 Q1921.86 361.571 1923.91 361.12 Q1926 360.669 1927.84 359.89 Q1929.69 359.111 1932.02 357.431 Q1934.4 355.709 1936.29 353.373 Q1936.94 352.512 1937.39 352.512 Q1937.76 352.512 1938.09 352.881 M1934.36 332.632 Q1934.36 330.378 1932.68 328.861 Q1931.04 327.345 1928.17 327.345 Q1927.27 327.345 1926.16 327.55 Q1925.06 327.755 1923.21 328.615 Q1921.41 329.476 1919.81 330.911 Q1918.21 332.304 1916.61 335.051 Q1915.01 337.756 1914.07 341.363 L1917.51 341.363 Q1918.7 341.363 1919.56 341.363 Q1920.42 341.322 1922.31 341.158 Q1924.24 340.994 1925.63 340.707 Q1927.02 340.379 1928.79 339.724 Q1930.55 339.068 1931.66 338.207 Q1932.8 337.305 1933.58 335.871 Q1934.36 334.436 1934.36 332.632 Z" fill="#000000" fill-rule="nonzero" fill-opacity="1" /><path clip-path="url(#clip260)" d="M1962.06 248.607 Q1962.06 249.869 1961.03 250.816 Q1960.03 251.734 1958.94 251.734 Q1957.93 251.734 1957.3 251.132 Q1956.7 250.501 1956.7 249.611 Q1956.7 248.435 1957.7 247.459 Q1958.71 246.484 1959.88 246.484 Q1960.86 246.484 1961.46 247.086 Q1962.06 247.689 1962.06 248.607 M1962.58 276.926 Q1962.58 277.156 1962.32 278.074 Q1962.06 278.964 1961.43 280.341 Q1960.83 281.689 1960 282.952 Q1959.17 284.214 1957.79 285.104 Q1956.44 285.993 1954.89 285.993 Q1952.8 285.993 1951.42 284.616 Q1950.07 283.239 1950.07 281.173 Q1950.07 280.054 1951.42 276.467 Q1955.32 266.023 1955.46 265.593 Q1956.12 263.957 1956.12 262.523 Q1956.12 261.863 1955.98 261.461 Q1955.84 261.031 1955.55 260.887 Q1955.26 260.715 1955.09 260.686 Q1954.95 260.658 1954.66 260.658 Q1952.97 260.658 1951.39 262.379 Q1949.81 264.101 1948.72 267.946 Q1948.49 268.663 1948.35 268.835 Q1948.21 269.007 1947.77 269.007 Q1947.06 268.979 1947.06 268.405 Q1947.06 268.233 1947.26 267.573 Q1947.46 266.884 1947.83 265.851 Q1948.21 264.789 1948.87 263.699 Q1949.52 262.58 1950.33 261.605 Q1951.16 260.629 1952.34 259.998 Q1953.51 259.367 1954.83 259.367 Q1956.99 259.367 1958.3 260.773 Q1959.65 262.15 1959.65 264.187 Q1959.65 265.306 1958.88 267.286 Q1957.93 269.868 1957.59 270.7 L1955.29 276.869 Q1954.46 279.107 1954.2 279.796 Q1953.97 280.456 1953.77 281.259 Q1953.6 282.034 1953.6 282.751 Q1953.6 283.755 1953.91 284.214 Q1954.26 284.673 1955.01 284.673 Q1957.07 284.673 1958.59 282.636 Q1960.11 280.57 1961 277.414 Q1961.03 277.328 1961.06 277.185 Q1961.29 276.467 1961.52 276.381 Q1961.63 276.353 1961.86 276.353 Q1962.58 276.353 1962.58 276.926 Z" fill="#000000" fill-rule="nonzero" fill-opacity="1" /><path clip-path="url(#clip260)" d="M1967.12 286.286 Q1967.12 267.308 1974.2 252.004 Q1977.21 245.587 1981.44 240.211 Q1985.66 234.836 1988.46 232.478 Q1991.25 230.119 1992.02 230.119 Q1993.12 230.119 1993.17 231.216 Q1993.17 231.765 1991.69 233.136 Q1973.59 251.565 1973.65 286.286 Q1973.65 321.116 1991.25 338.832 Q1993.17 340.752 1993.17 341.355 Q1993.17 342.452 1992.02 342.452 Q1991.25 342.452 1988.57 340.204 Q1985.88 337.955 1981.71 332.799 Q1977.54 327.643 1974.52 321.335 Q1967.12 306.032 1967.12 286.286 Z" fill="#000000" fill-rule="nonzero" fill-opacity="1" /><path clip-path="url(#clip260)" d="M2060.8 232.089 Q2060.8 234.097 2057.93 234.097 L2051.22 234.097 Q2050.19 238.86 2050.19 243.451 Q2050.19 248.931 2051.88 253.149 Q2052.22 253.981 2052.22 254.44 Q2052.22 255.301 2051.45 255.989 Q2050.7 256.678 2049.81 256.678 Q2049.07 256.678 2048.58 256.104 Q2048.12 255.53 2047.72 253.723 Q2047.23 251.6 2047.23 249.247 Q2047.23 246.435 2047.69 243.738 Q2048.15 241.012 2049.7 234.097 L2043.07 234.097 L2039.77 247.095 Q2038.6 251.485 2038.19 252.833 Q2037.94 253.637 2037.85 253.895 Q2037.76 254.153 2037.51 254.784 Q2037.28 255.387 2037.1 255.616 Q2036.93 255.817 2036.64 256.133 Q2036.36 256.477 2036.01 256.563 Q2035.67 256.678 2035.24 256.678 Q2034.58 256.678 2034.06 256.248 Q2033.55 255.846 2033.55 255.071 Q2033.55 254.555 2034 253.665 Q2039.46 241.901 2041.52 234.097 L2038.19 234.097 Q2033.6 234.097 2030.73 238.631 Q2030.27 239.233 2030.02 239.29 Q2029.9 239.319 2029.79 239.319 Q2029.47 239.319 2029.27 239.176 Q2029.1 239.032 2029.1 238.889 L2029.07 238.745 Q2029.07 238.573 2029.5 237.798 Q2029.96 236.995 2030.82 235.761 Q2031.71 234.528 2032.66 233.466 Q2033.57 232.49 2034.46 231.888 Q2035.38 231.257 2036.24 231.027 Q2037.1 230.797 2037.59 230.74 Q2038.08 230.683 2038.77 230.683 L2058.45 230.683 Q2059.2 230.683 2059.6 230.74 Q2060 230.769 2060.4 231.113 Q2060.8 231.429 2060.8 232.089 Z" fill="#000000" fill-rule="nonzero" fill-opacity="1" /><path clip-path="url(#clip260)" d="M2029.07 272.354 L2066.76 272.354 L2066.76 269.218 L2029.07 269.218  Z" fill="#000000" fill-rule="evenodd" fill-opacity="1"/>
<path clip-path="url(#clip260)" d="M2032.07 314.619 L2032.07 312.811 L2050.12 285.238 Q2050.58 284.521 2051.29 284.549 Q2051.95 284.549 2052.1 284.808 Q2052.24 285.066 2052.24 286.07 L2052.24 312.811 L2058.12 312.811 L2058.12 314.619 L2052.24 314.619 L2052.24 319.726 Q2052.24 321.419 2052.93 321.964 Q2053.65 322.51 2056.69 322.51 L2057.92 322.51 L2057.92 324.317 Q2055.51 324.145 2049.94 324.145 Q2044.41 324.145 2042 324.317 L2042 322.51 L2043.23 322.51 Q2046.27 322.51 2046.99 321.993 Q2047.71 321.448 2047.71 319.726 L2047.71 314.619 L2032.07 314.619 M2033.73 312.811 L2048.05 312.811 L2048.05 290.89 L2033.73 312.811 Z" fill="#000000" fill-rule="nonzero" fill-opacity="1" /><path clip-path="url(#clip260)" d="M2128.13 269.811 Q2128.48 270.155 2128.48 270.643 Q2128.48 271.131 2128.13 271.475 Q2127.79 271.819 2127.3 271.819 L2090.52 271.819 Q2090.03 271.819 2089.68 271.475 Q2089.34 271.131 2089.34 270.643 Q2089.34 270.155 2089.68 269.811 Q2090.03 269.466 2090.52 269.466 L2127.3 269.466 Q2127.79 269.466 2128.13 269.811 Z" fill="#000000" fill-rule="nonzero" fill-opacity="1" /><path clip-path="url(#clip260)" d="M2244.19 232.089 Q2244.19 234.097 2241.32 234.097 L2234.61 234.097 Q2233.57 238.86 2233.57 243.451 Q2233.57 248.931 2235.27 253.149 Q2235.61 253.981 2235.61 254.44 Q2235.61 255.301 2234.84 255.989 Q2234.09 256.678 2233.2 256.678 Q2232.45 256.678 2231.97 256.104 Q2231.51 255.53 2231.11 253.723 Q2230.62 251.6 2230.62 249.247 Q2230.62 246.435 2231.08 243.738 Q2231.54 241.012 2233.09 234.097 L2226.46 234.097 L2223.16 247.095 Q2221.98 251.485 2221.58 252.833 Q2221.32 253.637 2221.24 253.895 Q2221.15 254.153 2220.89 254.784 Q2220.66 255.387 2220.49 255.616 Q2220.32 255.817 2220.03 256.133 Q2219.74 256.477 2219.4 256.563 Q2219.06 256.678 2218.63 256.678 Q2217.97 256.678 2217.45 256.248 Q2216.93 255.846 2216.93 255.071 Q2216.93 254.555 2217.39 253.665 Q2222.84 241.901 2224.91 234.097 L2221.58 234.097 Q2216.99 234.097 2214.12 238.631 Q2213.66 239.233 2213.4 239.29 Q2213.29 239.319 2213.17 239.319 Q2212.86 239.319 2212.66 239.176 Q2212.48 239.032 2212.48 238.889 L2212.46 238.745 Q2212.46 238.573 2212.89 237.798 Q2213.35 236.995 2214.21 235.761 Q2215.1 234.528 2216.04 233.466 Q2216.96 232.49 2217.85 231.888 Q2218.77 231.257 2219.63 231.027 Q2220.49 230.797 2220.98 230.74 Q2221.47 230.683 2222.15 230.683 L2241.84 230.683 Q2242.58 230.683 2242.99 230.74 Q2243.39 230.769 2243.79 231.113 Q2244.19 231.429 2244.19 232.089 Z" fill="#000000" fill-rule="nonzero" fill-opacity="1" /><path clip-path="url(#clip260)" d="M2163.46 272.354 L2299.86 272.354 L2299.86 269.218 L2163.46 269.218  Z" fill="#000000" fill-rule="evenodd" fill-opacity="1"/>
<path clip-path="url(#clip260)" d="M2199.01 308.395 Q2199.01 307.448 2198.75 306.673 Q2198.52 305.87 2198.15 305.325 Q2197.8 304.751 2197.14 304.32 Q2196.48 303.861 2195.94 303.574 Q2195.39 303.288 2194.47 303.115 Q2193.55 302.915 2192.95 302.828 Q2192.35 302.714 2191.32 302.656 Q2190.28 302.599 2189.77 302.599 Q2189.28 302.599 2188.3 302.599 Q2185.23 302.599 2184.72 302.656 Q2183.94 302.771 2183.66 303.23 Q2183.37 303.661 2183.08 304.837 L2179.27 320.159 L2185.84 320.159 Q2189.42 320.159 2191.89 319.155 Q2194.36 318.15 2195.76 316.744 Q2197.31 315.195 2198.15 312.699 Q2199.01 310.202 2199.01 308.395 M2205.4 335.452 Q2205.4 335.767 2205.15 336.485 Q2204.92 337.202 2204.34 338.206 Q2203.77 339.182 2202.99 340.071 Q2202.22 340.961 2200.99 341.563 Q2199.75 342.195 2198.35 342.195 Q2198 342.195 2197.66 342.166 Q2197.31 342.166 2196.45 342.022 Q2195.62 341.908 2194.93 341.678 Q2194.24 341.477 2193.38 340.989 Q2192.52 340.53 2191.92 339.899 Q2191.35 339.239 2190.94 338.206 Q2190.54 337.145 2190.54 335.854 Q2190.54 334.706 2191.49 330.861 Q2192.32 327.59 2192.32 326.787 Q2192.32 325.897 2192.03 325.065 Q2191.78 324.233 2191.12 323.372 Q2190.48 322.512 2189.14 321.995 Q2187.79 321.45 2185.89 321.45 L2178.92 321.45 L2175.02 337.03 Q2175.02 337.059 2174.93 337.46 Q2174.85 337.833 2174.85 338.034 Q2174.85 338.407 2175.08 338.637 Q2175.33 338.866 2175.97 338.981 Q2176.6 339.067 2177.09 339.096 Q2177.6 339.096 2178.66 339.096 Q2179.98 339.096 2180.21 339.325 Q2180.33 339.469 2180.33 339.727 Q2180.33 340.129 2180.21 340.416 Q2180.13 340.674 2179.9 340.76 Q2179.7 340.846 2179.55 340.875 Q2179.41 340.903 2179.15 340.903 L2171.69 340.731 L2164.29 340.903 Q2163.46 340.903 2163.46 340.243 Q2163.46 339.67 2163.66 339.44 Q2163.86 339.182 2164.12 339.153 Q2164.37 339.096 2165.03 339.096 Q2166.47 339.096 2167.33 339.01 Q2168.19 338.924 2168.74 338.809 Q2169.31 338.665 2169.6 338.264 Q2169.91 337.862 2170.06 337.518 Q2170.2 337.145 2170.4 336.313 L2178.26 304.751 Q2178.49 303.804 2178.49 303.661 Q2178.49 303.115 2178.15 302.972 Q2177.83 302.8 2176.91 302.714 L2174.68 302.599 Q2173.99 302.599 2173.7 302.57 Q2173.44 302.542 2173.24 302.398 Q2173.04 302.255 2173.04 301.939 Q2173.04 301.136 2173.38 300.963 Q2173.73 300.763 2174.73 300.763 L2191.49 300.763 Q2197.2 300.763 2200.81 303.259 Q2204.46 305.755 2204.46 309.571 Q2204.46 311.293 2203.68 312.9 Q2202.91 314.506 2201.62 315.769 Q2200.35 317.031 2198.66 318.093 Q2196.97 319.126 2195.16 319.843 Q2193.38 320.532 2191.55 320.933 Q2192.35 321.22 2193.1 321.651 Q2193.87 322.081 2194.85 322.885 Q2195.85 323.688 2196.45 324.979 Q2197.06 326.27 2197.06 327.848 Q2197.06 328.967 2196.83 330.632 Q2196.25 335.366 2196.25 337.317 Q2196.25 339.182 2196.74 340.043 Q2197.23 340.903 2198.6 340.903 Q2199.95 340.903 2201.45 339.698 Q2202.97 338.465 2203.94 335.567 Q2204.17 334.735 2204.72 334.735 Q2204.74 334.735 2204.77 334.735 Q2204.83 334.735 2204.95 334.792 Q2205.06 334.821 2205.15 334.907 Q2205.26 334.964 2205.32 335.108 Q2205.4 335.251 2205.4 335.452 Z" fill="#000000" fill-rule="nonzero" fill-opacity="1" /><path clip-path="url(#clip260)" d="M2207.62 325.785 L2215.48 313.653 L2218.68 329.752 L2219.28 332.685 Q2219.42 331.918 2219.82 330.618 Q2220.25 329.285 2220.32 328.952 L2230.88 288.388 Q2230.95 288.122 2231.05 287.689 Q2231.18 287.222 2231.25 287.055 Q2231.31 286.889 2231.41 286.555 Q2231.51 286.222 2231.58 286.122 Q2231.65 285.989 2231.75 285.755 Q2231.85 285.522 2231.98 285.455 Q2232.11 285.389 2232.28 285.255 Q2232.45 285.122 2232.65 285.089 Q2232.88 285.055 2233.11 285.022 Q2233.35 284.989 2233.68 284.989 L2239.65 284.989 Q2241.75 284.989 2241.75 286.355 Q2241.75 287.722 2239.71 287.722 L2233.88 287.722 L2220.12 340.351 Q2219.92 341.118 2219.75 341.417 Q2219.62 341.717 2219.15 341.984 Q2218.68 342.251 2217.85 342.251 L2217.18 342.251 L2212.82 320.553 L2208.72 326.885 L2207.62 325.785 Z" fill="#000000" fill-rule="nonzero" fill-opacity="1" /><path clip-path="url(#clip260)" d="M2239.5 287.734 L2293.59 287.734 L2293.59 284.898 L2239.5 284.898  Z" fill="#000000" fill-rule="evenodd" fill-opacity="1"/>
<path clip-path="url(#clip260)" d="M2281.33 307.984 Q2281.33 307.037 2281.07 306.262 Q2280.84 305.459 2280.47 304.913 Q2280.12 304.34 2279.46 303.909 Q2278.8 303.45 2278.26 303.163 Q2277.71 302.876 2276.79 302.704 Q2275.87 302.503 2275.27 302.417 Q2274.67 302.302 2273.64 302.245 Q2272.6 302.188 2272.09 302.188 Q2271.6 302.188 2270.62 302.188 Q2267.55 302.188 2267.04 302.245 Q2266.26 302.36 2265.98 302.819 Q2265.69 303.249 2265.4 304.426 L2261.59 319.747 L2268.16 319.747 Q2271.74 319.747 2274.21 318.743 Q2276.68 317.739 2278.08 316.333 Q2279.63 314.784 2280.47 312.287 Q2281.33 309.791 2281.33 307.984 M2287.72 335.041 Q2287.72 335.356 2287.47 336.073 Q2287.24 336.791 2286.66 337.795 Q2286.09 338.771 2285.31 339.66 Q2284.54 340.55 2283.31 341.152 Q2282.07 341.783 2280.67 341.783 Q2280.32 341.783 2279.98 341.755 Q2279.63 341.755 2278.77 341.611 Q2277.94 341.496 2277.25 341.267 Q2276.56 341.066 2275.7 340.578 Q2274.84 340.119 2274.24 339.488 Q2273.67 338.828 2273.26 337.795 Q2272.86 336.733 2272.86 335.442 Q2272.86 334.295 2273.81 330.45 Q2274.64 327.179 2274.64 326.375 Q2274.64 325.486 2274.35 324.654 Q2274.1 323.822 2273.44 322.961 Q2272.8 322.1 2271.46 321.584 Q2270.11 321.039 2268.21 321.039 L2261.24 321.039 L2257.34 336.619 Q2257.34 336.647 2257.25 337.049 Q2257.17 337.422 2257.17 337.623 Q2257.17 337.996 2257.4 338.225 Q2257.66 338.455 2258.29 338.57 Q2258.92 338.656 2259.41 338.684 Q2259.92 338.684 2260.98 338.684 Q2262.3 338.684 2262.53 338.914 Q2262.65 339.057 2262.65 339.316 Q2262.65 339.717 2262.53 340.004 Q2262.45 340.263 2262.22 340.349 Q2262.02 340.435 2261.87 340.463 Q2261.73 340.492 2261.47 340.492 L2254.01 340.32 L2246.61 340.492 Q2245.78 340.492 2245.78 339.832 Q2245.78 339.258 2245.98 339.029 Q2246.18 338.771 2246.44 338.742 Q2246.69 338.684 2247.35 338.684 Q2248.79 338.684 2249.65 338.598 Q2250.51 338.512 2251.06 338.398 Q2251.63 338.254 2251.92 337.852 Q2252.23 337.451 2252.38 337.106 Q2252.52 336.733 2252.72 335.901 L2260.58 304.34 Q2260.81 303.393 2260.81 303.249 Q2260.81 302.704 2260.47 302.561 Q2260.15 302.388 2259.23 302.302 L2257 302.188 Q2256.31 302.188 2256.02 302.159 Q2255.76 302.13 2255.56 301.987 Q2255.36 301.843 2255.36 301.528 Q2255.36 300.724 2255.7 300.552 Q2256.05 300.351 2257.05 300.351 L2273.81 300.351 Q2279.52 300.351 2283.13 302.848 Q2286.78 305.344 2286.78 309.16 Q2286.78 310.881 2286 312.488 Q2285.23 314.095 2283.94 315.357 Q2282.67 316.62 2280.98 317.682 Q2279.29 318.715 2277.48 319.432 Q2275.7 320.12 2273.87 320.522 Q2274.67 320.809 2275.42 321.239 Q2276.19 321.67 2277.17 322.473 Q2278.17 323.277 2278.77 324.568 Q2279.38 325.859 2279.38 327.437 Q2279.38 328.556 2279.15 330.22 Q2278.57 334.954 2278.57 336.906 Q2278.57 338.771 2279.06 339.631 Q2279.55 340.492 2280.92 340.492 Q2282.27 340.492 2283.77 339.287 Q2285.29 338.053 2286.26 335.155 Q2286.49 334.323 2287.04 334.323 Q2287.06 334.323 2287.09 334.323 Q2287.15 334.323 2287.27 334.381 Q2287.38 334.409 2287.47 334.495 Q2287.58 334.553 2287.64 334.696 Q2287.72 334.84 2287.72 335.041 Z" fill="#000000" fill-rule="nonzero" fill-opacity="1" /><path clip-path="url(#clip260)" d="M2312.4 341.355 Q2312.4 340.807 2313.83 339.436 Q2331.93 321.006 2331.93 286.286 Q2331.93 251.456 2314.54 233.849 Q2312.4 231.819 2312.4 231.216 Q2312.4 230.119 2313.5 230.119 Q2314.27 230.119 2316.96 232.368 Q2319.7 234.617 2323.81 239.773 Q2327.98 244.929 2331.05 251.236 Q2338.46 266.54 2338.46 286.286 Q2338.46 305.264 2331.38 320.567 Q2328.37 326.985 2324.14 332.36 Q2319.92 337.735 2317.12 340.094 Q2314.32 342.452 2313.5 342.452 Q2312.4 342.452 2312.4 341.355 Z" fill="#000000" fill-rule="nonzero" fill-opacity="1" /></svg>
