<?xml version="1.0" encoding="utf-8"?>
<svg xmlns="http://www.w3.org/2000/svg" xmlns:xlink="http://www.w3.org/1999/xlink" width="600" height="400" viewBox="0 0 2400 1600">
<defs>
  <clipPath id="clip350">
    <rect x="0" y="0" width="2400" height="1600"/>
  </clipPath>
</defs>
<path clip-path="url(#clip350)" d="M0 1600 L2400 1600 L2400 0 L0 0  Z" fill="#ffffff" fill-rule="evenodd" fill-opacity="1"/>
<defs>
  <clipPath id="clip351">
    <rect x="480" y="0" width="1681" height="1600"/>
  </clipPath>
</defs>
<path clip-path="url(#clip350)" d="M156.112 1486.45 L2352.76 1486.45 L2352.76 47.2441 L156.112 47.2441  Z" fill="#ffffff" fill-rule="evenodd" fill-opacity="1"/>
<defs>
  <clipPath id="clip352">
    <rect x="156" y="47" width="2198" height="1440"/>
  </clipPath>
</defs>
<polyline clip-path="url(#clip352)" style="stroke:#000000; stroke-linecap:round; stroke-linejoin:round; stroke-width:4; stroke-opacity:1; fill:none" points="218.281,1284.92 2290.59,1284.92 "/>
<polyline clip-path="url(#clip352)" style="stroke:#000000; stroke-linecap:round; stroke-linejoin:round; stroke-width:4; stroke-opacity:1; fill:none" points="1124.91,1207.21 1383.95,1207.21 "/>
<polyline clip-path="url(#clip352)" style="stroke:#000000; stroke-linecap:round; stroke-linejoin:round; stroke-width:4; stroke-opacity:1; fill:none" points="1347.95,1189.21 1383.95,1207.21 1347.95,1225.21 "/>
<polyline clip-path="url(#clip352)" style="stroke:#000000; stroke-linecap:round; stroke-linejoin:round; stroke-width:4; stroke-opacity:1; fill:none" points="1383.95,1207.21 1124.91,1207.21 "/>
<polyline clip-path="url(#clip352)" style="stroke:#000000; stroke-linecap:round; stroke-linejoin:round; stroke-width:4; stroke-opacity:1; fill:none" points="2290.59,1284.92 218.281,248.77 "/>
<polyline clip-path="url(#clip352)" style="stroke:#000000; stroke-linecap:round; stroke-linejoin:round; stroke-width:4; stroke-opacity:1; fill:none" points="1335.53,894.276 1103.84,778.431 "/>
<polyline clip-path="url(#clip352)" style="stroke:#000000; stroke-linecap:round; stroke-linejoin:round; stroke-width:4; stroke-opacity:1; fill:none" points="1127.98,810.63 1103.84,778.431 1144.08,778.431 "/>
<polyline clip-path="url(#clip352)" style="stroke:#000000; stroke-linecap:round; stroke-linejoin:round; stroke-width:4; stroke-opacity:1; fill:none" points="1103.84,778.431 1335.53,894.276 "/>
<polyline clip-path="url(#clip352)" style="stroke:#000000; stroke-linecap:round; stroke-linejoin:round; stroke-width:4; stroke-opacity:1; fill:none" points="218.281,248.77 218.281,1284.92 "/>
<polyline clip-path="url(#clip352)" style="stroke:#000000; stroke-linecap:round; stroke-linejoin:round; stroke-width:4; stroke-opacity:1; fill:none" points="295.993,637.327 295.993,896.365 "/>
<polyline clip-path="url(#clip352)" style="stroke:#000000; stroke-linecap:round; stroke-linejoin:round; stroke-width:4; stroke-opacity:1; fill:none" points="313.993,860.365 295.993,896.365 277.993,860.365 "/>
<polyline clip-path="url(#clip352)" style="stroke:#000000; stroke-linecap:round; stroke-linejoin:round; stroke-width:4; stroke-opacity:1; fill:none" points="295.993,896.365 295.993,637.327 "/>
<polyline clip-path="url(#clip352)" style="stroke:#000000; stroke-linecap:round; stroke-linejoin:round; stroke-width:4; stroke-opacity:1; fill:none" points="218.281,248.77 2290.59,1284.92 "/>
<polyline clip-path="url(#clip352)" style="stroke:#000000; stroke-linecap:round; stroke-linejoin:round; stroke-width:4; stroke-opacity:1; fill:none" points="1173.34,639.416 1405.03,755.261 "/>
<polyline clip-path="url(#clip352)" style="stroke:#000000; stroke-linecap:round; stroke-linejoin:round; stroke-width:4; stroke-opacity:1; fill:none" points="1380.88,723.062 1405.03,755.261 1364.78,755.261 "/>
<polyline clip-path="url(#clip352)" style="stroke:#000000; stroke-linecap:round; stroke-linejoin:round; stroke-width:4; stroke-opacity:1; fill:none" points="1405.03,755.261 1173.34,639.416 "/>
<polyline clip-path="url(#clip352)" style="stroke:#000000; stroke-linecap:round; stroke-linejoin:round; stroke-width:4; stroke-opacity:1; fill:none" points="2290.59,1284.92 2290.59,248.77 "/>
<polyline clip-path="url(#clip352)" style="stroke:#000000; stroke-linecap:round; stroke-linejoin:round; stroke-width:4; stroke-opacity:1; fill:none" points="2212.88,896.365 2212.88,637.327 "/>
<polyline clip-path="url(#clip352)" style="stroke:#000000; stroke-linecap:round; stroke-linejoin:round; stroke-width:4; stroke-opacity:1; fill:none" points="2194.88,673.327 2212.88,637.327 2230.88,673.327 "/>
<polyline clip-path="url(#clip352)" style="stroke:#000000; stroke-linecap:round; stroke-linejoin:round; stroke-width:4; stroke-opacity:1; fill:none" points="2212.88,637.327 2212.88,896.365 "/>
<polyline clip-path="url(#clip352)" style="stroke:#000000; stroke-linecap:round; stroke-linejoin:round; stroke-width:4; stroke-opacity:1; fill:none" points="2290.59,248.77 218.281,248.77 "/>
<polyline clip-path="url(#clip352)" style="stroke:#000000; stroke-linecap:round; stroke-linejoin:round; stroke-width:4; stroke-opacity:1; fill:none" points="1383.95,326.481 1124.91,326.481 "/>
<polyline clip-path="url(#clip352)" style="stroke:#000000; stroke-linecap:round; stroke-linejoin:round; stroke-width:4; stroke-opacity:1; fill:none" points="1160.91,344.481 1124.91,326.481 1160.91,308.481 "/>
<polyline clip-path="url(#clip352)" style="stroke:#000000; stroke-linecap:round; stroke-linejoin:round; stroke-width:4; stroke-opacity:1; fill:none" points="1124.91,326.481 1383.95,326.481 "/>
<path clip-path="url(#clip350)" d="M919.311 900.133 Q919.311 900.912 919.147 901.567 L916.852 916.16 Q916.729 917.266 916.483 917.676 Q916.278 918.086 915.622 918.086 Q914.598 918.086 914.598 917.02 Q914.598 916.406 914.843 915.422 Q915.54 910.79 915.54 908.7 Q915.54 907.306 915.253 906.281 Q915.007 905.215 914.598 904.478 Q914.229 903.74 913.368 903.248 Q912.507 902.756 911.687 902.469 Q910.867 902.182 909.392 902.059 Q907.916 901.895 906.646 901.854 Q905.375 901.813 903.284 901.813 Q898.735 901.813 897.997 901.977 Q897.218 902.182 896.808 902.797 Q896.439 903.371 896.029 905.092 L884.88 949.648 L884.552 951.41 Q884.552 952.394 885.167 952.722 Q885.782 953.05 887.668 953.255 Q890.373 953.46 893.037 953.46 Q893.119 953.46 893.283 953.46 Q894.185 953.46 894.554 953.501 Q894.923 953.501 895.292 953.583 Q895.66 953.665 895.742 953.87 Q895.865 954.034 895.865 954.362 Q895.865 955.14 895.537 955.55 Q895.21 955.919 894.882 956.001 Q894.595 956.042 894.021 956.042 Q892.873 956.042 890.414 955.96 Q887.954 955.878 886.725 955.878 L879.757 955.796 L872.624 955.878 Q871.518 955.878 869.181 955.96 Q866.845 956.042 865.738 956.042 Q864.304 956.042 864.304 955.017 Q864.304 953.87 864.837 953.665 Q865.41 953.46 867.829 953.46 Q871.231 953.46 873.075 953.296 Q874.92 953.132 875.904 952.558 Q876.928 951.984 877.215 951.41 Q877.502 950.796 877.83 949.402 L889.102 904.601 Q889.43 903.617 889.43 902.838 Q889.43 902.428 889.307 902.264 Q889.225 902.1 888.692 901.977 Q888.159 901.813 887.053 901.813 L883.774 901.813 Q880.412 901.813 878.322 901.977 Q876.273 902.1 874.305 902.715 Q872.379 903.33 871.231 904.191 Q870.124 905.052 868.894 906.814 Q867.665 908.577 866.763 910.708 Q865.902 912.839 864.673 916.324 Q864.263 917.471 864.017 917.799 Q863.812 918.086 863.238 918.086 Q862.828 918.086 862.5 917.84 Q862.213 917.553 862.213 917.184 Q862.623 915.832 862.705 915.668 L867.747 900.871 Q868.157 899.682 868.526 899.477 Q868.935 899.231 870.452 899.231 L917.016 899.231 Q917.754 899.231 918 899.231 Q918.246 899.231 918.655 899.313 Q919.065 899.395 919.188 899.6 Q919.311 899.805 919.311 900.133 Z" fill="#000000" fill-rule="nonzero" fill-opacity="1" /><path clip-path="url(#clip350)" d="M927.72 945.758 L927.72 943.922 Q934.778 943.922 938.422 940.163 Q939.427 940.163 939.599 940.393 Q939.771 940.622 939.771 941.684 L939.771 974.651 Q939.771 976.402 940.632 976.947 Q941.492 977.492 945.251 977.492 L947.116 977.492 L947.116 979.3 Q945.05 979.128 937.59 979.128 Q930.13 979.128 928.093 979.3 L928.093 977.492 L929.958 977.492 Q933.659 977.492 934.549 976.976 Q935.438 976.43 935.438 974.651 L935.438 944.209 Q932.368 945.758 927.72 945.758 Z" fill="#000000" fill-rule="nonzero" fill-opacity="1" /><path clip-path="url(#clip350)" d="M1608.06 554.749 Q1608.06 555.527 1607.9 556.183 L1605.6 570.775 Q1605.48 571.882 1605.23 572.292 Q1605.03 572.702 1604.37 572.702 Q1603.35 572.702 1603.35 571.636 Q1603.35 571.021 1603.59 570.038 Q1604.29 565.406 1604.29 563.315 Q1604.29 561.922 1604 560.897 Q1603.76 559.831 1603.35 559.093 Q1602.98 558.356 1602.12 557.864 Q1601.26 557.372 1600.44 557.085 Q1599.62 556.798 1598.14 556.675 Q1596.67 556.511 1595.4 556.47 Q1594.13 556.429 1592.03 556.429 Q1587.49 556.429 1586.75 556.593 Q1585.97 556.798 1585.56 557.413 Q1585.19 557.987 1584.78 559.708 L1573.63 604.264 L1573.3 606.026 Q1573.3 607.01 1573.92 607.338 Q1574.53 607.666 1576.42 607.871 Q1579.12 608.076 1581.79 608.076 Q1581.87 608.076 1582.03 608.076 Q1582.94 608.076 1583.3 608.117 Q1583.67 608.117 1584.04 608.199 Q1584.41 608.281 1584.49 608.485 Q1584.62 608.649 1584.62 608.977 Q1584.62 609.756 1584.29 610.166 Q1583.96 610.535 1583.63 610.617 Q1583.35 610.658 1582.77 610.658 Q1581.62 610.658 1579.16 610.576 Q1576.7 610.494 1575.48 610.494 L1568.51 610.412 L1561.38 610.494 Q1560.27 610.494 1557.93 610.576 Q1555.6 610.658 1554.49 610.658 Q1553.05 610.658 1553.05 609.633 Q1553.05 608.485 1553.59 608.281 Q1554.16 608.076 1556.58 608.076 Q1559.98 608.076 1561.83 607.912 Q1563.67 607.748 1564.65 607.174 Q1565.68 606.6 1565.97 606.026 Q1566.25 605.411 1566.58 604.018 L1577.85 559.216 Q1578.18 558.233 1578.18 557.454 Q1578.18 557.044 1578.06 556.88 Q1577.98 556.716 1577.44 556.593 Q1576.91 556.429 1575.8 556.429 L1572.52 556.429 Q1569.16 556.429 1567.07 556.593 Q1565.02 556.716 1563.06 557.331 Q1561.13 557.946 1559.98 558.806 Q1558.87 559.667 1557.64 561.43 Q1556.42 563.192 1555.51 565.324 Q1554.65 567.455 1553.42 570.939 Q1553.01 572.087 1552.77 572.415 Q1552.56 572.702 1551.99 572.702 Q1551.58 572.702 1551.25 572.456 Q1550.96 572.169 1550.96 571.8 Q1551.37 570.447 1551.46 570.283 L1556.5 555.486 Q1556.91 554.298 1557.28 554.093 Q1557.69 553.847 1559.2 553.847 L1605.77 553.847 Q1606.5 553.847 1606.75 553.847 Q1607 553.847 1607.41 553.929 Q1607.82 554.011 1607.94 554.216 Q1608.06 554.421 1608.06 554.749 Z" fill="#000000" fill-rule="nonzero" fill-opacity="1" /><path clip-path="url(#clip350)" d="M1616.47 633.915 Q1616.47 632.854 1616.56 632.538 Q1616.67 632.223 1617.13 631.735 L1628.41 619.167 Q1634.58 612.224 1634.58 606.17 Q1634.58 602.239 1632.51 599.427 Q1630.47 596.615 1626.71 596.615 Q1624.13 596.615 1621.95 598.193 Q1619.77 599.771 1618.77 602.583 Q1618.94 602.526 1619.54 602.526 Q1621 602.526 1621.81 603.444 Q1622.64 604.362 1622.64 605.596 Q1622.64 607.174 1621.61 607.949 Q1620.6 608.695 1619.6 608.695 Q1619.2 608.695 1618.65 608.609 Q1618.13 608.523 1617.3 607.719 Q1616.47 606.887 1616.47 605.424 Q1616.47 601.321 1619.57 598.05 Q1622.7 594.779 1627.46 594.779 Q1632.85 594.779 1636.38 597.992 Q1639.94 601.177 1639.94 606.17 Q1639.94 607.92 1639.4 609.527 Q1638.88 611.105 1638.16 612.339 Q1637.47 613.572 1635.58 615.552 Q1633.69 617.532 1632.17 618.938 Q1630.64 620.344 1627.23 623.328 L1621 629.382 L1631.59 629.382 Q1636.76 629.382 1637.16 628.923 Q1637.73 628.091 1638.45 623.701 L1639.94 623.701 L1638.28 633.915 L1616.47 633.915 Z" fill="#000000" fill-rule="nonzero" fill-opacity="1" /><path clip-path="url(#clip350)" d="M133.909 126.198 Q133.909 124.845 133.54 123.739 Q133.212 122.591 132.679 121.812 Q132.187 120.992 131.244 120.377 Q130.302 119.722 129.523 119.312 Q128.744 118.902 127.432 118.656 Q126.121 118.369 125.26 118.246 Q124.399 118.082 122.924 118 Q121.448 117.918 120.71 117.918 Q120.013 117.918 118.62 117.918 Q114.234 117.918 113.496 118 Q112.389 118.164 111.979 118.82 Q111.569 119.435 111.16 121.115 L105.708 143.003 L115.095 143.003 Q120.218 143.003 123.743 141.569 Q127.268 140.134 129.277 138.126 Q131.49 135.912 132.679 132.346 Q133.909 128.78 133.909 126.198 M143.049 164.851 Q143.049 165.302 142.68 166.326 Q142.352 167.351 141.533 168.786 Q140.713 170.179 139.606 171.45 Q138.499 172.721 136.737 173.581 Q134.974 174.483 132.966 174.483 Q132.474 174.483 131.982 174.442 Q131.49 174.442 130.261 174.237 Q129.072 174.073 128.088 173.745 Q127.104 173.459 125.875 172.762 Q124.645 172.106 123.784 171.204 Q122.964 170.261 122.391 168.786 Q121.817 167.269 121.817 165.425 Q121.817 163.785 123.169 158.292 Q124.358 153.62 124.358 152.472 Q124.358 151.201 123.948 150.013 Q123.579 148.824 122.637 147.594 Q121.735 146.365 119.808 145.627 Q117.882 144.848 115.177 144.848 L105.216 144.848 L99.6416 167.105 Q99.6416 167.146 99.5186 167.72 Q99.3957 168.253 99.3957 168.54 Q99.3957 169.073 99.7236 169.401 Q100.092 169.728 100.994 169.892 Q101.896 170.015 102.593 170.056 Q103.331 170.056 104.847 170.056 Q106.733 170.056 107.061 170.384 Q107.225 170.589 107.225 170.958 Q107.225 171.532 107.061 171.942 Q106.938 172.311 106.61 172.434 Q106.323 172.557 106.118 172.598 Q105.913 172.639 105.544 172.639 L94.8868 172.393 L84.3116 172.639 Q83.1229 172.639 83.1229 171.696 Q83.1229 170.876 83.4098 170.548 Q83.6968 170.179 84.0657 170.138 Q84.4346 170.056 85.3773 170.056 Q87.4268 170.056 88.6565 169.933 Q89.8861 169.81 90.6649 169.647 Q91.4847 169.442 91.8946 168.868 Q92.3455 168.294 92.5505 167.802 Q92.7554 167.269 93.0423 166.08 L104.273 120.992 Q104.601 119.64 104.601 119.435 Q104.601 118.656 104.109 118.451 Q103.659 118.205 102.347 118.082 L99.1497 117.918 Q98.166 117.918 97.7561 117.877 Q97.3872 117.836 97.1003 117.631 Q96.8133 117.426 96.8133 116.975 Q96.8133 115.828 97.3052 115.582 Q97.7971 115.295 99.2317 115.295 L123.169 115.295 Q131.326 115.295 136.491 118.861 Q141.697 122.427 141.697 127.878 Q141.697 130.338 140.59 132.633 Q139.483 134.929 137.639 136.732 Q135.835 138.536 133.417 140.052 Q130.998 141.528 128.416 142.553 Q125.875 143.536 123.251 144.11 Q124.399 144.52 125.465 145.135 Q126.572 145.75 127.965 146.897 Q129.4 148.045 130.261 149.89 Q131.121 151.734 131.121 153.989 Q131.121 155.587 130.793 157.965 Q129.974 164.728 129.974 167.515 Q129.974 170.179 130.67 171.409 Q131.367 172.639 133.335 172.639 Q135.261 172.639 137.393 170.917 Q139.565 169.155 140.959 165.015 Q141.287 163.826 142.066 163.826 Q142.106 163.826 142.147 163.826 Q142.229 163.826 142.393 163.908 Q142.557 163.949 142.68 164.072 Q142.844 164.154 142.926 164.359 Q143.049 164.564 143.049 164.851 Z" fill="#000000" fill-rule="nonzero" fill-opacity="1" /></svg>
