<?xml version="1.0" encoding="utf-8"?>
<svg xmlns="http://www.w3.org/2000/svg" xmlns:xlink="http://www.w3.org/1999/xlink" width="600" height="400" viewBox="0 0 2400 1600">
<defs>
  <clipPath id="clip240">
    <rect x="0" y="0" width="2400" height="1600"/>
  </clipPath>
</defs>
<path clip-path="url(#clip240)" d="M0 1600 L2400 1600 L2400 0 L0 0  Z" fill="#ffffff" fill-rule="evenodd" fill-opacity="1"/>
<defs>
  <clipPath id="clip241">
    <rect x="480" y="0" width="1681" height="1600"/>
  </clipPath>
</defs>
<path clip-path="url(#clip240)" d="M112.177 1486.45 L2352.76 1486.45 L2352.76 47.2441 L112.177 47.2441  Z" fill="#ffffff" fill-rule="evenodd" fill-opacity="1"/>
<defs>
  <clipPath id="clip242">
    <rect x="112" y="47" width="2242" height="1440"/>
  </clipPath>
</defs>
<polyline clip-path="url(#clip242)" style="stroke:#000000; stroke-linecap:round; stroke-linejoin:round; stroke-width:4; stroke-opacity:1; fill:none" points="175.59,1295.28 1232.47,1295.28 "/>
<polyline clip-path="url(#clip242)" style="stroke:#000000; stroke-linecap:round; stroke-linejoin:round; stroke-width:4; stroke-opacity:1; fill:none" points="637.973,1255.65 770.083,1255.65 "/>
<polyline clip-path="url(#clip242)" style="stroke:#000000; stroke-linecap:round; stroke-linejoin:round; stroke-width:4; stroke-opacity:1; fill:none" points="734.083,1237.65 770.083,1255.65 734.083,1273.65 "/>
<polyline clip-path="url(#clip242)" style="stroke:#000000; stroke-linecap:round; stroke-linejoin:round; stroke-width:4; stroke-opacity:1; fill:none" points="770.083,1255.65 637.973,1255.65 "/>
<polyline clip-path="url(#clip242)" style="stroke:#000000; stroke-linecap:round; stroke-linejoin:round; stroke-width:4; stroke-opacity:1; fill:none" points="1232.47,1295.28 968.247,766.846 "/>
<polyline clip-path="url(#clip242)" style="stroke:#000000; stroke-linecap:round; stroke-linejoin:round; stroke-width:4; stroke-opacity:1; fill:none" points="1094.45,1107.87 1035.37,989.708 "/>
<polyline clip-path="url(#clip242)" style="stroke:#000000; stroke-linecap:round; stroke-linejoin:round; stroke-width:4; stroke-opacity:1; fill:none" points="1035.37,1029.96 1035.37,989.708 1067.57,1013.86 "/>
<polyline clip-path="url(#clip242)" style="stroke:#000000; stroke-linecap:round; stroke-linejoin:round; stroke-width:4; stroke-opacity:1; fill:none" points="1035.37,989.708 1094.45,1107.87 "/>
<polyline clip-path="url(#clip242)" style="stroke:#000000; stroke-linecap:round; stroke-linejoin:round; stroke-width:4; stroke-opacity:1; fill:none" points="968.247,766.846 175.59,1295.28 "/>
<polyline clip-path="url(#clip242)" style="stroke:#000000; stroke-linecap:round; stroke-linejoin:round; stroke-width:4; stroke-opacity:1; fill:none" points="648.864,1027.4 538.942,1100.68 "/>
<polyline clip-path="url(#clip242)" style="stroke:#000000; stroke-linecap:round; stroke-linejoin:round; stroke-width:4; stroke-opacity:1; fill:none" points="578.88,1095.69 538.942,1100.68 558.911,1065.74 "/>
<polyline clip-path="url(#clip242)" style="stroke:#000000; stroke-linecap:round; stroke-linejoin:round; stroke-width:4; stroke-opacity:1; fill:none" points="538.942,1100.68 648.864,1027.4 "/>
<polyline clip-path="url(#clip242)" style="stroke:#000000; stroke-linecap:round; stroke-linejoin:round; stroke-width:4; stroke-opacity:1; fill:none" points="1232.47,1295.28 2289.34,1295.28 "/>
<polyline clip-path="url(#clip242)" style="stroke:#000000; stroke-linecap:round; stroke-linejoin:round; stroke-width:4; stroke-opacity:1; fill:none" points="1694.85,1255.65 1826.96,1255.65 "/>
<polyline clip-path="url(#clip242)" style="stroke:#000000; stroke-linecap:round; stroke-linejoin:round; stroke-width:4; stroke-opacity:1; fill:none" points="1790.96,1237.65 1826.96,1255.65 1790.96,1273.65 "/>
<polyline clip-path="url(#clip242)" style="stroke:#000000; stroke-linecap:round; stroke-linejoin:round; stroke-width:4; stroke-opacity:1; fill:none" points="1826.96,1255.65 1694.85,1255.65 "/>
<polyline clip-path="url(#clip242)" style="stroke:#000000; stroke-linecap:round; stroke-linejoin:round; stroke-width:4; stroke-opacity:1; fill:none" points="2289.34,1295.28 2025.12,766.846 "/>
<polyline clip-path="url(#clip242)" style="stroke:#000000; stroke-linecap:round; stroke-linejoin:round; stroke-width:4; stroke-opacity:1; fill:none" points="2151.33,1107.87 2092.24,989.708 "/>
<polyline clip-path="url(#clip242)" style="stroke:#000000; stroke-linecap:round; stroke-linejoin:round; stroke-width:4; stroke-opacity:1; fill:none" points="2092.24,1029.96 2092.24,989.708 2124.44,1013.86 "/>
<polyline clip-path="url(#clip242)" style="stroke:#000000; stroke-linecap:round; stroke-linejoin:round; stroke-width:4; stroke-opacity:1; fill:none" points="2092.24,989.708 2151.33,1107.87 "/>
<polyline clip-path="url(#clip242)" style="stroke:#000000; stroke-linecap:round; stroke-linejoin:round; stroke-width:4; stroke-opacity:1; fill:none" points="2025.12,766.846 1232.47,1295.28 "/>
<polyline clip-path="url(#clip242)" style="stroke:#000000; stroke-linecap:round; stroke-linejoin:round; stroke-width:4; stroke-opacity:1; fill:none" points="1705.74,1027.4 1595.82,1100.68 "/>
<polyline clip-path="url(#clip242)" style="stroke:#000000; stroke-linecap:round; stroke-linejoin:round; stroke-width:4; stroke-opacity:1; fill:none" points="1635.76,1095.69 1595.82,1100.68 1615.79,1065.74 "/>
<polyline clip-path="url(#clip242)" style="stroke:#000000; stroke-linecap:round; stroke-linejoin:round; stroke-width:4; stroke-opacity:1; fill:none" points="1595.82,1100.68 1705.74,1027.4 "/>
<polyline clip-path="url(#clip242)" style="stroke:#000000; stroke-linecap:round; stroke-linejoin:round; stroke-width:4; stroke-opacity:1; fill:none" points="968.247,766.846 2025.12,766.846 "/>
<polyline clip-path="url(#clip242)" style="stroke:#000000; stroke-linecap:round; stroke-linejoin:round; stroke-width:4; stroke-opacity:1; fill:none" points="1430.63,727.213 1562.74,727.213 "/>
<polyline clip-path="url(#clip242)" style="stroke:#000000; stroke-linecap:round; stroke-linejoin:round; stroke-width:4; stroke-opacity:1; fill:none" points="1526.74,709.213 1562.74,727.213 1526.74,745.213 "/>
<polyline clip-path="url(#clip242)" style="stroke:#000000; stroke-linecap:round; stroke-linejoin:round; stroke-width:4; stroke-opacity:1; fill:none" points="1562.74,727.213 1430.63,727.213 "/>
<polyline clip-path="url(#clip242)" style="stroke:#000000; stroke-linecap:round; stroke-linejoin:round; stroke-width:4; stroke-opacity:1; fill:none" points="2025.12,766.846 1760.9,238.408 "/>
<polyline clip-path="url(#clip242)" style="stroke:#000000; stroke-linecap:round; stroke-linejoin:round; stroke-width:4; stroke-opacity:1; fill:none" points="1887.11,579.432 1828.03,461.27 "/>
<polyline clip-path="url(#clip242)" style="stroke:#000000; stroke-linecap:round; stroke-linejoin:round; stroke-width:4; stroke-opacity:1; fill:none" points="1828.03,501.519 1828.03,461.27 1860.22,485.419 "/>
<polyline clip-path="url(#clip242)" style="stroke:#000000; stroke-linecap:round; stroke-linejoin:round; stroke-width:4; stroke-opacity:1; fill:none" points="1828.03,461.27 1887.11,579.432 "/>
<polyline clip-path="url(#clip242)" style="stroke:#000000; stroke-linecap:round; stroke-linejoin:round; stroke-width:4; stroke-opacity:1; fill:none" points="1760.9,238.408 968.247,766.846 "/>
<polyline clip-path="url(#clip242)" style="stroke:#000000; stroke-linecap:round; stroke-linejoin:round; stroke-width:4; stroke-opacity:1; fill:none" points="1441.52,498.963 1331.6,572.244 "/>
<polyline clip-path="url(#clip242)" style="stroke:#000000; stroke-linecap:round; stroke-linejoin:round; stroke-width:4; stroke-opacity:1; fill:none" points="1371.54,567.252 1331.6,572.244 1351.57,537.298 "/>
<polyline clip-path="url(#clip242)" style="stroke:#000000; stroke-linecap:round; stroke-linejoin:round; stroke-width:4; stroke-opacity:1; fill:none" points="1331.6,572.244 1441.52,498.963 "/>
<polyline clip-path="url(#clip242)" style="stroke:#000000; stroke-linecap:round; stroke-linejoin:round; stroke-width:4; stroke-opacity:1; fill:none" points="968.247,766.846 1232.47,1295.28 "/>
<polyline clip-path="url(#clip242)" style="stroke:#000000; stroke-linecap:round; stroke-linejoin:round; stroke-width:4; stroke-opacity:1; fill:none" points="1106.27,954.26 1165.35,1072.42 "/>
<polyline clip-path="url(#clip242)" style="stroke:#000000; stroke-linecap:round; stroke-linejoin:round; stroke-width:4; stroke-opacity:1; fill:none" points="1165.35,1032.17 1165.35,1072.42 1133.15,1048.27 "/>
<polyline clip-path="url(#clip242)" style="stroke:#000000; stroke-linecap:round; stroke-linejoin:round; stroke-width:4; stroke-opacity:1; fill:none" points="1165.35,1072.42 1106.27,954.26 "/>
<polyline clip-path="url(#clip242)" style="stroke:#000000; stroke-linecap:round; stroke-linejoin:round; stroke-width:4; stroke-opacity:1; fill:none" points="1232.47,1295.28 2025.12,766.846 "/>
<polyline clip-path="url(#clip242)" style="stroke:#000000; stroke-linecap:round; stroke-linejoin:round; stroke-width:4; stroke-opacity:1; fill:none" points="1551.85,1034.73 1661.77,961.448 "/>
<polyline clip-path="url(#clip242)" style="stroke:#000000; stroke-linecap:round; stroke-linejoin:round; stroke-width:4; stroke-opacity:1; fill:none" points="1621.83,966.44 1661.77,961.448 1641.8,996.394 "/>
<polyline clip-path="url(#clip242)" style="stroke:#000000; stroke-linecap:round; stroke-linejoin:round; stroke-width:4; stroke-opacity:1; fill:none" points="1661.77,961.448 1551.85,1034.73 "/>
<polyline clip-path="url(#clip242)" style="stroke:#000000; stroke-linecap:round; stroke-linejoin:round; stroke-width:4; stroke-opacity:1; fill:none" points="2025.12,766.846 968.247,766.846 "/>
<polyline clip-path="url(#clip242)" style="stroke:#000000; stroke-linecap:round; stroke-linejoin:round; stroke-width:4; stroke-opacity:1; fill:none" points="1562.74,806.479 1430.63,806.479 "/>
<polyline clip-path="url(#clip242)" style="stroke:#000000; stroke-linecap:round; stroke-linejoin:round; stroke-width:4; stroke-opacity:1; fill:none" points="1466.63,824.479 1430.63,806.479 1466.63,788.479 "/>
<polyline clip-path="url(#clip242)" style="stroke:#000000; stroke-linecap:round; stroke-linejoin:round; stroke-width:4; stroke-opacity:1; fill:none" points="1430.63,806.479 1562.74,806.479 "/>
<path clip-path="url(#clip240)" d="M797.883 1093.3 Q797.883 1094.08 797.719 1094.73 L795.423 1109.33 Q795.3 1110.43 795.054 1110.84 Q794.85 1111.25 794.194 1111.25 Q793.169 1111.25 793.169 1110.19 Q793.169 1109.57 793.415 1108.59 Q794.112 1103.96 794.112 1101.87 Q794.112 1100.47 793.825 1099.45 Q793.579 1098.38 793.169 1097.64 Q792.8 1096.91 791.939 1096.41 Q791.079 1095.92 790.259 1095.64 Q789.439 1095.35 787.963 1095.23 Q786.488 1095.06 785.217 1095.02 Q783.946 1094.98 781.856 1094.98 Q777.306 1094.98 776.568 1095.14 Q775.79 1095.35 775.38 1095.96 Q775.011 1096.54 774.601 1098.26 L763.452 1142.81 L763.124 1144.58 Q763.124 1145.56 763.739 1145.89 Q764.353 1146.22 766.239 1146.42 Q768.944 1146.63 771.609 1146.63 Q771.691 1146.63 771.855 1146.63 Q772.756 1146.63 773.125 1146.67 Q773.494 1146.67 773.863 1146.75 Q774.232 1146.83 774.314 1147.04 Q774.437 1147.2 774.437 1147.53 Q774.437 1148.31 774.109 1148.72 Q773.781 1149.09 773.453 1149.17 Q773.166 1149.21 772.592 1149.21 Q771.445 1149.21 768.985 1149.13 Q766.526 1149.05 765.296 1149.05 L758.328 1148.96 L751.196 1149.05 Q750.089 1149.05 747.753 1149.13 Q745.416 1149.21 744.31 1149.21 Q742.875 1149.21 742.875 1148.18 Q742.875 1147.04 743.408 1146.83 Q743.982 1146.63 746.4 1146.63 Q749.802 1146.63 751.647 1146.46 Q753.491 1146.3 754.475 1145.73 Q755.5 1145.15 755.787 1144.58 Q756.074 1143.96 756.402 1142.57 L767.674 1097.77 Q768.002 1096.78 768.002 1096.01 Q768.002 1095.6 767.879 1095.43 Q767.797 1095.27 767.264 1095.14 Q766.731 1094.98 765.624 1094.98 L762.345 1094.98 Q758.984 1094.98 756.893 1095.14 Q754.844 1095.27 752.876 1095.88 Q750.95 1096.5 749.802 1097.36 Q748.696 1098.22 747.466 1099.98 Q746.236 1101.74 745.334 1103.88 Q744.474 1106.01 743.244 1109.49 Q742.834 1110.64 742.588 1110.97 Q742.383 1111.25 741.809 1111.25 Q741.4 1111.25 741.072 1111.01 Q740.785 1110.72 740.785 1110.35 Q741.195 1109 741.277 1108.83 L746.318 1094.04 Q746.728 1092.85 747.097 1092.64 Q747.507 1092.4 749.024 1092.4 L795.587 1092.4 Q796.325 1092.4 796.571 1092.4 Q796.817 1092.4 797.227 1092.48 Q797.637 1092.56 797.76 1092.77 Q797.883 1092.97 797.883 1093.3 Z" fill="#000000" fill-rule="nonzero" fill-opacity="1" /><path clip-path="url(#clip240)" d="M806.292 1071.03 L806.292 1069.19 Q813.35 1069.19 816.994 1065.44 Q817.998 1065.44 818.17 1065.67 Q818.342 1065.89 818.342 1066.96 L818.342 1099.92 Q818.342 1101.67 819.203 1102.22 Q820.064 1102.76 823.823 1102.76 L825.688 1102.76 L825.688 1104.57 Q823.622 1104.4 816.162 1104.4 Q808.702 1104.4 806.665 1104.57 L806.665 1102.76 L808.53 1102.76 Q812.231 1102.76 813.12 1102.25 Q814.01 1101.7 814.01 1099.92 L814.01 1069.48 Q810.94 1071.03 806.292 1071.03 Z" fill="#000000" fill-rule="nonzero" fill-opacity="1" /><path clip-path="url(#clip240)" d="M806.292 1138.93 L806.292 1137.09 Q813.35 1137.09 816.994 1133.33 Q817.998 1133.33 818.17 1133.56 Q818.342 1133.79 818.342 1134.85 L818.342 1167.82 Q818.342 1169.57 819.203 1170.11 Q820.064 1170.66 823.823 1170.66 L825.688 1170.66 L825.688 1172.47 Q823.622 1172.29 816.162 1172.29 Q808.702 1172.29 806.665 1172.47 L806.665 1170.66 L808.53 1170.66 Q812.231 1170.66 813.12 1170.14 Q814.01 1169.6 814.01 1167.82 L814.01 1137.38 Q810.94 1138.93 806.292 1138.93 Z" fill="#000000" fill-rule="nonzero" fill-opacity="1" /><path clip-path="url(#clip240)" d="M1854.76 1093.3 Q1854.76 1094.08 1854.6 1094.73 L1852.3 1109.33 Q1852.18 1110.43 1851.93 1110.84 Q1851.73 1111.25 1851.07 1111.25 Q1850.05 1111.25 1850.05 1110.19 Q1850.05 1109.57 1850.29 1108.59 Q1850.99 1103.96 1850.99 1101.87 Q1850.99 1100.47 1850.7 1099.45 Q1850.46 1098.38 1850.05 1097.64 Q1849.68 1096.91 1848.82 1096.41 Q1847.96 1095.92 1847.14 1095.64 Q1846.32 1095.35 1844.84 1095.23 Q1843.36 1095.06 1842.09 1095.02 Q1840.82 1094.98 1838.73 1094.98 Q1834.18 1094.98 1833.45 1095.14 Q1832.67 1095.35 1832.26 1095.96 Q1831.89 1096.54 1831.48 1098.26 L1820.33 1142.81 L1820 1144.58 Q1820 1145.56 1820.62 1145.89 Q1821.23 1146.22 1823.12 1146.42 Q1825.82 1146.63 1828.49 1146.63 Q1828.57 1146.63 1828.73 1146.63 Q1829.63 1146.63 1830 1146.67 Q1830.37 1146.67 1830.74 1146.75 Q1831.11 1146.83 1831.19 1147.04 Q1831.31 1147.2 1831.31 1147.53 Q1831.31 1148.31 1830.99 1148.72 Q1830.66 1149.09 1830.33 1149.17 Q1830.04 1149.21 1829.47 1149.21 Q1828.32 1149.21 1825.86 1149.13 Q1823.4 1149.05 1822.17 1149.05 L1815.2 1148.96 L1808.07 1149.05 Q1806.97 1149.05 1804.63 1149.13 Q1802.29 1149.21 1801.19 1149.21 Q1799.75 1149.21 1799.75 1148.18 Q1799.75 1147.04 1800.28 1146.83 Q1800.86 1146.63 1803.28 1146.63 Q1806.68 1146.63 1808.52 1146.46 Q1810.37 1146.3 1811.35 1145.73 Q1812.38 1145.15 1812.66 1144.58 Q1812.95 1143.96 1813.28 1142.57 L1824.55 1097.77 Q1824.88 1096.78 1824.88 1096.01 Q1824.88 1095.6 1824.76 1095.43 Q1824.67 1095.27 1824.14 1095.14 Q1823.61 1094.98 1822.5 1094.98 L1819.22 1094.98 Q1815.86 1094.98 1813.77 1095.14 Q1811.72 1095.27 1809.75 1095.88 Q1807.83 1096.5 1806.68 1097.36 Q1805.57 1098.22 1804.34 1099.98 Q1803.11 1101.74 1802.21 1103.88 Q1801.35 1106.01 1800.12 1109.49 Q1799.71 1110.64 1799.46 1110.97 Q1799.26 1111.25 1798.69 1111.25 Q1798.28 1111.25 1797.95 1111.01 Q1797.66 1110.72 1797.66 1110.35 Q1798.07 1109 1798.15 1108.83 L1803.19 1094.04 Q1803.6 1092.85 1803.97 1092.64 Q1804.38 1092.4 1805.9 1092.4 L1852.46 1092.4 Q1853.2 1092.4 1853.45 1092.4 Q1853.69 1092.4 1854.1 1092.48 Q1854.51 1092.56 1854.64 1092.77 Q1854.76 1092.97 1854.76 1093.3 Z" fill="#000000" fill-rule="nonzero" fill-opacity="1" /><path clip-path="url(#clip240)" d="M1863.17 1071.03 L1863.17 1069.19 Q1870.23 1069.19 1873.87 1065.44 Q1874.87 1065.44 1875.05 1065.67 Q1875.22 1065.89 1875.22 1066.96 L1875.22 1099.92 Q1875.22 1101.67 1876.08 1102.22 Q1876.94 1102.76 1880.7 1102.76 L1882.56 1102.76 L1882.56 1104.57 Q1880.5 1104.4 1873.04 1104.4 Q1865.58 1104.4 1863.54 1104.57 L1863.54 1102.76 L1865.41 1102.76 Q1869.11 1102.76 1870 1102.25 Q1870.89 1101.7 1870.89 1099.92 L1870.89 1069.48 Q1867.82 1071.03 1863.17 1071.03 Z" fill="#000000" fill-rule="nonzero" fill-opacity="1" /><path clip-path="url(#clip240)" d="M1863.17 1172.47 Q1863.17 1171.41 1863.25 1171.09 Q1863.37 1170.77 1863.83 1170.29 L1875.1 1157.72 Q1881.27 1150.78 1881.27 1144.72 Q1881.27 1140.79 1879.21 1137.98 Q1877.17 1135.17 1873.41 1135.17 Q1870.83 1135.17 1868.65 1136.74 Q1866.47 1138.32 1865.46 1141.13 Q1865.64 1141.08 1866.24 1141.08 Q1867.7 1141.08 1868.51 1142 Q1869.34 1142.91 1869.34 1144.15 Q1869.34 1145.73 1868.3 1146.5 Q1867.3 1147.25 1866.3 1147.25 Q1865.89 1147.25 1865.35 1147.16 Q1864.83 1147.07 1864 1146.27 Q1863.17 1145.44 1863.17 1143.98 Q1863.17 1139.87 1866.27 1136.6 Q1869.39 1133.33 1874.16 1133.33 Q1879.55 1133.33 1883.08 1136.54 Q1886.64 1139.73 1886.64 1144.72 Q1886.64 1146.47 1886.09 1148.08 Q1885.58 1149.66 1884.86 1150.89 Q1884.17 1152.12 1882.28 1154.1 Q1880.38 1156.08 1878.86 1157.49 Q1877.34 1158.9 1873.93 1161.88 L1867.7 1167.93 L1878.29 1167.93 Q1883.45 1167.93 1883.86 1167.47 Q1884.43 1166.64 1885.15 1162.25 L1886.64 1162.25 L1884.97 1172.47 L1863.17 1172.47 Z" fill="#000000" fill-rule="nonzero" fill-opacity="1" /><path clip-path="url(#clip240)" d="M1590.54 564.222 Q1590.54 565 1590.38 565.656 L1588.08 580.248 Q1587.96 581.355 1587.71 581.765 Q1587.51 582.175 1586.85 582.175 Q1585.83 582.175 1585.83 581.109 Q1585.83 580.494 1586.07 579.511 Q1586.77 574.879 1586.77 572.788 Q1586.77 571.395 1586.48 570.37 Q1586.24 569.304 1585.83 568.566 Q1585.46 567.829 1584.6 567.337 Q1583.74 566.845 1582.92 566.558 Q1582.1 566.271 1580.62 566.148 Q1579.15 565.984 1577.87 565.943 Q1576.6 565.902 1574.51 565.902 Q1569.96 565.902 1569.23 566.066 Q1568.45 566.271 1568.04 566.886 Q1567.67 567.46 1567.26 569.181 L1556.11 613.737 L1555.78 615.499 Q1555.78 616.483 1556.4 616.811 Q1557.01 617.139 1558.9 617.344 Q1561.6 617.549 1564.27 617.549 Q1564.35 617.549 1564.51 617.549 Q1565.41 617.549 1565.78 617.59 Q1566.15 617.59 1566.52 617.672 Q1566.89 617.754 1566.97 617.959 Q1567.09 618.122 1567.09 618.45 Q1567.09 619.229 1566.77 619.639 Q1566.44 620.008 1566.11 620.09 Q1565.82 620.131 1565.25 620.131 Q1564.1 620.131 1561.64 620.049 Q1559.18 619.967 1557.95 619.967 L1550.99 619.885 L1543.85 619.967 Q1542.75 619.967 1540.41 620.049 Q1538.07 620.131 1536.97 620.131 Q1535.53 620.131 1535.53 619.106 Q1535.53 617.959 1536.07 617.754 Q1536.64 617.549 1539.06 617.549 Q1542.46 617.549 1544.3 617.385 Q1546.15 617.221 1547.13 616.647 Q1548.16 616.073 1548.44 615.499 Q1548.73 614.884 1549.06 613.491 L1560.33 568.689 Q1560.66 567.706 1560.66 566.927 Q1560.66 566.517 1560.54 566.353 Q1560.45 566.189 1559.92 566.066 Q1559.39 565.902 1558.28 565.902 L1555 565.902 Q1551.64 565.902 1549.55 566.066 Q1547.5 566.189 1545.53 566.804 Q1543.61 567.419 1542.46 568.28 Q1541.35 569.14 1540.12 570.903 Q1538.89 572.665 1537.99 574.797 Q1537.13 576.928 1535.9 580.412 Q1535.49 581.56 1535.25 581.888 Q1535.04 582.175 1534.47 582.175 Q1534.06 582.175 1533.73 581.929 Q1533.44 581.642 1533.44 581.273 Q1533.85 579.92 1533.93 579.757 L1538.98 564.959 Q1539.39 563.771 1539.75 563.566 Q1540.16 563.32 1541.68 563.32 L1588.24 563.32 Q1588.98 563.32 1589.23 563.32 Q1589.47 563.32 1589.88 563.402 Q1590.29 563.484 1590.42 563.689 Q1590.54 563.894 1590.54 564.222 Z" fill="#000000" fill-rule="nonzero" fill-opacity="1" /><path clip-path="url(#clip240)" d="M1598.95 541.953 L1598.95 540.116 Q1606.01 540.116 1609.65 536.358 Q1610.66 536.358 1610.83 536.587 Q1611 536.817 1611 537.878 L1611 570.846 Q1611 572.596 1611.86 573.141 Q1612.72 573.686 1616.48 573.686 L1618.35 573.686 L1618.35 575.494 Q1616.28 575.322 1608.82 575.322 Q1601.36 575.322 1599.32 575.494 L1599.32 573.686 L1601.19 573.686 Q1604.89 573.686 1605.78 573.17 Q1606.67 572.625 1606.67 570.846 L1606.67 540.403 Q1603.6 541.953 1598.95 541.953 Z" fill="#000000" fill-rule="nonzero" fill-opacity="1" /><path clip-path="url(#clip240)" d="M1598.95 635.469 Q1598.95 633.719 1599.95 632.887 Q1600.96 632.055 1602.25 632.055 Q1603.6 632.055 1604.54 632.944 Q1605.52 633.805 1605.52 635.326 Q1605.52 636.961 1604.37 637.879 Q1603.25 638.798 1601.65 638.568 Q1603.05 640.921 1605.63 641.983 Q1608.25 643.044 1610.66 643.044 Q1613.18 643.044 1615.22 640.864 Q1617.28 638.683 1617.28 633.346 Q1617.28 628.813 1615.5 626.202 Q1613.75 623.591 1610.28 623.591 L1607.7 623.591 Q1606.81 623.591 1606.55 623.505 Q1606.29 623.418 1606.29 622.931 Q1606.29 622.357 1607.18 622.242 Q1608.07 622.242 1609.48 622.07 Q1612.89 621.955 1614.7 619 Q1616.34 616.245 1616.34 612.314 Q1616.34 608.728 1614.62 607.236 Q1612.92 605.715 1610.71 605.715 Q1608.65 605.715 1606.38 606.576 Q1604.11 607.437 1602.88 609.359 Q1606.52 609.359 1606.52 612.314 Q1606.52 613.606 1605.69 614.466 Q1604.89 615.298 1603.54 615.298 Q1602.25 615.298 1601.39 614.495 Q1600.53 613.663 1600.53 612.257 Q1600.53 608.9 1603.51 606.576 Q1606.52 604.252 1610.94 604.252 Q1615.3 604.252 1618.52 606.547 Q1621.76 608.843 1621.76 612.372 Q1621.76 615.844 1619.46 618.684 Q1617.17 621.525 1613.52 622.701 Q1618 623.591 1620.67 626.632 Q1623.34 629.645 1623.34 633.346 Q1623.34 637.937 1619.72 641.323 Q1616.11 644.68 1610.83 644.68 Q1605.95 644.68 1602.45 642.04 Q1598.95 639.4 1598.95 635.469 Z" fill="#000000" fill-rule="nonzero" fill-opacity="1" /><path clip-path="url(#clip240)" d="M1414.39 916.957 Q1414.39 917.736 1414.23 918.391 L1411.93 932.984 Q1411.81 934.09 1411.57 934.5 Q1411.36 934.91 1410.71 934.91 Q1409.68 934.91 1409.68 933.844 Q1409.68 933.23 1409.93 932.246 Q1410.62 927.614 1410.62 925.524 Q1410.62 924.13 1410.34 923.105 Q1410.09 922.039 1409.68 921.302 Q1409.31 920.564 1408.45 920.072 Q1407.59 919.58 1406.77 919.293 Q1405.95 919.006 1404.47 918.883 Q1403 918.719 1401.73 918.678 Q1400.46 918.637 1398.37 918.637 Q1393.82 918.637 1393.08 918.801 Q1392.3 919.006 1391.89 919.621 Q1391.52 920.195 1391.11 921.917 L1379.96 966.472 L1379.64 968.234 Q1379.64 969.218 1380.25 969.546 Q1380.86 969.874 1382.75 970.079 Q1385.46 970.284 1388.12 970.284 Q1388.2 970.284 1388.37 970.284 Q1389.27 970.284 1389.64 970.325 Q1390.01 970.325 1390.37 970.407 Q1390.74 970.489 1390.83 970.694 Q1390.95 970.858 1390.95 971.186 Q1390.95 971.964 1390.62 972.374 Q1390.29 972.743 1389.96 972.825 Q1389.68 972.866 1389.1 972.866 Q1387.96 972.866 1385.5 972.784 Q1383.04 972.702 1381.81 972.702 L1374.84 972.62 L1367.71 972.702 Q1366.6 972.702 1364.26 972.784 Q1361.93 972.866 1360.82 972.866 Q1359.39 972.866 1359.39 971.841 Q1359.39 970.694 1359.92 970.489 Q1360.49 970.284 1362.91 970.284 Q1366.31 970.284 1368.16 970.12 Q1370 969.956 1370.99 969.382 Q1372.01 968.808 1372.3 968.234 Q1372.59 967.62 1372.91 966.226 L1384.19 921.425 Q1384.51 920.441 1384.51 919.662 Q1384.51 919.252 1384.39 919.088 Q1384.31 918.924 1383.78 918.801 Q1383.24 918.637 1382.14 918.637 L1378.86 918.637 Q1375.5 918.637 1373.4 918.801 Q1371.36 918.924 1369.39 919.539 Q1367.46 920.154 1366.31 921.015 Q1365.21 921.876 1363.98 923.638 Q1362.75 925.401 1361.85 927.532 Q1360.99 929.663 1359.76 933.148 Q1359.35 934.295 1359.1 934.623 Q1358.89 934.91 1358.32 934.91 Q1357.91 934.91 1357.58 934.664 Q1357.3 934.377 1357.3 934.008 Q1357.71 932.656 1357.79 932.492 L1362.83 917.695 Q1363.24 916.506 1363.61 916.301 Q1364.02 916.055 1365.53 916.055 L1412.1 916.055 Q1412.84 916.055 1413.08 916.055 Q1413.33 916.055 1413.74 916.137 Q1414.15 916.219 1414.27 916.424 Q1414.39 916.629 1414.39 916.957 Z" fill="#000000" fill-rule="nonzero" fill-opacity="1" /><path clip-path="url(#clip240)" d="M1422.8 894.688 L1422.8 892.851 Q1429.86 892.851 1433.51 889.093 Q1434.51 889.093 1434.68 889.322 Q1434.85 889.552 1434.85 890.613 L1434.85 923.581 Q1434.85 925.331 1435.71 925.877 Q1436.58 926.422 1440.33 926.422 L1442.2 926.422 L1442.2 928.229 Q1440.13 928.057 1432.67 928.057 Q1425.21 928.057 1423.18 928.229 L1423.18 926.422 L1425.04 926.422 Q1428.74 926.422 1429.63 925.905 Q1430.52 925.36 1430.52 923.581 L1430.52 893.138 Q1427.45 894.688 1422.8 894.688 Z" fill="#000000" fill-rule="nonzero" fill-opacity="1" /><path clip-path="url(#clip240)" d="M1422.8 986.819 L1422.8 985.012 L1440.85 957.438 Q1441.31 956.721 1442.03 956.75 Q1442.69 956.75 1442.83 957.008 Q1442.97 957.266 1442.97 958.27 L1442.97 985.012 L1448.86 985.012 L1448.86 986.819 L1442.97 986.819 L1442.97 991.927 Q1442.97 993.619 1443.66 994.165 Q1444.38 994.71 1447.42 994.71 L1448.65 994.71 L1448.65 996.517 Q1446.24 996.345 1440.68 996.345 Q1435.14 996.345 1432.73 996.517 L1432.73 994.71 L1433.96 994.71 Q1437.01 994.71 1437.72 994.193 Q1438.44 993.648 1438.44 991.927 L1438.44 986.819 L1422.8 986.819 M1424.47 985.012 L1438.78 985.012 L1438.78 963.091 L1424.47 985.012 Z" fill="#000000" fill-rule="nonzero" fill-opacity="1" /></svg>
