<?xml version="1.0" encoding="utf-8"?>
<svg xmlns="http://www.w3.org/2000/svg" xmlns:xlink="http://www.w3.org/1999/xlink" width="600" height="400" viewBox="0 0 2400 1600">
<defs>
  <clipPath id="clip410">
    <rect x="0" y="0" width="2400" height="1600"/>
  </clipPath>
</defs>
<path clip-path="url(#clip410)" d="M0 1600 L2400 1600 L2400 0 L0 0  Z" fill="#ffffff" fill-rule="evenodd" fill-opacity="1"/>
<defs>
  <clipPath id="clip411">
    <rect x="480" y="0" width="1681" height="1600"/>
  </clipPath>
</defs>
<path clip-path="url(#clip410)" d="M257.204 1423.18 L2352.76 1423.18 L2352.76 47.2441 L257.204 47.2441  Z" fill="#ffffff" fill-rule="evenodd" fill-opacity="1"/>
<defs>
  <clipPath id="clip412">
    <rect x="257" y="47" width="2097" height="1377"/>
  </clipPath>
</defs>
<polyline clip-path="url(#clip412)" style="stroke:#000000; stroke-linecap:round; stroke-linejoin:round; stroke-width:4; stroke-opacity:1; fill:none" points="1820.03,340.291 1816.05,335.16 1812.03,330.069 1807.95,325.019 1803.82,320.01 1799.65,315.042 1795.42,310.117 1791.15,305.234 1786.82,300.394 1782.45,295.597 1778.03,290.844 1773.56,286.136 1769.05,281.473 1764.49,276.855 1759.88,272.283 1755.23,267.757 1750.53,263.278 1745.79,258.846 1741.01,254.462 1736.18,250.126 1731.3,245.838 1726.39,241.599 1721.43,237.41 1716.43,233.271 1711.39,229.181 1706.31,225.142 1701.19,221.155 1696.03,217.218 1690.83,213.334 1685.59,209.501 1680.32,205.722 1675,201.995 1669.65,198.321 1664.27,194.701 1658.84,191.135 1653.39,187.624 1647.89,184.167 1642.36,180.766 1636.8,177.42 1631.21,174.13 1625.58,170.895 1619.92,167.718 1614.23,164.597 1608.51,161.533 1602.76,158.526 1596.98,155.577 1591.17,152.686 1585.33,149.853 1579.46,147.079 1573.56,144.364 1567.64,141.708 1561.69,139.111 1555.72,136.573 1549.72,134.096 1543.7,131.679 1537.65,129.322 1531.58,127.025 1525.49,124.79 1519.37,122.615 1513.24,120.502 1507.08,118.45 1500.9,116.46 1494.7,114.532 1488.49,112.666 1482.25,110.862 1476,109.12 1469.73,107.441 1463.45,105.825 1457.14,104.272 1450.83,102.782 1444.5,101.355 1438.15,99.9915 1431.79,98.6916 1425.42,97.4553 1419.04,96.2828 1412.64,95.1741 1406.24,94.1295 1399.82,93.149 1393.4,92.2327 1386.96,91.3807 1380.52,90.5931 1374.07,89.8699 1367.61,89.2113 1361.15,88.6173 1354.68,88.0879 1348.21,87.6233 1341.73,87.2234 1335.25,86.8883 1328.76,86.618 1322.28,86.4126 1315.79,86.272 1309.3,86.1964 1302.81,86.1857 1296.32,86.2398 1289.83,86.3589 1283.34,86.5428 1276.86,86.7917 1270.37,87.1053 1263.89,87.4838 1257.42,87.927 1250.95,88.435 1244.48,89.0076 1238.02,89.6449 1231.57,90.3467 1225.13,91.113 1218.69,91.9437 1212.26,92.8387 1205.84,93.798 1199.43,94.8214 1193.04,95.9089 1186.65,97.0603 1180.27,98.2755 1173.91,99.5544 1167.56,100.897 1161.22,102.303 1154.9,103.772 1148.59,105.304 1142.3,106.9 1136.03,108.558 1129.77,110.278 1123.53,112.062 1117.31,113.907 1111.1,115.815 1104.92,117.785 1098.76,119.816 1092.61,121.909 1086.49,124.063 1080.39,126.279 1074.31,128.555 1068.26,130.892 1062.23,133.29 1056.22,135.747 1050.24,138.265 1044.28,140.842 1038.35,143.479 1032.45,146.174 1026.57,148.929 1020.72,151.743 1014.9,154.614 1009.11,157.544 1003.35,160.532 997.615,163.577 991.914,166.679 986.245,169.838 980.607,173.053 975.002,176.325 969.429,179.653 963.891,183.036 958.386,186.474 952.916,189.968 947.481,193.516 942.083,197.118 936.72,200.773 931.394,204.483 926.105,208.245 920.855,212.06 915.643,215.927 910.469,219.847 905.335,223.817 900.242,227.839 895.188,231.912 890.176,236.035 885.205,240.208 880.276,244.43 875.389,248.702 870.546,253.022 865.746,257.39 860.99,261.806 856.278,266.27 851.611,270.78 846.989,275.337 842.414,279.94 837.884,284.588 833.401,289.282 828.966,294.02 824.578,298.802 820.238,303.628 815.946,308.496 811.704,313.408 807.51,318.362 803.367,323.357 799.273,328.394 795.231,333.471 791.239,338.589 787.298,343.746 783.41,348.942 779.573,354.177 775.789,359.45 772.058,364.761 768.38,370.108 764.756,375.492 761.186,380.913 757.67,386.368 754.209,391.859 750.803,397.383 747.453,402.942 744.158,408.534 740.919,414.158 737.737,419.815 734.611,425.503 731.543,431.222 728.532,436.971 725.578,442.751 722.683,448.559 719.845,454.396 717.066,460.262 714.346,466.154 711.685,472.074 709.084,478.02 706.542,483.992 704.059,489.989 701.637,496.01 699.276,502.055 696.974,508.124 694.734,514.215 692.555,520.329 690.436,526.463 688.38,532.619 686.385,538.795 684.451,544.991 682.58,551.206 680.771,557.439 679.025,563.69 677.341,569.958 675.72,576.242 674.162,582.543 672.667,588.858 671.235,595.189 669.866,601.533 668.561,607.891 667.32,614.261 666.142,620.644 665.028,627.038 663.979,633.442 662.993,639.857 662.072,646.282 661.215,652.715 660.422,659.157 659.694,665.606 659.03,672.062 658.431,678.525 657.896,684.993 657.426,691.466 657.021,697.944 656.681,704.425 656.406,710.91 656.195,717.397 656.049,723.885 655.968,730.375 655.953,736.865 656.002,743.355 656.115,749.845 656.294,756.332 656.538,762.818 656.846,769.301 657.22,775.781 657.658,782.256 658.161,788.727 658.728,795.192 659.36,801.652 660.057,808.104 660.818,814.55 661.644,820.987 662.534,827.416 663.488,833.836 664.506,840.246 665.588,846.645 666.735,853.033 667.945,859.41 669.219,865.774 670.556,872.125 671.957,878.462 673.421,884.785 674.948,891.093 676.539,897.386 678.192,903.662 679.908,909.921 681.686,916.163 683.527,922.387 685.429,928.592 687.394,934.778 689.421,940.943 691.509,947.089 693.658,953.213 695.869,959.315 698.14,965.395 700.472,971.451 702.865,977.484 705.318,983.493 707.83,989.477 710.403,995.436 713.035,1001.37 715.726,1007.27 718.476,1013.15 721.285,1019 724.152,1024.83 727.077,1030.62 730.06,1036.39 733.1,1042.12 736.198,1047.82 739.352,1053.49 742.564,1059.13 745.831,1064.74 749.154,1070.32 752.533,1075.86 755.967,1081.37 759.456,1086.84 762.999,1092.28 766.597,1097.68 770.249,1103.04 773.954,1108.37 777.712,1113.66 781.523,1118.92 785.386,1124.13 789.301,1129.31 793.268,1134.45 797.286,1139.54 801.354,1144.6 805.473,1149.62 809.642,1154.59 813.861,1159.52 818.128,1164.41 822.445,1169.26 826.809,1174.06 831.221,1178.82 835.681,1183.54 840.188,1188.21 844.741,1192.83 849.34,1197.41 853.985,1201.95 858.675,1206.43 863.409,1210.87 868.188,1215.26 873.01,1219.61 877.876,1223.9 882.784,1228.15 887.734,1232.35 892.726,1236.49 897.76,1240.59 902.834,1244.64 907.948,1248.64 913.102,1252.58 918.295,1256.47 923.527,1260.31 928.797,1264.1 934.105,1267.84 939.45,1271.52 944.831,1275.15 950.248,1278.72 955.701,1282.24 961.189,1285.71 966.711,1289.12 972.266,1292.47 977.856,1295.77 983.478,1299.01 989.132,1302.2 994.817,1305.33 1000.53,1308.4 1006.28,1311.42 1012.06,1314.38 1017.86,1317.28 1023.7,1320.12 1029.56,1322.9 1035.45,1325.63 1041.37,1328.29 1047.31,1330.9 1053.28,1333.45 1059.28,1335.93 1065.3,1338.36 1071.34,1340.73 1077.41,1343.03 1083.5,1345.28 1089.61,1347.46 1095.74,1349.59 1101.9,1351.65 1108.07,1353.65 1114.27,1355.59 1120.48,1357.46 1126.71,1359.28 1132.96,1361.03 1139.23,1362.72 1145.51,1364.34 1151.81,1365.91 1158.12,1367.41 1164.45,1368.84 1170.8,1370.22 1177.15,1371.53 1183.52,1372.77 1189.9,1373.96 1196.3,1375.07 1202.7,1376.13 1209.11,1377.12 1215.54,1378.05 1221.97,1378.91 1228.41,1379.71 1234.86,1380.44 1241.32,1381.11 1247.78,1381.71 1254.25,1382.25 1260.72,1382.73 1267.2,1383.14 1273.68,1383.48 1280.16,1383.76 1286.65,1383.98 1293.14,1384.13 1299.63,1384.22 1306.12,1384.24 1312.61,1384.19 1319.1,1384.09 1325.58,1383.91 1332.07,1383.67 1338.55,1383.37 1345.03,1383 1351.51,1382.57 1357.98,1382.07 1364.45,1381.51 1370.91,1380.88 1377.36,1380.19 1383.81,1379.43 1390.24,1378.61 1396.67,1377.73 1403.09,1376.78 1409.5,1375.77 1415.9,1374.69 1422.29,1373.55 1428.67,1372.34 1435.04,1371.07 1441.39,1369.74 1447.73,1368.35 1454.05,1366.89 1460.36,1365.37 1466.65,1363.78 1472.93,1362.13 1479.19,1360.42 1485.43,1358.65 1491.66,1356.81 1497.87,1354.91 1504.05,1352.95 1510.22,1350.93 1516.37,1348.85 1522.49,1346.71 1528.6,1344.5 1534.68,1342.23 1540.74,1339.91 1546.77,1337.52 1552.78,1335.07 1558.77,1332.56 1564.73,1329.99 1570.67,1327.37 1576.57,1324.68 1582.45,1321.93 1588.31,1319.13 1594.13,1316.27 1599.93,1313.35 1605.7,1310.37 1611.43,1307.33 1617.14,1304.24 1622.81,1301.09 1628.46,1297.88 1634.07,1294.62 1639.64,1291.3 1645.19,1287.93 1650.7,1284.5 1656.17,1281.01 1661.61,1277.47 1667.02,1273.88 1672.39,1270.23 1677.72,1266.53 1683.01,1262.78 1688.27,1258.97 1693.49,1255.11 1698.67,1251.2 1703.81,1247.24 1708.91,1243.23 1713.97,1239.16 1718.99,1235.05 1723.96,1230.88 1728.9,1226.67 1733.79,1222.4 1738.64,1218.09 1743.45,1213.73 1748.21,1209.32 1752.93,1204.87 1757.61,1200.36 1762.24,1195.81 1766.82,1191.22 1771.36,1186.58 1775.85,1181.89 1780.29,1177.16 1784.68,1172.38 1789.03,1167.57 1793.33,1162.7 1797.58,1157.8 1801.78,1152.85 1805.93,1147.86 1810.04,1142.83 1814.09,1137.76 1818.09,1132.65 1822.04,1127.5 1825.93,1122.31 1829.78,1117.08 1833.57,1111.81 1837.31,1106.51 1841,1101.17 1844.63,1095.79 1848.21,1090.37 1851.73,1084.92 1855.2,1079.44 1858.62,1073.92 1861.98,1068.37 1865.28,1062.78 1868.53,1057.16 1871.72,1051.51 1874.85,1045.83 1877.93,1040.11 1880.95,1034.37 1883.91,1028.59 1886.82,1022.79 1889.66,1016.96 1892.45,1011.1 1895.18,1005.21 1897.85,999.292 1900.46,993.35 1903.02,987.382 1905.51,981.389 1907.94,975.372 1910.31,969.33 1912.62,963.265 1914.87,957.178 1917.06,951.068 1919.19,944.936 1921.26,938.784 1923.26,932.611 1925.2,926.418 1927.08,920.207 1928.9,913.977 1930.66,907.728 1932.35,901.463 1933.98,895.181 1935.55,888.883 1937.06,882.57 1938.5,876.242 1939.88,869.9 1941.19,863.544 1942.44,857.176 1943.63,850.795 1944.76,844.403 1945.82,838 1946.81,831.586 1947.74,825.163 1948.61,818.731 1949.41,812.291 1950.15,805.843 1950.83,799.388 1951.44,792.926 1951.98,786.459 1952.46,779.986 1952.88,773.509 1953.23,767.028 1953.51,760.544 1953.73,754.058 1953.89,747.57 1953.98,741.08 1954.01,734.59 1953.97,728.1 1953.87,721.61 1953.7,715.122 1953.46,708.636 1953.17,702.153 1952.8,695.672 1952.37,689.196 1951.88,682.725 1951.32,676.258 1950.7,669.798 1950.02,663.344 1949.27,656.898 1948.45,650.459 1947.57,644.028 1946.63,637.607 1945.62,631.196 1944.55,624.795 1943.41,618.404 1942.21,612.026 1940.95,605.66 1939.62,599.307 1938.23,592.967 1936.77,586.642 1935.26,580.332 1933.68,574.037 1932.03,567.758 1930.33,561.496 1928.56,555.251 1926.73,549.025 1924.84,542.816 1922.88,536.628 1920.86,530.459 1918.79,524.31 1916.65,518.183 1914.45,512.077 1912.18,505.994 1909.86,499.933 1907.48,493.896 1905.04,487.883 1902.53,481.895 1899.97,475.932 1897.35,469.996 1894.66,464.085 1891.92,458.202 1889.12,452.347 1886.27,446.519 1883.35,440.721 1880.38,434.952 1877.35,429.213 1874.26,423.505 1871.11,417.828 1867.91,412.183 1864.65,406.569 1861.34,400.989 "/>
<polyline clip-path="url(#clip412)" style="stroke:#000000; stroke-linecap:round; stroke-linejoin:round; stroke-width:4; stroke-opacity:1; fill:none" points="768.809,1100.94 769.175,1101.48 "/>
<polyline clip-path="url(#clip412)" style="stroke:#000000; stroke-linecap:round; stroke-linejoin:round; stroke-width:4; stroke-opacity:1; fill:none" points="763.739,1061.6 769.175,1101.48 734.009,1081.9 "/>
<polyline clip-path="url(#clip412)" style="stroke:#000000; stroke-linecap:round; stroke-linejoin:round; stroke-width:4; stroke-opacity:1; fill:none" points="769.175,1101.48 768.809,1100.94 "/>
<polyline clip-path="url(#clip412)" style="stroke:#000000; stroke-linecap:round; stroke-linejoin:round; stroke-width:4; stroke-opacity:1; fill:none" points="1860.62,399.795 1859.22,402.223 1857.81,404.651 1856.41,407.078 1855.01,409.506 1853.61,411.934 1852.21,414.362 1850.81,416.79 1849.4,419.218 1848,421.646 1846.6,424.074 1845.2,426.502 1843.8,428.93 1842.39,431.358 1840.99,433.786 1839.59,436.214 1838.19,438.642 1836.79,441.07 1835.39,443.498 1833.98,445.926 1832.58,448.354 1831.18,450.782 1829.78,453.21 1828.38,455.638 1826.97,458.066 1825.57,460.494 1824.17,462.922 1822.77,465.35 1821.37,467.778 1819.97,470.206 1818.56,472.633 1817.16,475.061 1815.76,477.489 1814.36,479.917 1812.96,482.345 1811.56,484.773 1810.15,487.201 1808.75,489.629 1807.35,492.057 1805.95,494.485 1804.55,496.913 1803.14,499.341 1801.74,501.769 1800.34,504.197 1798.94,506.625 1797.54,509.053 1796.14,511.481 1794.73,513.909 1793.33,516.337 1791.93,518.765 1790.53,521.193 1789.13,523.621 1787.72,526.049 1786.32,528.477 1784.92,530.905 1783.52,533.333 1782.12,535.761 1780.72,538.189 1779.31,540.616 1777.91,543.044 1776.51,545.472 1775.11,547.9 1773.71,550.328 1772.31,552.756 1770.9,555.184 1769.5,557.612 1768.1,560.04 1766.7,562.468 1765.3,564.896 1763.89,567.324 1762.49,569.752 1761.09,572.18 1759.69,574.608 1758.29,577.036 1756.89,579.464 1755.48,581.892 1754.08,584.32 1752.68,586.748 1751.28,589.176 1749.88,591.604 1748.47,594.032 1747.07,596.46 1745.67,598.888 1744.27,601.316 1742.87,603.744 1741.47,606.172 1740.06,608.599 1738.66,611.027 1737.26,613.455 1735.86,615.883 1734.46,618.311 1733.06,620.739 1731.65,623.167 1730.25,625.595 1728.85,628.023 1727.45,630.451 1726.05,632.879 1724.64,635.307 1723.24,637.735 1721.84,640.163 1720.44,642.591 "/>
<polyline clip-path="url(#clip412)" style="stroke:#000000; stroke-linecap:round; stroke-linejoin:round; stroke-width:4; stroke-opacity:1; fill:none" points="1790.53,521.193 1790.39,521.436 "/>
<polyline clip-path="url(#clip412)" style="stroke:#000000; stroke-linecap:round; stroke-linejoin:round; stroke-width:4; stroke-opacity:1; fill:none" points="1823.98,499.259 1790.39,521.436 1792.8,481.259 "/>
<polyline clip-path="url(#clip412)" style="stroke:#000000; stroke-linecap:round; stroke-linejoin:round; stroke-width:4; stroke-opacity:1; fill:none" points="1790.39,521.436 1790.53,521.193 "/>
<polyline clip-path="url(#clip412)" style="stroke:#000000; stroke-linecap:round; stroke-linejoin:round; stroke-width:4; stroke-opacity:1; fill:none" points="1720.44,642.591 1721.36,643.505 1722.27,644.428 1723.18,645.361 1724.07,646.302 1724.95,647.252 1725.83,648.211 1726.69,649.179 1727.55,650.155 1728.4,651.14 1729.23,652.133 1730.06,653.135 1730.87,654.144 1731.68,655.162 1732.47,656.188 1733.26,657.222 1734.03,658.263 1734.8,659.312 1735.55,660.369 1736.29,661.434 1737.03,662.505 1737.75,663.584 1738.46,664.67 1739.16,665.764 1739.85,666.864 1740.53,667.971 1741.19,669.084 1741.85,670.205 1742.49,671.331 1743.13,672.465 1743.75,673.604 1744.36,674.75 1744.96,675.901 1745.54,677.059 1746.12,678.222 1746.68,679.391 1747.24,680.566 1747.78,681.746 1748.31,682.932 1748.82,684.122 1749.33,685.318 1749.82,686.519 1750.3,687.725 1750.77,688.935 1751.23,690.15 1751.67,691.37 1752.1,692.594 1752.52,693.822 1752.93,695.054 1753.33,696.291 1753.71,697.531 1754.08,698.775 1754.44,700.023 1754.78,701.274 1755.12,702.528 1755.44,703.786 1755.75,705.047 1756.04,706.311 1756.32,707.578 1756.59,708.848 1756.85,710.12 1757.1,711.395 1757.33,712.672 1757.55,713.952 1757.75,715.233 1757.95,716.517 1758.13,717.802 1758.29,719.089 1758.45,720.378 1758.59,721.668 1758.72,722.96 1758.84,724.253 1758.94,725.547 1759.03,726.842 1759.11,728.137 1759.17,729.434 1759.22,730.731 1759.26,732.028 1759.29,733.326 1759.3,734.624 1759.3,735.922 1759.28,737.22 1759.26,738.518 1759.22,739.816 1759.16,741.113 1759.1,742.409 1759.02,743.705 1758.93,744.999 1758.83,746.293 1758.71,747.586 1758.58,748.878 1758.43,750.168 1758.28,751.456 1758.11,752.743 1757.93,754.029 1757.73,755.312 1757.53,756.593 1757.31,757.873 1757.07,759.15 1756.83,760.424 1756.57,761.696 1756.3,762.966 1756.01,764.232 1755.72,765.496 1755.41,766.757 1755.09,768.014 1754.75,769.268 1754.4,770.519 1754.05,771.767 1753.67,773.01 1753.29,774.25 1752.89,775.486 1752.48,776.718 1752.06,777.946 1751.63,779.169 1751.18,780.389 1750.73,781.603 1750.26,782.813 1749.77,784.018 1749.28,785.219 1748.77,786.414 1748.26,787.604 1747.73,788.789 1747.18,789.969 1746.63,791.143 1746.07,792.312 1745.49,793.474 1744.9,794.632 1744.3,795.783 1743.69,796.928 1743.07,798.066 1742.43,799.199 1741.79,800.325 1741.13,801.445 1740.46,802.558 1739.78,803.664 1739.09,804.764 1738.39,805.856 1737.68,806.942 1736.96,808.02 1736.22,809.091 1735.48,810.154 1734.72,811.21 1733.96,812.259 1733.18,813.3 1732.4,814.333 1731.6,815.358 1730.79,816.375 1729.98,817.384 1729.15,818.384 1728.31,819.377 1727.47,820.361 1726.61,821.336 1725.75,822.303 1724.87,823.261 1723.98,824.211 1723.09,825.151 1722.19,826.083 1721.27,827.005 1720.35,827.918 1719.42,828.822 1718.48,829.717 1717.53,830.602 1716.57,831.477 1715.6,832.343 1714.63,833.199 1713.64,834.046 1712.65,834.882 1711.65,835.709 1710.64,836.525 1709.62,837.332 1708.6,838.128 1707.56,838.914 1706.52,839.689 1705.48,840.454 1704.42,841.209 1703.36,841.953 1702.28,842.686 1701.21,843.409 1700.12,844.12 1699.03,844.821 1697.93,845.511 1696.82,846.19 1695.71,846.858 1694.59,847.514 1693.46,848.16 1692.33,848.794 1691.19,849.416 1690.05,850.028 1688.89,850.627 1687.74,851.216 1686.57,851.792 1685.41,852.357 1684.23,852.91 1683.05,853.452 1681.87,853.982 1680.68,854.499 1679.48,855.005 1678.28,855.499 1677.08,855.981 1675.87,856.451 1674.65,856.908 1673.43,857.354 1672.21,857.787 1670.98,858.208 1669.75,858.617 1668.51,859.013 1667.27,859.397 1666.03,859.769 1664.78,860.128 1663.53,860.475 1662.28,860.809 1661.02,861.13 1659.76,861.439 1658.49,861.735 1657.23,862.019 1655.96,862.29 1654.69,862.548 1653.41,862.794 1652.13,863.027 1650.85,863.247 1649.57,863.454 1648.29,863.648 1647,863.83 1645.72,863.999 1644.43,864.154 1643.14,864.297 1641.85,864.427 1640.55,864.544 1639.26,864.648 1637.97,864.74 1636.67,864.818 1635.37,864.883 1634.08,864.935 1632.78,864.975 1631.48,865.001 1630.18,865.015 1628.89,865.015 1627.59,865.002 1626.29,864.977 1624.99,864.938 1623.69,864.887 1622.4,864.822 1621.1,864.745 1619.81,864.655 1618.51,864.551 1617.22,864.435 1615.93,864.306 1614.64,864.164 1613.35,864.009 1612.06,863.841 1610.78,863.66 1609.49,863.466 1608.21,863.26 1606.93,863.041 1605.66,862.809 1604.38,862.564 1603.11,862.307 1601.84,862.036 1600.57,861.754 1599.31,861.458 1598.05,861.15 1596.79,860.829 1595.54,860.496 1594.28,860.15 1593.04,859.792 1591.79,859.421 1590.55,859.038 1589.32,858.642 1588.08,858.234 1586.86,857.814 1585.63,857.381 1584.41,856.937 1583.2,856.48 1581.99,856.011 1580.78,855.53 1579.58,855.037 1578.38,854.531 1577.19,854.014 1576.01,853.485 1574.83,852.945 1573.65,852.392 1572.49,851.828 1571.32,851.252 1570.16,850.665 1569.01,850.065 1567.87,849.455 1566.73,848.833 1565.59,848.2 1564.47,847.555 1563.35,846.899 1562.23,846.232 1561.13,845.554 1560.03,844.865 1558.93,844.165 1557.85,843.454 1556.77,842.732 1555.7,841.999 1554.63,841.256 1553.58,840.502 1552.53,839.738 1551.49,838.963 1550.45,838.178 1549.43,837.382 1548.41,836.576 1547.4,835.76 1546.4,834.934 1545.41,834.099 1544.42,833.253 1543.45,832.397 1542.48,831.532 1541.52,830.657 1540.57,829.772 1539.63,828.878 1538.7,827.975 1537.77,827.062 1536.86,826.141 1535.95,825.21 1535.06,824.27 1534.17,823.321 1533.3,822.364 1532.43,821.397 1531.57,820.422 1530.73,819.439 1529.89,818.447 1529.06,817.447 1528.24,816.438 1527.44,815.422 1526.64,814.397 1525.85,813.365 1525.08,812.324 1524.31,811.276 1523.55,810.221 1522.81,809.158 1522.08,808.087 1521.35,807.009 1520.64,805.924 1519.94,804.832 1519.25,803.733 1518.57,802.627 1517.9,801.515 1517.24,800.396 1516.6,799.27 1515.96,798.138 1515.34,796.999 1514.72,795.855 1514.12,794.704 1513.53,793.547 1512.96,792.385 1512.39,791.217 1511.84,790.043 1511.29,788.863 1510.76,787.679 1510.25,786.489 1509.74,785.294 1509.24,784.094 1508.76,782.889 1508.29,781.679 1507.83,780.465 1507.39,779.246 1506.95,778.023 1506.53,776.795 1506.12,775.564 1505.72,774.328 1505.34,773.088 1504.96,771.845 1504.6,770.598 1504.26,769.347 1503.92,768.093 1503.6,766.836 1503.29,765.575 1502.99,764.312 1502.71,763.045 1502.44,761.776 1502.18,760.504 1501.93,759.23 1501.7,757.953 1501.47,756.674 1501.27,755.392 1501.07,754.109 1500.89,752.824 1500.72,751.537 1500.56,750.249 1500.42,748.958 1500.29,747.667 1500.17,746.374 1500.06,745.081 1499.97,743.786 1499.89,742.49 1499.83,741.194 1499.77,739.897 1499.73,738.599 1499.7,737.302 1499.69,736.004 1499.69,734.706 1499.7,733.408 1499.72,732.11 1499.76,730.812 1499.81,729.515 1499.88,728.219 1499.95,726.923 1500.04,725.628 1500.14,724.334 1500.26,723.041 1500.39,721.749 1500.53,720.459 1500.68,719.17 1500.85,717.883 1501.03,716.597 1501.22,715.314 1501.43,714.032 1501.65,712.752 1501.88,711.475 1502.12,710.2 1502.38,708.928 1502.65,707.658 1502.93,706.391 1503.22,705.126 1503.53,703.865 1503.85,702.607 1504.18,701.352 1504.53,700.101 1504.88,698.853 1505.25,697.609 1505.64,696.368 1506.03,695.132 1506.44,693.899 1506.86,692.671 1507.29,691.446 1507.73,690.227 1508.19,689.011 1508.66,687.8 1509.14,686.594 1509.63,685.393 1510.13,684.197 1510.65,683.006 1511.18,681.82 1511.72,680.64 1512.27,679.465 1512.83,678.295 1513.41,677.132 1513.99,675.974 1514.59,674.822 1515.2,673.676 1515.82,672.536 1516.45,671.402 1517.1,670.275 1517.75,669.154 1518.42,668.04 1519.1,666.933 1519.78,665.832 1520.48,664.739 1521.19,663.652 1521.91,662.573 1522.65,661.501 1523.39,660.436 1524.14,659.379 1524.91,658.329 1525.68,657.287 1526.46,656.253 1527.26,655.226 1528.06,654.208 1528.88,653.198 1529.7,652.196 1530.54,651.202 1531.38,650.217 1532.24,649.24 1533.1,648.272 1533.98,647.312 1534.86,646.361 1535.75,645.419 1536.66,644.486 1537.57,643.563 1538.49,642.648 1539.42,641.743 1540.36,640.847 1541.31,639.96 1542.26,639.083 1543.23,638.215 1544.2,637.358 1545.19,636.51 1546.18,635.672 1547.18,634.843 1548.19,634.025 1549.2,633.217 1550.22,632.419 1551.26,631.632 1552.3,630.855 1553.34,630.088 1554.4,629.332 1555.46,628.586 1556.53,627.851 1557.61,627.127 1558.69,626.413 1559.78,625.711 1560.88,625.019 1561.99,624.339 1563.1,623.669 1564.22,623.011 1565.34,622.364 1566.48,621.728 1567.61,621.103 1568.76,620.49 1569.91,619.889 1571.06,619.299 1572.23,618.72 1573.39,618.153 1574.57,617.598 1575.75,617.055 1576.93,616.523 1578.12,616.004 1579.31,615.496 1580.51,615 1581.72,614.516 1582.93,614.045 1584.14,613.585 1585.36,613.138 1586.58,612.702 1587.81,612.279 1589.04,611.869 1590.28,611.47 1591.52,611.084 1592.76,610.711 1594.01,610.35 1595.26,610.001 1596.51,609.665 1597.77,609.342 1599.03,609.031 1600.29,608.732 1601.56,608.447 1602.83,608.174 1604.1,607.913 1605.37,607.666 1606.65,607.431 1607.93,607.209 1609.21,607 1610.49,606.803 1611.78,606.62 1613.06,606.449 1614.35,606.291 1615.64,606.146 1616.93,606.014 1618.23,605.895 1619.52,605.789 1620.82,605.695 1622.11,605.615 1623.41,605.548 1624.7,605.493 1626,605.452 1627.3,605.423 1628.6,605.408 1629.89,605.406 1631.19,605.416 1632.49,605.44 1633.79,605.476 1635.09,605.525 1636.38,605.588 1637.68,605.663 1638.97,605.752 1640.27,605.853 1641.56,605.967 1642.85,606.094 1644.14,606.234 1645.43,606.387 1646.72,606.553 1648,606.732 1649.29,606.923 1650.57,607.127 1651.85,607.345 1653.13,607.575 1654.4,607.817 1655.68,608.073 1656.95,608.341 1658.21,608.622 1659.48,608.915 1660.74,609.221 1662,609.54 1663.25,609.872 "/>
<polyline clip-path="url(#clip412)" style="stroke:#000000; stroke-linecap:round; stroke-linejoin:round; stroke-width:4; stroke-opacity:1; fill:none" points="1564.59,847.626 1564.48,847.561 "/>
<polyline clip-path="url(#clip412)" style="stroke:#000000; stroke-linecap:round; stroke-linejoin:round; stroke-width:4; stroke-opacity:1; fill:none" points="1586.64,881.16 1564.48,847.561 1604.65,849.992 "/>
<polyline clip-path="url(#clip412)" style="stroke:#000000; stroke-linecap:round; stroke-linejoin:round; stroke-width:4; stroke-opacity:1; fill:none" points="1564.48,847.561 1564.59,847.626 "/>
<polyline clip-path="url(#clip412)" style="stroke:#000000; stroke-linecap:round; stroke-linejoin:round; stroke-width:4; stroke-opacity:1; fill:none" points="1664.23,610.14 1665.79,607.441 1667.35,604.743 1668.91,602.044 1670.46,599.346 1672.02,596.647 1673.58,593.949 1675.14,591.25 1676.7,588.552 1678.25,585.853 1679.81,583.155 1681.37,580.456 1682.93,577.758 1684.49,575.059 1686.04,572.361 1687.6,569.662 1689.16,566.964 1690.72,564.265 1692.28,561.567 1693.83,558.868 1695.39,556.17 1696.95,553.471 1698.51,550.773 1700.06,548.074 1701.62,545.376 1703.18,542.677 1704.74,539.979 1706.3,537.28 1707.85,534.582 1709.41,531.883 1710.97,529.185 1712.53,526.486 1714.09,523.788 1715.64,521.089 1717.2,518.391 1718.76,515.692 1720.32,512.994 1721.88,510.295 1723.43,507.597 1724.99,504.898 1726.55,502.2 1728.11,499.501 1729.67,496.803 1731.22,494.104 1732.78,491.406 1734.34,488.708 1735.9,486.009 1737.46,483.311 1739.01,480.612 1740.57,477.914 1742.13,475.215 1743.69,472.517 1745.25,469.818 1746.8,467.12 1748.36,464.421 1749.92,461.723 1751.48,459.024 1753.04,456.326 1754.59,453.627 1756.15,450.929 1757.71,448.23 1759.27,445.532 1760.83,442.833 1762.38,440.135 1763.94,437.436 1765.5,434.738 1767.06,432.039 1768.62,429.341 1770.17,426.642 1771.73,423.944 1773.29,421.245 1774.85,418.547 1776.41,415.848 1777.96,413.15 1779.52,410.451 1781.08,407.753 1782.64,405.054 1784.2,402.356 1785.75,399.657 1787.31,396.959 1788.87,394.26 1790.43,391.562 1791.99,388.863 1793.54,386.165 1795.1,383.466 1796.66,380.768 1798.22,378.069 1799.78,375.371 1801.33,372.672 1802.89,369.974 1804.45,367.276 1806.01,364.577 1807.57,361.879 1809.12,359.18 1810.68,356.482 1812.24,353.783 1813.8,351.085 1815.35,348.386 1816.91,345.688 1818.47,342.989 1820.03,340.291 "/>
<polyline clip-path="url(#clip412)" style="stroke:#000000; stroke-linecap:round; stroke-linejoin:round; stroke-width:4; stroke-opacity:1; fill:none" points="1742.13,475.215 1742.29,474.945 "/>
<polyline clip-path="url(#clip412)" style="stroke:#000000; stroke-linecap:round; stroke-linejoin:round; stroke-width:4; stroke-opacity:1; fill:none" points="1708.7,497.122 1742.29,474.945 1739.87,515.122 "/>
<polyline clip-path="url(#clip412)" style="stroke:#000000; stroke-linecap:round; stroke-linejoin:round; stroke-width:4; stroke-opacity:1; fill:none" points="1742.29,474.945 1742.13,475.215 "/>
<circle clip-path="url(#clip412)" cx="1629.49" cy="735.211" r="7.2" fill="#000000" fill-rule="evenodd" fill-opacity="1" stroke="none"/>
<path clip-path="url(#clip410)" d="M1710.65 716.834 Q1710.65 717.121 1709.95 718.35 Q1709.3 719.539 1706.88 722.531 Q1704.46 725.523 1700.85 729.007 Q1699.5 730.36 1697.45 732.246 Q1695.4 734.131 1694.01 735.361 L1692.62 736.59 Q1687.29 741.099 1682.61 746.141 Q1682.94 746.018 1683.52 745.977 Q1684.09 745.895 1684.5 745.895 L1684.91 745.895 Q1687.04 745.895 1690.77 747.33 Q1694.05 748.395 1695.73 748.395 Q1697.37 748.395 1699.17 747.821 Q1700.98 747.248 1702.95 745.567 Q1704.91 743.887 1705.81 741.345 Q1705.98 740.935 1706.06 740.812 Q1706.14 740.648 1706.39 740.484 Q1706.63 740.279 1706.96 740.279 Q1707.41 740.279 1707.7 740.525 Q1707.99 740.771 1707.99 741.099 Q1707.99 741.837 1707.41 743.313 Q1706.88 744.788 1705.69 746.633 Q1704.54 748.477 1703.03 750.158 Q1701.55 751.797 1699.34 752.945 Q1697.12 754.052 1694.79 754.052 Q1693.11 754.052 1691.88 753.232 Q1690.65 752.453 1689.42 750.937 Q1687.74 749.01 1686.84 748.395 Q1685.93 747.739 1684.54 747.739 Q1680.81 747.739 1677.41 752.945 Q1677.04 753.683 1676.79 753.847 Q1676.59 754.052 1676.1 754.052 Q1675.07 754.011 1675.07 753.191 Q1675.07 752.863 1675.97 751.429 Q1676.92 749.953 1679.01 747.371 Q1681.14 744.788 1683.72 742.206 L1691.26 735.156 Q1699.63 728.106 1702.95 724.13 Q1701.55 724.13 1700.94 724.089 Q1700.36 724.048 1699.22 723.802 Q1698.07 723.515 1696.47 722.9 Q1692.74 721.629 1691.18 721.629 Q1690.77 721.629 1690.32 721.67 Q1689.87 721.711 1688.84 721.916 Q1687.86 722.121 1687.04 722.531 Q1686.22 722.9 1685.36 723.72 Q1684.5 724.499 1684.05 725.564 Q1683.93 725.892 1683.84 726.056 Q1683.76 726.22 1683.52 726.384 Q1683.31 726.507 1682.98 726.507 Q1682.49 726.507 1682.2 726.22 Q1681.96 725.933 1681.96 725.564 Q1681.96 724.826 1682.7 723.31 Q1683.43 721.793 1684.66 720.154 Q1685.89 718.473 1687.9 717.243 Q1689.91 716.014 1692.12 716.014 Q1693.44 716.014 1694.54 716.588 Q1695.69 717.161 1696.26 717.776 Q1696.88 718.35 1697.9 719.621 Q1698.76 720.605 1699.17 721.014 Q1699.58 721.424 1700.4 721.875 Q1701.26 722.285 1702.21 722.285 Q1703.77 722.285 1705.2 721.096 Q1706.63 719.867 1708.48 716.916 Q1708.97 716.014 1709.75 716.014 Q1710.65 716.014 1710.65 716.834 Z" fill="#000000" fill-rule="nonzero" fill-opacity="1" /><path clip-path="url(#clip410)" d="M1391.77 938.87 Q1391.77 939.198 1390.17 942.067 Q1387.5 947.355 1384.1 955.429 Q1380.7 963.504 1378.77 969.489 Q1378.36 970.923 1378.08 972.768 Q1377.34 978.424 1374.96 987.196 Q1374.14 989.942 1373.61 991.09 Q1373.08 992.238 1372.3 992.238 Q1371.19 992.238 1371.19 990.721 Q1371.19 989.205 1372.58 983.548 Q1374.02 977.892 1375.58 972.686 Q1376.56 969.817 1376.56 964.447 Q1376.56 962.726 1376.48 961.168 Q1376.4 959.61 1376.07 957.356 Q1375.74 955.102 1375.21 953.257 Q1374.68 951.413 1373.65 949.486 Q1372.63 947.519 1371.23 946.207 Q1369.84 944.854 1367.71 943.993 Q1365.62 943.133 1362.99 943.133 Q1362.34 943.133 1361.52 943.215 Q1360.74 943.256 1358.85 943.788 Q1357.01 944.321 1355.45 945.264 Q1353.89 946.166 1352.21 948.174 Q1350.53 950.183 1349.63 952.888 L1349.3 953.298 Q1348.77 953.298 1348.48 953.298 Q1348.24 953.257 1347.95 953.052 Q1347.7 952.847 1347.7 952.478 Q1347.7 951.617 1348.36 949.896 Q1349.06 948.174 1350.45 945.961 Q1351.89 943.748 1353.73 941.78 Q1355.62 939.813 1358.36 938.46 Q1361.11 937.107 1364.06 937.107 Q1371.64 937.107 1375.25 946.33 Q1378.41 954.159 1378.69 963.463 Q1385.25 946.945 1389.76 938.624 Q1390.01 938.009 1390.74 938.009 Q1391.77 938.05 1391.77 938.87 Z" fill="#000000" fill-rule="nonzero" fill-opacity="1" /><path clip-path="url(#clip410)" d="M1424 984.614 Q1424 985.217 1423.49 985.705 Q1423 986.193 1422.4 986.193 Q1422.05 986.193 1421.22 985.619 Q1418.84 983.955 1415.83 983.955 Q1413.13 983.955 1410.63 984.614 Q1408.14 985.274 1406.45 986.623 Q1404.78 987.943 1404.78 989.664 Q1404.78 991.816 1407.13 993.079 Q1409.57 991.96 1412.59 991.96 Q1413.56 991.96 1414.22 992.017 Q1414.91 992.075 1415.57 992.218 Q1416.23 992.361 1416.54 992.706 Q1416.89 993.021 1416.89 993.538 Q1416.89 995.374 1412.13 995.374 Q1409.03 995.374 1407.08 994.542 Q1404.58 995.776 1403.2 997.756 Q1401.83 999.735 1401.83 1001.43 Q1401.83 1002.89 1402.63 1003.95 Q1403.46 1005.01 1404.81 1005.53 Q1406.19 1006.05 1407.54 1006.28 Q1408.91 1006.48 1410.43 1006.48 Q1412.93 1006.48 1414.68 1006.16 Q1416.46 1005.82 1417.43 1005.19 Q1418.44 1004.56 1418.84 1004.13 Q1419.27 1003.67 1419.7 1002.95 Q1419.96 1002.55 1420.3 1002.55 Q1420.56 1002.55 1420.73 1002.72 Q1420.93 1002.86 1420.93 1003.12 Q1420.93 1003.44 1420.53 1004.1 Q1420.16 1004.76 1419.24 1005.65 Q1418.35 1006.51 1417.12 1007.31 Q1415.91 1008.08 1413.99 1008.63 Q1412.07 1009.18 1409.89 1009.18 Q1405.44 1009.18 1402.86 1006.99 Q1400.3 1004.81 1400.3 1001.77 Q1400.3 999.649 1401.71 997.469 Q1403.15 995.259 1405.67 993.853 Q1403.32 992.103 1403.32 989.664 Q1403.32 987.484 1405.15 985.533 Q1407.02 983.582 1410.03 982.434 Q1413.07 981.257 1416.4 981.257 Q1418.27 981.257 1420.1 981.889 Q1421.94 982.491 1422.97 983.266 Q1424 984.041 1424 984.614 M1415.37 993.595 Q1414.11 993.251 1412.59 993.251 Q1410.52 993.251 1409 993.767 Q1410.23 994.083 1412.13 994.083 Q1413.7 994.083 1414.16 993.997 Q1414.65 993.911 1415.37 993.595 Z" fill="#000000" fill-rule="nonzero" fill-opacity="1" /><path clip-path="url(#clip410)" d="M1510.21 967.89 Q1510.7 968.382 1510.7 969.079 Q1510.7 969.776 1510.21 970.268 Q1509.71 970.759 1509.02 970.759 L1484.26 970.759 Q1479.26 970.759 1474.67 968.833 Q1470.12 966.865 1466.84 963.586 Q1463.56 960.307 1461.59 955.757 Q1459.67 951.167 1459.67 946.166 Q1459.67 941.165 1461.59 936.615 Q1463.56 932.025 1466.84 928.745 Q1470.12 925.466 1474.67 923.54 Q1479.26 921.572 1484.26 921.572 L1509.02 921.572 Q1509.71 921.572 1510.21 922.064 Q1510.7 922.556 1510.7 923.253 Q1510.7 923.95 1510.21 924.442 Q1509.71 924.933 1509.02 924.933 L1484.26 924.933 Q1475.45 924.933 1469.22 931.164 Q1463.03 937.353 1463.03 946.166 Q1463.03 954.979 1469.22 961.209 Q1475.45 967.398 1484.26 967.398 L1509.02 967.398 Q1509.71 967.398 1510.21 967.89 M1510.21 981.991 Q1510.7 982.482 1510.7 983.179 Q1510.7 983.876 1510.21 984.368 Q1509.71 984.86 1509.02 984.86 L1463.19 984.86 Q1462.49 984.86 1462 984.368 Q1461.51 983.876 1461.51 983.179 Q1461.51 982.482 1462 981.991 Q1462.49 981.499 1463.19 981.499 L1509.02 981.499 Q1509.71 981.499 1510.21 981.991 Z" fill="#000000" fill-rule="nonzero" fill-opacity="1" /><path clip-path="url(#clip410)" d="M1607.22 915.875 L1601.94 937.271 Q1601.57 938.624 1601.32 938.788 Q1601.12 938.952 1600.46 938.952 Q1599.19 938.952 1599.19 938.091 Q1599.19 938.009 1599.31 936.943 Q1599.44 935.837 1599.44 933.828 Q1599.44 926.409 1595.83 922.023 Q1592.26 917.637 1585.91 917.637 Q1580.42 917.637 1574.88 920.425 Q1569.39 923.212 1565.46 927.762 Q1562.5 931.205 1560.33 935.55 Q1558.2 939.895 1557.18 943.87 Q1556.19 947.846 1555.74 950.839 Q1555.29 953.831 1555.29 956.003 Q1555.29 959.159 1555.95 961.824 Q1556.64 964.488 1557.87 966.374 Q1559.1 968.218 1560.66 969.653 Q1562.26 971.046 1564.1 971.866 Q1565.99 972.686 1567.87 973.096 Q1569.76 973.465 1571.73 973.465 Q1579.64 973.465 1587.18 967.316 Q1593.16 962.275 1595.66 954.036 Q1595.87 953.216 1596.73 953.216 Q1597.76 953.216 1597.76 954.036 Q1597.76 954.2 1597.55 955.02 Q1597.35 955.798 1596.73 957.397 Q1596.12 958.955 1595.17 960.717 Q1594.23 962.48 1592.47 964.693 Q1590.71 966.906 1588.53 968.833 Q1584.84 972.03 1580.17 974.039 Q1575.5 976.047 1570.37 976.047 Q1563.98 976.047 1558.82 973.219 Q1553.65 970.391 1550.62 965.103 Q1547.63 959.815 1547.63 953.052 Q1547.63 945.92 1550.9 938.911 Q1554.18 931.902 1559.39 926.696 Q1564.59 921.49 1571.48 918.252 Q1578.37 915.014 1585.25 915.014 Q1587.88 915.014 1590.21 915.711 Q1592.55 916.408 1593.94 917.268 Q1595.38 918.129 1596.65 919.4 Q1597.92 920.63 1598.33 921.203 Q1598.78 921.777 1599.19 922.474 L1605.05 916.039 Q1606.08 915.014 1606.32 915.014 Q1606.81 915.014 1607.02 915.301 Q1607.22 915.588 1607.22 915.875 Z" fill="#000000" fill-rule="nonzero" fill-opacity="1" /><path clip-path="url(#clip410)" d="M1639.3 968.583 Q1639.3 969.186 1638.78 969.674 Q1638.3 970.161 1637.69 970.161 Q1637.35 970.161 1636.52 969.587 Q1634.14 967.923 1631.12 967.923 Q1628.43 967.923 1625.93 968.583 Q1623.43 969.243 1621.74 970.592 Q1620.08 971.912 1620.08 973.633 Q1620.08 975.785 1622.43 977.048 Q1624.87 975.929 1627.88 975.929 Q1628.86 975.929 1629.52 975.986 Q1630.21 976.043 1630.87 976.187 Q1631.53 976.33 1631.84 976.675 Q1632.19 976.99 1632.19 977.507 Q1632.19 979.343 1627.42 979.343 Q1624.32 979.343 1622.37 978.511 Q1619.88 979.745 1618.5 981.724 Q1617.12 983.704 1617.12 985.397 Q1617.12 986.86 1617.93 987.922 Q1618.76 988.984 1620.11 989.5 Q1621.48 990.017 1622.83 990.246 Q1624.21 990.447 1625.73 990.447 Q1628.23 990.447 1629.98 990.131 Q1631.75 989.787 1632.73 989.156 Q1633.73 988.525 1634.14 988.094 Q1634.57 987.635 1635 986.918 Q1635.26 986.516 1635.6 986.516 Q1635.86 986.516 1636.03 986.688 Q1636.23 986.832 1636.23 987.09 Q1636.23 987.406 1635.83 988.065 Q1635.46 988.725 1634.54 989.615 Q1633.65 990.476 1632.41 991.279 Q1631.21 992.054 1629.29 992.599 Q1627.36 993.144 1625.18 993.144 Q1620.74 993.144 1618.15 990.963 Q1615.6 988.783 1615.6 985.741 Q1615.6 983.618 1617.01 981.437 Q1618.44 979.228 1620.97 977.822 Q1618.61 976.072 1618.61 973.633 Q1618.61 971.452 1620.45 969.501 Q1622.32 967.55 1625.33 966.403 Q1628.37 965.226 1631.7 965.226 Q1633.56 965.226 1635.4 965.857 Q1637.24 966.46 1638.27 967.235 Q1639.3 968.009 1639.3 968.583 M1630.66 977.564 Q1629.4 977.22 1627.88 977.22 Q1625.82 977.22 1624.29 977.736 Q1625.53 978.052 1627.42 978.052 Q1629 978.052 1629.46 977.966 Q1629.95 977.88 1630.66 977.564 Z" fill="#000000" fill-rule="nonzero" fill-opacity="1" /><path clip-path="url(#clip410)" d="M917.671 1109.68 Q917.671 1110.01 916.072 1112.88 Q913.408 1118.16 910.006 1126.24 Q906.604 1134.31 904.677 1140.3 Q904.267 1141.73 903.98 1143.58 Q903.243 1149.23 900.865 1158 Q900.045 1160.75 899.513 1161.9 Q898.98 1163.05 898.201 1163.05 Q897.094 1163.05 897.094 1161.53 Q897.094 1160.01 898.488 1154.36 Q899.922 1148.7 901.48 1143.49 Q902.464 1140.62 902.464 1135.26 Q902.464 1133.53 902.382 1131.98 Q902.3 1130.42 901.972 1128.16 Q901.644 1125.91 901.111 1124.07 Q900.578 1122.22 899.554 1120.29 Q898.529 1118.33 897.135 1117.01 Q895.742 1115.66 893.61 1114.8 Q891.52 1113.94 888.896 1113.94 Q888.241 1113.94 887.421 1114.02 Q886.642 1114.06 884.756 1114.6 Q882.912 1115.13 881.354 1116.07 Q879.797 1116.97 878.116 1118.98 Q876.436 1120.99 875.534 1123.7 L875.206 1124.11 Q874.673 1124.11 874.386 1124.11 Q874.14 1124.07 873.853 1123.86 Q873.607 1123.66 873.607 1123.29 Q873.607 1122.43 874.263 1120.7 Q874.96 1118.98 876.354 1116.77 Q877.788 1114.56 879.633 1112.59 Q881.518 1110.62 884.265 1109.27 Q887.011 1107.92 889.962 1107.92 Q897.545 1107.92 901.152 1117.14 Q904.308 1124.97 904.595 1134.27 Q911.154 1117.75 915.662 1109.43 Q915.908 1108.82 916.646 1108.82 Q917.671 1108.86 917.671 1109.68 Z" fill="#000000" fill-rule="nonzero" fill-opacity="1" /><path clip-path="url(#clip410)" d="M990.469 1138.7 Q990.961 1139.19 990.961 1139.89 Q990.961 1140.58 990.469 1141.08 Q989.978 1141.57 989.281 1141.57 L964.523 1141.57 Q959.523 1141.57 954.932 1139.64 Q950.382 1137.67 947.103 1134.39 Q943.824 1131.12 941.856 1126.57 Q939.93 1121.97 939.93 1116.97 Q939.93 1111.97 941.856 1107.42 Q943.824 1102.83 947.103 1099.55 Q950.382 1096.27 954.932 1094.35 Q959.523 1092.38 964.523 1092.38 L989.281 1092.38 Q989.978 1092.38 990.469 1092.87 Q990.961 1093.36 990.961 1094.06 Q990.961 1094.76 990.469 1095.25 Q989.978 1095.74 989.281 1095.74 L964.523 1095.74 Q955.711 1095.74 949.48 1101.97 Q943.291 1108.16 943.291 1116.97 Q943.291 1125.79 949.48 1132.02 Q955.711 1138.21 964.523 1138.21 L989.281 1138.21 Q989.978 1138.21 990.469 1138.7 M990.469 1152.8 Q990.961 1153.29 990.961 1153.99 Q990.961 1154.68 990.469 1155.18 Q989.978 1155.67 989.281 1155.67 L943.455 1155.67 Q942.758 1155.67 942.266 1155.18 Q941.774 1154.68 941.774 1153.99 Q941.774 1153.29 942.266 1152.8 Q942.758 1152.31 943.455 1152.31 L989.281 1152.31 Q989.978 1152.31 990.469 1152.8 Z" fill="#000000" fill-rule="nonzero" fill-opacity="1" /><path clip-path="url(#clip410)" d="M1087.49 1086.68 L1082.2 1108.08 Q1081.83 1109.43 1081.59 1109.6 Q1081.38 1109.76 1080.72 1109.76 Q1079.45 1109.76 1079.45 1108.9 Q1079.45 1108.82 1079.58 1107.75 Q1079.7 1106.64 1079.7 1104.64 Q1079.7 1097.22 1076.09 1092.83 Q1072.53 1088.45 1066.17 1088.45 Q1060.68 1088.45 1055.15 1091.23 Q1049.65 1094.02 1045.72 1098.57 Q1042.77 1102.01 1040.6 1106.36 Q1038.46 1110.7 1037.44 1114.68 Q1036.46 1118.65 1036.01 1121.65 Q1035.55 1124.64 1035.55 1126.81 Q1035.55 1129.97 1036.21 1132.63 Q1036.91 1135.3 1038.14 1137.18 Q1039.37 1139.03 1040.92 1140.46 Q1042.52 1141.85 1044.37 1142.67 Q1046.25 1143.49 1048.14 1143.9 Q1050.02 1144.27 1051.99 1144.27 Q1059.9 1144.27 1067.44 1138.12 Q1073.43 1133.08 1075.93 1124.84 Q1076.13 1124.02 1076.99 1124.02 Q1078.02 1124.02 1078.02 1124.84 Q1078.02 1125.01 1077.81 1125.83 Q1077.61 1126.61 1076.99 1128.21 Q1076.38 1129.76 1075.44 1131.53 Q1074.49 1133.29 1072.73 1135.5 Q1070.97 1137.71 1068.8 1139.64 Q1065.11 1142.84 1060.44 1144.85 Q1055.76 1146.86 1050.64 1146.86 Q1044.24 1146.86 1039.08 1144.03 Q1033.92 1141.2 1030.88 1135.91 Q1027.89 1130.62 1027.89 1123.86 Q1027.89 1116.73 1031.17 1109.72 Q1034.45 1102.71 1039.65 1097.5 Q1044.86 1092.3 1051.75 1089.06 Q1058.63 1085.82 1065.52 1085.82 Q1068.14 1085.82 1070.48 1086.52 Q1072.81 1087.22 1074.21 1088.08 Q1075.64 1088.94 1076.91 1090.21 Q1078.18 1091.44 1078.59 1092.01 Q1079.04 1092.59 1079.45 1093.28 L1085.32 1086.85 Q1086.34 1085.82 1086.59 1085.82 Q1087.08 1085.82 1087.28 1086.11 Q1087.49 1086.4 1087.49 1086.68 Z" fill="#000000" fill-rule="nonzero" fill-opacity="1" /><path clip-path="url(#clip410)" d="M1858.45 559.049 Q1858.45 562.779 1857.1 566.96 Q1855.78 571.1 1853.82 574.666 Q1851.89 578.232 1849.23 581.88 Q1846.56 585.528 1844.31 588.11 Q1842.05 590.693 1839.72 593.029 Q1838.44 594.3 1837.87 595.16 Q1837.71 595.406 1837.58 597.333 Q1837.46 599.218 1837.46 599.915 Q1837.46 610.859 1842.58 610.859 Q1846.85 610.859 1853.49 604.301 Q1854.35 603.522 1854.59 603.522 Q1855.09 603.522 1855.33 603.891 Q1855.58 604.26 1855.58 604.547 Q1855.58 605.08 1853.61 606.883 Q1851.68 608.687 1850.5 609.507 Q1846.07 612.704 1842.42 612.704 Q1834.63 612.704 1833.03 599.833 Q1831.31 601.555 1830 602.702 Q1828.24 604.465 1827.75 604.875 Q1827.25 605.285 1826.97 605.285 Q1826.6 605.285 1826.27 604.916 Q1825.98 604.547 1825.98 604.219 Q1825.98 603.973 1826.39 603.358 L1832.83 597.251 Q1832.83 583.396 1839.47 568.271 Q1839.92 567.206 1840.58 565.853 Q1841.23 564.459 1842.75 561.918 Q1844.27 559.377 1845.78 557.45 Q1847.34 555.483 1849.43 554.007 Q1851.52 552.491 1853.49 552.491 Q1858.45 552.491 1858.45 559.049 M1856.44 558.721 Q1856.44 554.335 1853.57 554.335 Q1851.73 554.335 1850.29 556.221 Q1848.9 558.106 1846.85 562.246 Q1844.72 566.632 1842.54 574.133 Q1840.41 581.593 1839.51 585.692 Q1838.65 589.791 1838.32 591.635 Q1856.44 572.78 1856.44 558.721 Z" fill="#000000" fill-rule="nonzero" fill-opacity="1" /><path clip-path="url(#clip410)" d="M1867.08 602.411 L1867.08 600.574 Q1874.14 600.574 1877.79 596.816 Q1878.79 596.816 1878.96 597.045 Q1879.14 597.275 1879.14 598.336 L1879.14 631.304 Q1879.14 633.054 1880 633.599 Q1880.86 634.145 1884.62 634.145 L1886.48 634.145 L1886.48 635.952 Q1884.42 635.78 1876.96 635.78 Q1869.49 635.78 1867.46 635.952 L1867.46 634.145 L1869.32 634.145 Q1873.02 634.145 1873.91 633.628 Q1874.8 633.083 1874.8 631.304 L1874.8 600.861 Q1871.73 602.411 1867.08 602.411 Z" fill="#000000" fill-rule="nonzero" fill-opacity="1" /><path clip-path="url(#clip410)" d="M1621.13 369.739 Q1621.13 373.469 1619.78 377.65 Q1618.47 381.79 1616.5 385.356 Q1614.57 388.922 1611.91 392.57 Q1609.25 396.218 1606.99 398.801 Q1604.74 401.383 1602.4 403.719 Q1601.13 404.99 1600.56 405.851 Q1600.39 406.097 1600.27 408.023 Q1600.15 409.909 1600.15 410.605 Q1600.15 421.55 1605.27 421.55 Q1609.53 421.55 1616.17 414.991 Q1617.03 414.213 1617.28 414.213 Q1617.77 414.213 1618.02 414.581 Q1618.26 414.95 1618.26 415.237 Q1618.26 415.77 1616.3 417.574 Q1614.37 419.377 1613.18 420.197 Q1608.75 423.394 1605.11 423.394 Q1597.32 423.394 1595.72 410.524 Q1594 412.245 1592.69 413.393 Q1590.92 415.155 1590.43 415.565 Q1589.94 415.975 1589.65 415.975 Q1589.28 415.975 1588.96 415.606 Q1588.67 415.237 1588.67 414.909 Q1588.67 414.663 1589.08 414.049 L1595.51 407.941 Q1595.51 394.087 1602.15 378.962 Q1602.61 377.896 1603.26 376.543 Q1603.92 375.15 1605.43 372.608 Q1606.95 370.067 1608.47 368.141 Q1610.02 366.173 1612.11 364.698 Q1614.21 363.181 1616.17 363.181 Q1621.13 363.181 1621.13 369.739 M1619.12 369.411 Q1619.12 365.025 1616.25 365.025 Q1614.41 365.025 1612.98 366.911 Q1611.58 368.796 1609.53 372.936 Q1607.4 377.322 1605.23 384.823 Q1603.1 392.283 1602.2 396.382 Q1601.33 400.481 1601.01 402.326 Q1619.12 383.471 1619.12 369.411 Z" fill="#000000" fill-rule="nonzero" fill-opacity="1" /><path clip-path="url(#clip410)" d="M1629.77 446.643 Q1629.77 445.581 1629.86 445.265 Q1629.97 444.95 1630.43 444.462 L1641.71 431.895 Q1647.87 424.951 1647.87 418.897 Q1647.87 414.966 1645.81 412.154 Q1643.77 409.342 1640.01 409.342 Q1637.43 409.342 1635.25 410.92 Q1633.07 412.498 1632.06 415.31 Q1632.24 415.253 1632.84 415.253 Q1634.3 415.253 1635.11 416.171 Q1635.94 417.089 1635.94 418.323 Q1635.94 419.901 1634.91 420.676 Q1633.9 421.422 1632.9 421.422 Q1632.5 421.422 1631.95 421.336 Q1631.43 421.25 1630.6 420.446 Q1629.77 419.614 1629.77 418.151 Q1629.77 414.048 1632.87 410.777 Q1636 407.506 1640.76 407.506 Q1646.15 407.506 1649.68 410.72 Q1653.24 413.904 1653.24 418.897 Q1653.24 420.647 1652.69 422.254 Q1652.18 423.832 1651.46 425.066 Q1650.77 426.3 1648.88 428.279 Q1646.99 430.259 1645.46 431.665 Q1643.94 433.071 1640.53 436.055 L1634.3 442.109 L1644.89 442.109 Q1650.06 442.109 1650.46 441.65 Q1651.03 440.818 1651.75 436.428 L1653.24 436.428 L1651.58 446.643 L1629.77 446.643 Z" fill="#000000" fill-rule="nonzero" fill-opacity="1" /><path clip-path="url(#clip410)" d="M520.051 420.929 L520.051 418.347 L521.281 418.347 Q525.749 418.347 527.142 417.732 Q528.577 417.076 528.7 414.699 L528.7 369.898 Q528.618 367.725 527.224 367.07 Q525.831 366.373 521.281 366.373 L520.051 366.373 L520.051 363.831 Q523.986 363.995 531.856 363.995 Q535.053 363.995 537.799 363.913 Q540.587 363.831 541.038 363.831 L563.869 363.831 L566.205 382.727 L564.033 382.727 Q563.377 377.604 562.639 374.94 Q561.942 372.234 560.221 370.062 Q558.499 367.889 555.63 367.152 Q552.76 366.373 547.924 366.373 L540.751 366.373 Q538.045 366.373 537.103 366.906 Q536.16 367.438 536.16 369.652 L536.16 414.453 Q536.16 417.035 537.881 417.691 Q539.603 418.347 545.382 418.347 L546.899 418.347 L546.899 420.929 Q539.767 420.684 532.553 420.684 L532.02 420.684 Q526.773 420.684 520.051 420.929 Z" fill="#000000" fill-rule="nonzero" fill-opacity="1" /><path clip-path="url(#clip410)" d="M598.758 406.594 Q598.758 407.025 598.443 407.656 Q598.156 408.23 597.553 408.603 Q596.98 408.947 596.348 408.947 Q596.147 408.947 595.688 408.832 Q594.914 408.488 593.709 407.713 Q592.503 406.939 591.413 406.451 Q590.352 405.934 589.175 405.877 Q588.142 405.877 587.281 406.25 Q586.507 406.68 585.99 407.599 Q585.761 407.972 585.761 408.603 Q585.761 409.492 586.249 410.669 Q586.736 411.845 587.741 413.366 Q588.773 414.886 589.519 415.919 Q590.265 416.924 591.557 418.588 Q591.671 418.731 591.729 418.817 Q591.786 418.875 591.872 419.018 Q591.958 419.133 592.044 419.219 Q594.77 422.633 595.459 426.392 Q595.631 427.712 595.631 429.089 Q595.631 431.844 594.799 435.086 Q594.082 438.041 592.561 440.595 Q591.04 443.12 588.745 444.784 Q586.478 446.448 584.011 446.448 Q581.572 446.448 579.563 445.387 Q577.555 444.296 576.35 442.431 Q574.714 439.964 574.714 436.549 Q574.714 434.627 575.173 432.991 Q575.804 430.38 577.296 427.97 Q578.788 425.56 580.94 423.695 Q584.211 420.941 587.769 420.166 Q586.105 417.01 585.13 414.571 Q584.183 412.103 584.183 410.009 Q584.183 408.172 584.871 406.996 Q585.474 405.733 586.708 405.016 Q587.741 404.385 589.233 404.069 Q590.151 403.955 590.753 403.955 Q592.79 403.955 597.525 405.074 Q598.758 405.36 598.758 406.594 M591.585 431.442 Q591.585 429.692 591.298 428.515 Q590.753 425.646 588.573 421.687 L588.4 421.4 Q585.617 422.203 583.351 424.642 Q580.51 427.626 579.075 433.278 Q578.301 436.434 578.301 438.213 Q578.301 440.136 579.018 441.8 Q579.707 443.349 580.998 444.239 Q582.318 445.128 584.068 445.128 Q585.388 445.128 586.535 444.382 Q587.683 443.608 588.515 442.259 Q589.347 440.91 589.921 439.447 Q590.524 437.955 590.983 436.205 Q591.585 433.852 591.585 431.442 Z" fill="#000000" fill-rule="nonzero" fill-opacity="1" /><path clip-path="url(#clip410)" d="M601.377 444.841 Q600.545 443.895 600.545 442.661 Q600.545 441.427 601.349 440.509 Q602.181 439.562 603.673 439.562 Q605.423 439.562 606.427 441.255 Q607.432 442.919 607.432 445.731 Q607.432 448.772 606.198 451.584 Q604.964 454.425 603.759 455.773 Q602.554 457.122 602.066 457.122 Q601.492 457.122 601.492 456.491 Q601.492 456.261 601.894 455.831 Q606.112 451.297 606.14 445.731 Q606.14 444.841 606.026 444.841 L605.882 444.956 Q604.878 445.788 603.673 445.788 Q602.21 445.788 601.377 444.841 Z" fill="#000000" fill-rule="nonzero" fill-opacity="1" /><path clip-path="url(#clip410)" d="M649.674 422.519 Q649.674 423.121 649.158 423.609 Q648.67 424.097 648.067 424.097 Q647.723 424.097 646.891 423.523 Q644.509 421.859 641.497 421.859 Q638.8 421.859 636.303 422.519 Q633.807 423.179 632.114 424.527 Q630.45 425.847 630.45 427.568 Q630.45 429.72 632.803 430.983 Q635.242 429.864 638.255 429.864 Q639.23 429.864 639.89 429.921 Q640.579 429.979 641.239 430.122 Q641.898 430.266 642.214 430.61 Q642.558 430.926 642.558 431.442 Q642.558 433.278 637.795 433.278 Q634.697 433.278 632.746 432.446 Q630.249 433.68 628.872 435.66 Q627.495 437.64 627.495 439.332 Q627.495 440.796 628.298 441.857 Q629.13 442.919 630.479 443.435 Q631.856 443.952 633.205 444.181 Q634.582 444.382 636.103 444.382 Q638.599 444.382 640.349 444.067 Q642.128 443.722 643.104 443.091 Q644.108 442.46 644.509 442.03 Q644.94 441.57 645.37 440.853 Q645.628 440.451 645.973 440.451 Q646.231 440.451 646.403 440.624 Q646.604 440.767 646.604 441.025 Q646.604 441.341 646.202 442.001 Q645.829 442.661 644.911 443.55 Q644.022 444.411 642.788 445.214 Q641.583 445.989 639.66 446.534 Q637.738 447.079 635.557 447.079 Q631.11 447.079 628.528 444.899 Q625.974 442.718 625.974 439.677 Q625.974 437.553 627.38 435.373 Q628.815 433.164 631.34 431.758 Q628.987 430.007 628.987 427.568 Q628.987 425.388 630.823 423.437 Q632.688 421.486 635.701 420.338 Q638.742 419.162 642.071 419.162 Q643.936 419.162 645.772 419.793 Q647.608 420.395 648.641 421.17 Q649.674 421.945 649.674 422.519 M641.038 431.499 Q639.775 431.155 638.255 431.155 Q636.189 431.155 634.668 431.672 Q635.902 431.987 637.795 431.987 Q639.374 431.987 639.833 431.901 Q640.32 431.815 641.038 431.499 Z" fill="#000000" fill-rule="nonzero" fill-opacity="1" /></svg>
